<svg xmlns="http://www.w3.org/2000/svg" xmlns:xlink="http://www.w3.org/1999/xlink" width="500" zoomAndPan="magnify" viewBox="0 0 375 374.999991" height="500" preserveAspectRatio="xMidYMid meet" version="1.0"><defs><filter x="0%" y="0%" width="100%" height="100%" id="81d926072d"><feColorMatrix values="0 0 0 0 1 0 0 0 0 1 0 0 0 0 1 0 0 0 1 0" color-interpolation-filters="sRGB"/></filter><g/><clipPath id="6919358c4e"><path d="M 85 76.75 L 292.503906 76.75 L 292.503906 298 L 85 298 Z M 85 76.75 " clip-rule="nonzero"/></clipPath><clipPath id="dc2f74d4a8"><path d="M 82.503906 220 L 290 220 L 290 256 L 82.503906 256 Z M 82.503906 220 " clip-rule="nonzero"/></clipPath><mask id="59dc266a0a"><g filter="url(#81d926072d)"><rect x="-37.5" width="450" fill="#000000" y="-37.499999" height="449.999989" fill-opacity="0.3"/></g></mask><clipPath id="845a6b754a"><path d="M 1 0.199219 L 5.238281 0.199219 L 5.238281 9 L 1 9 Z M 1 0.199219 " clip-rule="nonzero"/></clipPath><clipPath id="6db1c37492"><rect x="0" width="6" y="0" height="10"/></clipPath><mask id="4f61befb59"><g filter="url(#81d926072d)"><rect x="-37.5" width="450" fill="#000000" y="-37.499999" height="449.999989" fill-opacity="0.3"/></g></mask><clipPath id="9847243d42"><path d="M 0.0390625 1 L 10.601562 1 L 10.601562 26.441406 L 0.0390625 26.441406 Z M 0.0390625 1 " clip-rule="nonzero"/></clipPath><clipPath id="17ccff4e7f"><rect x="0" width="11" y="0" height="27"/></clipPath><mask id="7828124bf1"><g filter="url(#81d926072d)"><rect x="-37.5" width="450" fill="#000000" y="-37.499999" height="449.999989" fill-opacity="0.2"/></g></mask><clipPath id="c5d16a5bb9"><path d="M 0.71875 0.679688 L 8.398438 0.679688 L 8.398438 4.28125 L 0.71875 4.28125 Z M 0.71875 0.679688 " clip-rule="nonzero"/></clipPath><clipPath id="24eabe8857"><rect x="0" width="9" y="0" height="5"/></clipPath><mask id="3b19d2b240"><g filter="url(#81d926072d)"><rect x="-37.5" width="450" fill="#000000" y="-37.499999" height="449.999989" fill-opacity="0.2"/></g></mask><clipPath id="77417afaf0"><path d="M 1 1 L 4.679688 1 L 4.679688 4.558594 L 1 4.558594 Z M 1 1 " clip-rule="nonzero"/></clipPath><clipPath id="e5d3cf14a6"><rect x="0" width="5" y="0" height="5"/></clipPath><mask id="f0b24b5eeb"><g filter="url(#81d926072d)"><rect x="-37.5" width="450" fill="#000000" y="-37.499999" height="449.999989" fill-opacity="0.2"/></g></mask><clipPath id="146e1ab39a"><path d="M 0.121094 0.480469 L 3.71875 0.480469 L 3.71875 4.320312 L 0.121094 4.320312 Z M 0.121094 0.480469 " clip-rule="nonzero"/></clipPath><clipPath id="9efb23ab8d"><rect x="0" width="4" y="0" height="5"/></clipPath><mask id="f2db1cbd48"><g filter="url(#81d926072d)"><rect x="-37.5" width="450" fill="#000000" y="-37.499999" height="449.999989" fill-opacity="0.2"/></g></mask><clipPath id="699c4e7c8a"><path d="M 0.398438 0.238281 L 3.761719 0.238281 L 3.761719 4.320312 L 0.398438 4.320312 Z M 0.398438 0.238281 " clip-rule="nonzero"/></clipPath><clipPath id="3eac421cc0"><rect x="0" width="4" y="0" height="5"/></clipPath><mask id="ebcba0f701"><g filter="url(#81d926072d)"><rect x="-37.5" width="450" fill="#000000" y="-37.499999" height="449.999989" fill-opacity="0.2"/></g></mask><clipPath id="72ee045a57"><path d="M 0.441406 0.480469 L 4 0.480469 L 4 4.800781 L 0.441406 4.800781 Z M 0.441406 0.480469 " clip-rule="nonzero"/></clipPath><clipPath id="3d72d12378"><rect x="0" width="5" y="0" height="5"/></clipPath><mask id="db4055bdc2"><g filter="url(#81d926072d)"><rect x="-37.5" width="450" fill="#000000" y="-37.499999" height="449.999989" fill-opacity="0.2"/></g></mask><clipPath id="404e4ceb43"><path d="M 0.71875 1 L 4.320312 1 L 4.320312 5 L 0.71875 5 Z M 0.71875 1 " clip-rule="nonzero"/></clipPath><clipPath id="1c0e551018"><rect x="0" width="5" y="0" height="6"/></clipPath><mask id="63558a60dd"><g filter="url(#81d926072d)"><rect x="-37.5" width="450" fill="#000000" y="-37.499999" height="449.999989" fill-opacity="0.2"/></g></mask><clipPath id="a706f332cf"><path d="M 0 1 L 6.238281 1 L 6.238281 5 L 0 5 Z M 0 1 " clip-rule="nonzero"/></clipPath><clipPath id="655ce9e360"><rect x="0" width="7" y="0" height="5"/></clipPath></defs><g clip-path="url(#6919358c4e)"><path fill="#fffaef" d="M 188.996094 297.941406 C 183.480469 297.941406 178.128906 296.804688 173.09375 294.566406 L 125.320312 273.324219 C 113.441406 268.046875 104.992188 257.261719 102.71875 244.472656 L 86.085938 151.03125 C 84.558594 142.453125 85.980469 133.496094 90.085938 125.808594 C 94.191406 118.117188 100.847656 111.953125 108.832031 108.441406 L 173.238281 80.117188 C 178.234375 77.921875 183.535156 76.808594 188.996094 76.808594 C 194.457031 76.808594 199.757812 77.921875 204.753906 80.117188 L 269.15625 108.4375 C 277.140625 111.949219 283.800781 118.117188 287.90625 125.804688 C 292.007812 133.492188 293.429688 142.449219 291.902344 151.027344 L 275.269531 244.472656 C 272.996094 257.257812 264.546875 268.042969 252.667969 273.324219 L 204.894531 294.5625 C 199.855469 296.804688 194.507812 297.9375 188.992188 297.9375 Z M 188.996094 297.941406 " fill-opacity="1" fill-rule="nonzero"/></g><path fill="#000826" d="M 188.996094 293.367188 C 184.125 293.367188 179.402344 292.363281 174.953125 290.386719 L 127.179688 269.144531 C 116.695312 264.484375 109.234375 254.960938 107.226562 243.671875 L 90.59375 150.230469 C 89.246094 142.65625 90.5 134.746094 94.125 127.957031 C 97.75 121.171875 103.632812 115.726562 110.679688 112.625 L 175.082031 84.304688 C 179.496094 82.363281 184.175781 81.378906 188.996094 81.378906 C 193.820312 81.378906 198.5 82.363281 202.910156 84.304688 L 267.316406 112.625 C 274.363281 115.722656 280.242188 121.171875 283.867188 127.957031 C 287.492188 134.742188 288.746094 142.652344 287.398438 150.226562 L 270.765625 243.671875 C 268.757812 254.960938 261.296875 264.480469 250.8125 269.144531 L 203.039062 290.382812 C 198.589844 292.359375 193.867188 293.367188 188.996094 293.367188 Z M 188.996094 293.367188 " fill-opacity="1" fill-rule="nonzero"/><path fill="#fffaef" d="M 178.035156 91 L 113.628906 119.324219 C 102.148438 124.371094 95.609375 136.609375 97.808594 148.949219 L 114.441406 242.390625 C 116.019531 251.273438 121.914062 258.792969 130.164062 262.460938 L 177.9375 283.699219 C 184.976562 286.832031 193.019531 286.832031 200.0625 283.699219 L 247.835938 262.460938 C 256.085938 258.792969 261.976562 251.273438 263.558594 242.390625 L 280.1875 148.949219 C 282.386719 136.609375 275.847656 124.371094 264.367188 119.324219 L 199.964844 91 C 192.980469 87.929688 185.023438 87.929688 178.039062 91 Z M 178.035156 91 " fill-opacity="1" fill-rule="nonzero"/><path fill="#f8a400" d="M 251.46875 158.125 C 251.46875 160.167969 251.367188 162.207031 251.167969 164.242188 C 250.96875 166.273438 250.667969 168.292969 250.269531 170.296875 C 249.867188 172.304688 249.371094 174.28125 248.777344 176.238281 C 248.183594 178.195312 247.496094 180.117188 246.710938 182.003906 C 245.929688 183.890625 245.054688 185.738281 244.089844 187.539062 C 243.128906 189.34375 242.078125 191.09375 240.941406 192.792969 C 239.804688 194.492188 238.585938 196.132812 237.289062 197.710938 C 235.988281 199.289062 234.617188 200.804688 233.171875 202.25 C 231.722656 203.695312 230.210938 205.0625 228.628906 206.359375 C 227.046875 207.65625 225.40625 208.875 223.703125 210.007812 C 222.003906 211.144531 220.25 212.195312 218.445312 213.15625 C 216.640625 214.121094 214.792969 214.992188 212.902344 215.773438 C 211.011719 216.558594 209.089844 217.246094 207.128906 217.839844 C 205.171875 218.429688 203.191406 218.925781 201.183594 219.324219 C 199.175781 219.722656 197.15625 220.023438 195.117188 220.222656 C 193.082031 220.425781 191.042969 220.523438 188.996094 220.523438 C 186.949219 220.523438 184.910156 220.425781 182.871094 220.222656 C 180.835938 220.023438 178.816406 219.722656 176.808594 219.324219 C 174.800781 218.925781 172.820312 218.429688 170.859375 217.839844 C 168.902344 217.246094 166.980469 216.558594 165.089844 215.773438 C 163.199219 214.992188 161.351562 214.121094 159.546875 213.15625 C 157.742188 212.195312 155.988281 211.144531 154.289062 210.007812 C 152.585938 208.875 150.945312 207.65625 149.363281 206.359375 C 147.78125 205.0625 146.265625 203.695312 144.820312 202.25 C 143.375 200.804688 142 199.289062 140.703125 197.710938 C 139.40625 196.132812 138.1875 194.492188 137.050781 192.792969 C 135.914062 191.09375 134.863281 189.34375 133.898438 187.539062 C 132.933594 185.738281 132.0625 183.890625 131.277344 182.003906 C 130.496094 180.117188 129.808594 178.195312 129.210938 176.238281 C 128.617188 174.28125 128.121094 172.304688 127.722656 170.296875 C 127.324219 168.292969 127.023438 166.273438 126.824219 164.242188 C 126.625 162.207031 126.523438 160.167969 126.523438 158.125 C 126.523438 156.082031 126.625 154.042969 126.824219 152.007812 C 127.023438 149.976562 127.324219 147.957031 127.722656 145.953125 C 128.121094 143.945312 128.617188 141.96875 129.210938 140.011719 C 129.808594 138.054688 130.496094 136.132812 131.277344 134.246094 C 132.0625 132.359375 132.933594 130.511719 133.898438 128.710938 C 134.863281 126.90625 135.914062 125.15625 137.050781 123.457031 C 138.1875 121.757812 139.40625 120.117188 140.703125 118.539062 C 142 116.960938 143.375 115.445312 144.820312 114 C 146.265625 112.554688 147.78125 111.1875 149.363281 109.890625 C 150.945312 108.59375 152.585938 107.375 154.289062 106.242188 C 155.988281 105.105469 157.742188 104.054688 159.546875 103.09375 C 161.351562 102.128906 163.199219 101.257812 165.089844 100.476562 C 166.980469 99.691406 168.902344 99.003906 170.859375 98.410156 C 172.820312 97.820312 174.800781 97.324219 176.808594 96.925781 C 178.816406 96.527344 180.835938 96.226562 182.871094 96.027344 C 184.910156 95.824219 186.949219 95.726562 188.996094 95.726562 C 191.042969 95.726562 193.082031 95.824219 195.117188 96.027344 C 197.15625 96.226562 199.175781 96.527344 201.183594 96.925781 C 203.191406 97.324219 205.171875 97.820312 207.128906 98.410156 C 209.089844 99.003906 211.011719 99.691406 212.902344 100.476562 C 214.792969 101.257812 216.640625 102.128906 218.445312 103.09375 C 220.25 104.054688 222.003906 105.105469 223.703125 106.242188 C 225.40625 107.375 227.046875 108.59375 228.628906 109.890625 C 230.210938 111.1875 231.722656 112.554688 233.171875 114 C 234.617188 115.445312 235.988281 116.960938 237.289062 118.539062 C 238.585938 120.117188 239.804688 121.757812 240.941406 123.457031 C 242.078125 125.15625 243.128906 126.90625 244.089844 128.710938 C 245.054688 130.511719 245.929688 132.359375 246.710938 134.246094 C 247.496094 136.132812 248.183594 138.054688 248.777344 140.011719 C 249.371094 141.96875 249.867188 143.945312 250.269531 145.953125 C 250.667969 147.957031 250.96875 149.976562 251.167969 152.007812 C 251.367188 154.042969 251.46875 156.082031 251.46875 158.125 Z M 251.46875 158.125 " fill-opacity="1" fill-rule="nonzero"/><path fill="#fffaef" d="M 132.945312 124.222656 L 157.171875 120.558594 L 173.851562 122.890625 L 183.730469 123.742188 L 157.808594 125.757812 L 148.140625 127.878906 L 128.804688 127.242188 Z M 132.945312 124.222656 " fill-opacity="1" fill-rule="nonzero"/><path fill="#fffaef" d="M 119.722656 151.324219 L 138.191406 148.53125 L 150.910156 150.3125 L 158.445312 150.957031 L 138.679688 152.496094 L 131.308594 154.113281 L 116.566406 153.628906 Z M 119.722656 151.324219 " fill-opacity="1" fill-rule="nonzero"/><path fill="#fffaef" d="M 257.285156 139.183594 L 233.058594 142.84375 L 216.378906 140.507812 L 206.5 139.660156 L 232.417969 137.644531 L 242.085938 135.519531 L 261.425781 136.160156 Z M 257.285156 139.183594 " fill-opacity="1" fill-rule="nonzero"/><path fill="#fffaef" d="M 229.671875 105.800781 L 211.332031 108.574219 L 194.648438 106.238281 L 184.769531 105.390625 L 210.691406 103.371094 L 220.359375 101.25 Z M 229.671875 105.800781 " fill-opacity="1" fill-rule="nonzero"/><path fill="#fffaef" d="M 123.414062 179.542969 C 123.414062 179.542969 137.757812 173.273438 160.621094 179.542969 C 147.621094 174.28125 132.773438 174.394531 123.414062 179.542969 Z M 123.414062 179.542969 " fill-opacity="1" fill-rule="nonzero"/><path fill="#000628" d="M 113.164062 192.855469 L 103.496094 214.472656 L 109.308594 234.78125 L 269.238281 230.765625 L 279.648438 178.292969 Z M 113.164062 192.855469 " fill-opacity="1" fill-rule="nonzero"/><g clip-path="url(#dc2f74d4a8)"><path fill="#f8a400" d="M 289.523438 255.964844 L 82.503906 255.964844 L 92.507812 238.246094 L 82.503906 220.523438 L 289.523438 220.523438 L 279.519531 237.472656 Z M 289.523438 255.964844 " fill-opacity="1" fill-rule="nonzero"/></g><path fill="#000628" d="M 284.492188 252.96875 L 87.640625 252.96875 L 95.953125 238.246094 L 87.640625 223.523438 L 284.269531 223.523438 L 276.074219 237.40625 L 284.488281 252.96875 Z M 89.355469 251.96875 L 282.8125 251.96875 L 274.925781 237.386719 L 282.519531 224.523438 L 89.355469 224.523438 L 97.101562 238.246094 Z M 89.355469 251.96875 " fill-opacity="1" fill-rule="nonzero"/><path fill="#000628" d="M 266.933594 198.910156 C 267.566406 199.96875 268.894531 200.382812 269.984375 199.804688 C 273.136719 198.125 278.191406 194.019531 276.96875 185.265625 L 276.546875 182.796875 C 276.546875 182.796875 279.378906 171.71875 274.320312 170.515625 C 269.257812 169.308594 258.226562 175.871094 249.304688 161.242188 C 240.386719 146.613281 226.871094 144.210938 200.105469 144.210938 C 173.339844 144.210938 159.203125 143.925781 155.621094 160.683594 C 134.886719 162.941406 128.007812 162.660156 121.882812 168.683594 C 106.144531 165.011719 97.839844 170.125 97.839844 176.046875 C 97.839844 181.964844 102.375 180.953125 102.375 186.871094 C 98.53125 188.042969 100.238281 193.480469 100.238281 193.480469 C 100.238281 193.480469 95.550781 193.359375 95.550781 198.730469 C 95.550781 204.105469 98.882812 210.574219 110.019531 208.71875 C 111.117188 215.113281 114.964844 217.8125 126.371094 217.332031 C 137.324219 216.871094 140.230469 210.367188 140.230469 210.367188 L 181.628906 210.523438 C 181.628906 210.523438 183.097656 223.785156 198.554688 224.625 C 215.929688 225.574219 218.398438 208.410156 218.398438 208.410156 L 249.042969 203.34375 C 249.042969 203.34375 250.398438 210.445312 256.859375 210.308594 C 263.761719 210.164062 265.738281 202.5 265.667969 197.503906 C 266.234375 197.914062 266.640625 198.414062 266.933594 198.902344 Z M 266.933594 198.910156 " fill-opacity="1" fill-rule="nonzero"/><path fill="#fffaef" d="M 204.027344 203.648438 C 204.027344 204.199219 203.960938 204.730469 203.820312 205.238281 C 203.683594 205.746094 203.484375 206.195312 203.226562 206.585938 C 202.972656 206.976562 202.675781 207.277344 202.339844 207.488281 C 202.003906 207.699219 201.65625 207.804688 201.292969 207.804688 C 200.929688 207.804688 200.582031 207.699219 200.246094 207.488281 C 199.910156 207.277344 199.613281 206.976562 199.359375 206.585938 C 199.101562 206.195312 198.902344 205.746094 198.765625 205.238281 C 198.625 204.730469 198.554688 204.199219 198.554688 203.648438 C 198.554688 203.097656 198.625 202.566406 198.765625 202.054688 C 198.902344 201.546875 199.101562 201.097656 199.359375 200.707031 C 199.613281 200.316406 199.910156 200.015625 200.246094 199.804688 C 200.582031 199.59375 200.929688 199.488281 201.292969 199.488281 C 201.65625 199.488281 202.003906 199.59375 202.339844 199.804688 C 202.675781 200.015625 202.972656 200.316406 203.226562 200.707031 C 203.484375 201.097656 203.683594 201.546875 203.820312 202.054688 C 203.960938 202.566406 204.027344 203.097656 204.027344 203.648438 Z M 204.027344 203.648438 " fill-opacity="1" fill-rule="nonzero"/><g mask="url(#59dc266a0a)"><g transform="matrix(1, 0, 0, 1, 199, 199)"><g clip-path="url(#6db1c37492)"><g clip-path="url(#845a6b754a)"><path fill="#000628" d="M 2.292969 0.488281 C 1.886719 0.488281 1.5 0.625 1.152344 0.871094 C 1.300781 0.832031 1.449219 0.8125 1.605469 0.8125 C 3.117188 0.8125 4.34375 2.671875 4.34375 4.96875 C 4.34375 6.644531 3.691406 8.089844 2.75 8.746094 C 4.042969 8.417969 5.03125 6.707031 5.03125 4.648438 C 5.03125 2.355469 3.804688 0.492188 2.292969 0.492188 Z M 2.292969 0.488281 " fill-opacity="1" fill-rule="nonzero"/></g></g></g></g><path fill="#fffaef" d="M 190.398438 204.058594 C 190.398438 212.671875 195.292969 219.652344 201.332031 219.652344 C 207.371094 219.652344 212.265625 212.671875 212.265625 204.058594 C 212.265625 195.449219 207.371094 188.46875 201.332031 188.46875 C 195.296875 188.46875 190.398438 195.449219 190.398438 204.058594 Z M 192.105469 204.339844 C 192.105469 197.3125 195.808594 191.617188 200.371094 191.617188 C 204.9375 191.617188 208.640625 197.3125 208.640625 204.339844 C 208.640625 211.363281 204.9375 217.058594 200.371094 217.058594 C 195.808594 217.058594 192.105469 211.363281 192.105469 204.339844 Z M 192.105469 204.339844 " fill-opacity="1" fill-rule="nonzero"/><g mask="url(#4f61befb59)"><g transform="matrix(1, 0, 0, 1, 191, 191)"><g clip-path="url(#17ccff4e7f)"><g clip-path="url(#9847243d42)"><path fill="#000628" d="M 7.34375 1.003906 C 3.28125 1.808594 0.144531 7.148438 0.144531 13.617188 C 0.144531 20.644531 3.847656 26.335938 8.410156 26.335938 C 9.113281 26.335938 9.789062 26.203125 10.4375 25.949219 C 10.089844 26.019531 9.734375 26.0625 9.371094 26.0625 C 4.808594 26.0625 1.105469 20.363281 1.105469 13.339844 C 1.105469 7.390625 3.761719 2.394531 7.34375 1.003906 Z M 7.34375 1.003906 " fill-opacity="1" fill-rule="nonzero"/></g></g></g></g><path fill="#2d7215" d="M 217.785156 197.171875 C 217.785156 197.171875 218.796875 200.742188 218.175781 205.339844 L 239.976562 198.820312 L 220.035156 201.667969 C 220.035156 201.667969 219.523438 199.039062 217.785156 197.171875 Z M 217.785156 197.171875 " fill-opacity="1" fill-rule="nonzero"/><path fill="#fffaef" d="M 183.097656 189.414062 C 183.097656 189.75 183.039062 190.070312 182.921875 190.378906 C 182.804688 190.6875 182.636719 190.957031 182.417969 191.195312 C 182.203125 191.429688 181.949219 191.613281 181.664062 191.738281 C 181.382812 191.867188 181.085938 191.929688 180.777344 191.929688 C 180.46875 191.929688 180.171875 191.867188 179.886719 191.738281 C 179.601562 191.613281 179.351562 191.429688 179.132812 191.195312 C 178.917969 190.957031 178.75 190.6875 178.632812 190.378906 C 178.511719 190.070312 178.453125 189.75 178.453125 189.414062 C 178.453125 189.082031 178.511719 188.761719 178.632812 188.453125 C 178.75 188.144531 178.917969 187.875 179.132812 187.636719 C 179.351562 187.402344 179.601562 187.21875 179.886719 187.09375 C 180.171875 186.964844 180.46875 186.902344 180.777344 186.902344 C 181.085938 186.902344 181.382812 186.964844 181.664062 187.09375 C 181.949219 187.21875 182.203125 187.402344 182.417969 187.636719 C 182.636719 187.875 182.804688 188.144531 182.921875 188.453125 C 183.039062 188.761719 183.097656 189.082031 183.097656 189.414062 Z M 183.097656 189.414062 " fill-opacity="1" fill-rule="nonzero"/><path fill="#fffaef" d="M 108.140625 186.902344 C 108.140625 187.234375 108.082031 187.554688 107.964844 187.863281 C 107.847656 188.171875 107.679688 188.441406 107.460938 188.679688 C 107.242188 188.914062 106.992188 189.097656 106.707031 189.222656 C 106.421875 189.351562 106.125 189.414062 105.820312 189.414062 C 105.511719 189.414062 105.214844 189.351562 104.929688 189.222656 C 104.644531 189.097656 104.394531 188.914062 104.175781 188.679688 C 103.957031 188.441406 103.789062 188.171875 103.671875 187.863281 C 103.554688 187.554688 103.496094 187.234375 103.496094 186.902344 C 103.496094 186.566406 103.554688 186.246094 103.671875 185.9375 C 103.789062 185.628906 103.957031 185.359375 104.175781 185.121094 C 104.394531 184.886719 104.644531 184.703125 104.929688 184.578125 C 105.214844 184.449219 105.511719 184.386719 105.820312 184.386719 C 106.125 184.386719 106.421875 184.449219 106.707031 184.578125 C 106.992188 184.703125 107.242188 184.886719 107.460938 185.121094 C 107.679688 185.359375 107.847656 185.628906 107.964844 185.9375 C 108.082031 186.246094 108.140625 186.566406 108.140625 186.902344 Z M 108.140625 186.902344 " fill-opacity="1" fill-rule="nonzero"/><path fill="#fffaef" d="M 185.683594 178.292969 C 185.683594 178.628906 185.652344 178.960938 185.589844 179.289062 C 185.53125 179.617188 185.441406 179.9375 185.324219 180.246094 C 185.203125 180.554688 185.058594 180.851562 184.886719 181.128906 C 184.714844 181.40625 184.519531 181.664062 184.300781 181.902344 C 184.082031 182.140625 183.84375 182.351562 183.585938 182.539062 C 183.328125 182.722656 183.054688 182.882812 182.769531 183.007812 C 182.484375 183.136719 182.1875 183.234375 181.882812 183.300781 C 181.582031 183.367188 181.273438 183.398438 180.964844 183.398438 C 180.652344 183.398438 180.347656 183.367188 180.042969 183.300781 C 179.738281 183.234375 179.445312 183.136719 179.15625 183.007812 C 178.871094 182.882812 178.601562 182.722656 178.34375 182.539062 C 178.085938 182.351562 177.847656 182.140625 177.628906 181.902344 C 177.40625 181.664062 177.210938 181.40625 177.039062 181.128906 C 176.867188 180.851562 176.722656 180.554688 176.605469 180.246094 C 176.484375 179.9375 176.394531 179.617188 176.335938 179.289062 C 176.273438 178.960938 176.246094 178.628906 176.246094 178.292969 C 176.246094 177.957031 176.273438 177.625 176.335938 177.296875 C 176.394531 176.96875 176.484375 176.648438 176.605469 176.339844 C 176.722656 176.027344 176.867188 175.734375 177.039062 175.457031 C 177.210938 175.175781 177.40625 174.917969 177.628906 174.679688 C 177.847656 174.445312 178.085938 174.234375 178.34375 174.046875 C 178.601562 173.859375 178.871094 173.703125 179.15625 173.574219 C 179.445312 173.445312 179.738281 173.347656 180.042969 173.285156 C 180.347656 173.21875 180.652344 173.1875 180.964844 173.1875 C 181.273438 173.1875 181.582031 173.21875 181.882812 173.285156 C 182.1875 173.347656 182.484375 173.445312 182.769531 173.574219 C 183.054688 173.703125 183.328125 173.859375 183.585938 174.046875 C 183.84375 174.234375 184.082031 174.445312 184.300781 174.679688 C 184.519531 174.917969 184.714844 175.175781 184.886719 175.457031 C 185.058594 175.734375 185.203125 176.027344 185.324219 176.339844 C 185.441406 176.648438 185.53125 176.96875 185.589844 177.296875 C 185.652344 177.625 185.683594 177.957031 185.683594 178.292969 Z M 185.683594 178.292969 " fill-opacity="1" fill-rule="nonzero"/><path fill="#000628" d="M 180.25 181.78125 C 181.972656 181.78125 183.371094 180.269531 183.371094 178.40625 C 183.371094 176.539062 181.972656 175.027344 180.25 175.027344 C 179.589844 175.027344 178.984375 175.246094 178.480469 175.621094 C 179.113281 174.972656 179.96875 174.578125 180.910156 174.578125 C 182.863281 174.578125 184.449219 176.292969 184.449219 178.40625 C 184.449219 180.523438 182.867188 182.238281 180.910156 182.238281 C 179.96875 182.238281 179.113281 181.839844 178.480469 181.191406 C 178.984375 181.566406 179.589844 181.785156 180.25 181.785156 Z M 180.25 181.78125 " fill-opacity="1" fill-rule="nonzero"/><path fill="#fffaef" d="M 110.539062 176.285156 C 110.539062 176.621094 110.507812 176.953125 110.445312 177.28125 C 110.386719 177.609375 110.296875 177.929688 110.179688 178.238281 C 110.058594 178.550781 109.914062 178.84375 109.742188 179.121094 C 109.570312 179.402344 109.375 179.660156 109.15625 179.894531 C 108.9375 180.132812 108.699219 180.34375 108.441406 180.53125 C 108.183594 180.71875 107.910156 180.875 107.625 181.003906 C 107.339844 181.132812 107.042969 181.226562 106.738281 181.292969 C 106.433594 181.359375 106.128906 181.390625 105.820312 181.390625 C 105.507812 181.390625 105.203125 181.359375 104.898438 181.292969 C 104.59375 181.226562 104.300781 181.132812 104.011719 181.003906 C 103.726562 180.875 103.453125 180.71875 103.195312 180.53125 C 102.9375 180.34375 102.699219 180.132812 102.480469 179.894531 C 102.261719 179.660156 102.066406 179.402344 101.894531 179.121094 C 101.722656 178.84375 101.578125 178.550781 101.460938 178.238281 C 101.339844 177.929688 101.25 177.609375 101.191406 177.28125 C 101.128906 176.953125 101.101562 176.621094 101.101562 176.285156 C 101.101562 175.949219 101.128906 175.617188 101.191406 175.289062 C 101.25 174.960938 101.339844 174.640625 101.460938 174.332031 C 101.578125 174.019531 101.722656 173.726562 101.894531 173.449219 C 102.066406 173.167969 102.261719 172.910156 102.480469 172.675781 C 102.699219 172.4375 102.9375 172.226562 103.195312 172.039062 C 103.453125 171.851562 103.726562 171.695312 104.011719 171.566406 C 104.300781 171.4375 104.59375 171.34375 104.898438 171.277344 C 105.203125 171.210938 105.507812 171.179688 105.820312 171.179688 C 106.128906 171.179688 106.433594 171.210938 106.738281 171.277344 C 107.042969 171.34375 107.339844 171.4375 107.625 171.566406 C 107.910156 171.695312 108.183594 171.851562 108.441406 172.039062 C 108.699219 172.226562 108.9375 172.4375 109.15625 172.675781 C 109.375 172.910156 109.570312 173.167969 109.742188 173.449219 C 109.914062 173.726562 110.058594 174.019531 110.179688 174.332031 C 110.296875 174.640625 110.386719 174.960938 110.445312 175.289062 C 110.507812 175.617188 110.539062 175.949219 110.539062 176.285156 Z M 110.539062 176.285156 " fill-opacity="1" fill-rule="nonzero"/><path fill="#000628" d="M 105.101562 179.773438 C 106.828125 179.773438 108.226562 178.261719 108.226562 176.398438 C 108.226562 174.53125 106.828125 173.019531 105.101562 173.019531 C 104.445312 173.019531 103.835938 173.238281 103.335938 173.613281 C 103.96875 172.964844 104.824219 172.566406 105.765625 172.566406 C 107.71875 172.566406 109.304688 174.285156 109.304688 176.398438 C 109.304688 178.511719 107.722656 180.230469 105.765625 180.230469 C 104.824219 180.230469 103.96875 179.832031 103.335938 179.183594 C 103.835938 179.558594 104.445312 179.777344 105.101562 179.777344 Z M 105.101562 179.773438 " fill-opacity="1" fill-rule="nonzero"/><path fill="#fffaef" d="M 261.035156 199.054688 C 261.035156 199.667969 260.96875 200.261719 260.839844 200.828125 C 260.707031 201.394531 260.523438 201.894531 260.28125 202.332031 C 260.039062 202.765625 259.757812 203.097656 259.441406 203.335938 C 259.125 203.570312 258.796875 203.6875 258.453125 203.6875 C 258.113281 203.6875 257.785156 203.570312 257.46875 203.335938 C 257.152344 203.097656 256.871094 202.765625 256.628906 202.332031 C 256.386719 201.894531 256.199219 201.394531 256.070312 200.828125 C 255.9375 200.261719 255.875 199.667969 255.875 199.054688 C 255.875 198.441406 255.9375 197.851562 256.070312 197.28125 C 256.199219 196.714844 256.386719 196.214844 256.628906 195.78125 C 256.871094 195.347656 257.152344 195.011719 257.46875 194.777344 C 257.785156 194.542969 258.113281 194.421875 258.453125 194.421875 C 258.796875 194.421875 259.125 194.542969 259.441406 194.777344 C 259.757812 195.011719 260.039062 195.347656 260.28125 195.78125 C 260.523438 196.214844 260.707031 196.714844 260.839844 197.28125 C 260.96875 197.851562 261.035156 198.441406 261.035156 199.054688 Z M 261.035156 199.054688 " fill-opacity="1" fill-rule="nonzero"/><path fill="#fffaef" d="M 263.082031 198.109375 C 263.082031 193.996094 261.535156 190.441406 259.285156 188.742188 C 262.164062 189.792969 264.304688 193.761719 264.304688 198.503906 C 264.304688 204.042969 261.382812 208.535156 257.773438 208.535156 C 257.535156 208.535156 257.300781 208.511719 257.066406 208.476562 C 260.453125 207.882812 263.082031 203.46875 263.082031 198.109375 Z M 263.082031 198.109375 " fill-opacity="1" fill-rule="nonzero"/><path fill="#2d7215" d="M 172.4375 202.238281 C 172.4375 202.238281 171.375 204.949219 157.71875 204.949219 C 144.0625 204.949219 128.832031 204.59375 121.554688 204.238281 C 114.273438 203.886719 114.472656 201.105469 114.472656 199.238281 C 114.472656 197.371094 118.636719 196.839844 127.765625 196.839844 C 136.894531 196.839844 159.398438 196.320312 163.140625 197.660156 C 166.878906 199 167.347656 202.117188 172.433594 202.234375 Z M 172.4375 202.238281 " fill-opacity="1" fill-rule="nonzero"/><path fill="#2d7215" d="M 185.054688 202.070312 C 185.054688 204.703125 182.917969 206.839844 180.277344 206.839844 C 177.640625 206.839844 175.503906 204.703125 175.503906 202.070312 Z M 185.054688 202.070312 " fill-opacity="1" fill-rule="nonzero"/><path fill="#2d7215" d="M 109.308594 199.683594 C 109.308594 202.320312 107.167969 204.453125 104.53125 204.453125 C 101.894531 204.453125 99.757812 202.320312 99.757812 199.683594 Z M 109.308594 199.683594 " fill-opacity="1" fill-rule="nonzero"/><path fill="#2d7215" d="M 215.460938 169.296875 C 215.460938 169.296875 186.253906 165.769531 172.746094 174.867188 C 172.746094 174.867188 170.355469 174.179688 171.363281 170.789062 C 172.367188 167.398438 168.660156 163.699219 130.019531 168.152344 C 130.019531 168.152344 164.941406 156.382812 215.464844 169.296875 Z M 215.460938 169.296875 " fill-opacity="1" fill-rule="nonzero"/><path fill="#2d7215" d="M 216.695312 162.65625 C 216.695312 162.65625 186.683594 159.511719 161.570312 160.699219 C 165.136719 149.9375 166.707031 149.34375 186.964844 148.960938 C 204.171875 148.636719 215.085938 147.351562 216.695312 162.65625 Z M 216.695312 162.65625 " fill-opacity="1" fill-rule="nonzero"/><path fill="#000628" d="M 214.390625 161.246094 L 214.371094 161.246094 C 213.5 161.125 212.808594 160.449219 212.65625 159.582031 C 212.230469 157.128906 210.21875 152.277344 201.09375 150.933594 C 201.09375 150.933594 213.605469 150.128906 214.390625 161.246094 Z M 214.390625 161.246094 " fill-opacity="1" fill-rule="nonzero"/><path fill="#2d7215" d="M 248.960938 167.53125 L 231.707031 167.882812 L 241.9375 166.53125 L 230.003906 166.730469 C 230.003906 166.730469 226.492188 162.773438 225.886719 156.460938 C 241.839844 156.3125 243.191406 157.0625 248.960938 167.535156 Z M 248.960938 167.53125 " fill-opacity="1" fill-rule="nonzero"/><path fill="#fffaef" d="M 225.890625 180.105469 L 184.453125 180.519531 L 184.785156 176.628906 Z M 225.890625 180.105469 " fill-opacity="1" fill-rule="nonzero"/><path fill="#fffaef" d="M 127.574219 189.730469 C 123.40625 188.761719 120.792969 187.367188 120.792969 185.808594 C 120.792969 185.589844 120.84375 185.375 120.945312 185.160156 C 121.570312 183.855469 124.0625 182.695312 127.714844 181.859375 C 127.890625 182.539062 128.058594 183.398438 128.132812 184.394531 C 128.246094 185.902344 128.15625 187.726562 127.574219 189.726562 Z M 127.574219 189.730469 " fill-opacity="1" fill-rule="nonzero"/><path fill="#fffaef" d="M 132.371094 190.5625 C 131.476562 190.453125 130.617188 190.320312 129.796875 190.179688 C 130.152344 188.546875 130.496094 186.390625 130.453125 184.257812 C 130.4375 183.277344 130.335938 182.300781 130.125 181.386719 C 130.988281 181.238281 131.898438 181.109375 132.847656 181 C 133.074219 181.769531 133.3125 182.851562 133.390625 184.148438 C 133.496094 185.9375 133.304688 188.148438 132.371094 190.5625 Z M 132.371094 190.5625 " fill-opacity="1" fill-rule="nonzero"/><path fill="#fffaef" d="M 137.230469 190.992188 C 136.390625 190.945312 135.574219 190.886719 134.777344 190.820312 C 135.183594 189.222656 135.699219 186.667969 135.699219 184.109375 C 135.699219 182.96875 135.59375 181.820312 135.328125 180.757812 C 136.230469 180.683594 137.15625 180.628906 138.105469 180.589844 C 138.351562 181.441406 138.601562 182.652344 138.648438 184.109375 C 138.707031 186.042969 138.402344 188.421875 137.230469 190.988281 Z M 137.230469 190.992188 " fill-opacity="1" fill-rule="nonzero"/><path fill="#fffaef" d="M 149.601562 190.675781 C 148.824219 190.757812 148.023438 190.832031 147.199219 190.894531 C 146.0625 188.476562 145.699219 186.21875 145.695312 184.332031 C 145.695312 182.84375 145.914062 181.582031 146.15625 180.65625 C 147.109375 180.714844 148.035156 180.785156 148.933594 180.875 C 148.6875 182.035156 148.621094 183.285156 148.664062 184.511719 C 148.742188 186.902344 149.230469 189.21875 149.601562 190.671875 Z M 149.601562 190.675781 " fill-opacity="1" fill-rule="nonzero"/><path fill="#fffaef" d="M 144.59375 191.042969 C 143.570312 191.082031 142.527344 191.101562 141.460938 191.101562 C 140.910156 191.101562 140.363281 191.097656 139.820312 191.085938 C 140.199219 189.714844 140.859375 186.976562 140.933594 184.148438 C 140.964844 182.921875 140.886719 181.679688 140.628906 180.527344 C 140.90625 180.523438 141.183594 180.519531 141.460938 180.519531 C 142.207031 180.519531 142.941406 180.53125 143.664062 180.550781 C 143.433594 181.730469 143.378906 182.992188 143.433594 184.230469 C 143.554688 187.089844 144.238281 189.808594 144.59375 191.042969 Z M 144.59375 191.042969 " fill-opacity="1" fill-rule="nonzero"/><path fill="#fffaef" d="M 154.550781 189.90625 C 153.75 190.074219 152.898438 190.226562 152.003906 190.363281 C 151.183594 188.269531 150.925781 186.328125 150.933594 184.675781 C 150.945312 183.261719 151.15625 182.0625 151.386719 181.167969 C 152.347656 181.304688 153.261719 181.457031 154.121094 181.628906 C 153.921875 182.695312 153.867188 183.824219 153.902344 184.9375 C 153.957031 186.746094 154.25 188.515625 154.550781 189.90625 Z M 154.550781 189.90625 " fill-opacity="1" fill-rule="nonzero"/><path fill="#fffaef" d="M 162.132812 185.808594 C 162.132812 185.832031 162.132812 185.851562 162.128906 185.875 C 162.070312 187.222656 160.042969 188.445312 156.75 189.371094 C 156.316406 187.84375 156.167969 186.417969 156.175781 185.164062 C 156.183594 184.007812 156.324219 183 156.5 182.179688 C 159.996094 183.125 162.136719 184.40625 162.136719 185.808594 Z M 162.132812 185.808594 " fill-opacity="1" fill-rule="nonzero"/><path fill="#fffaef" d="M 272.863281 174.191406 C 272.863281 174.191406 252.730469 174.191406 230.300781 175.722656 C 246.585938 177.558594 264.867188 175.847656 272.863281 174.191406 Z M 272.863281 174.191406 " fill-opacity="1" fill-rule="nonzero"/><path fill="#fffaef" d="M 274.820312 188.582031 C 274.820312 188.582031 275.144531 194.921875 269.238281 197.128906 C 273.515625 193.878906 274.820312 188.582031 274.820312 188.582031 Z M 274.820312 188.582031 " fill-opacity="1" fill-rule="nonzero"/><path fill="#fffaef" d="M 251.558594 188.960938 L 201.078125 188.46875 L 206.386719 192.375 Z M 251.558594 188.960938 " fill-opacity="1" fill-rule="nonzero"/><g mask="url(#7828124bf1)"><g transform="matrix(1, 0, 0, 1, 120, 181)"><g clip-path="url(#24eabe8857)"><g clip-path="url(#c5d16a5bb9)"><path fill="#000628" d="M 7.714844 0.859375 C 7.890625 1.539062 8.058594 2.398438 8.132812 3.394531 C 5.050781 3.609375 2.65625 3.902344 0.945312 4.160156 C 1.570312 2.855469 4.058594 1.695312 7.714844 0.859375 Z M 7.714844 0.859375 " fill-opacity="1" fill-rule="nonzero"/></g></g></g></g><g mask="url(#3b19d2b240)"><g transform="matrix(1, 0, 0, 1, 129, 180)"><g clip-path="url(#e5d3cf14a6)"><g clip-path="url(#77417afaf0)"><path fill="#000628" d="M 3.847656 1 C 4.074219 1.773438 4.3125 2.851562 4.390625 4.152344 C 3.359375 4.175781 2.382812 4.214844 1.457031 4.257812 C 1.4375 3.277344 1.339844 2.300781 1.125 1.386719 C 1.992188 1.238281 2.898438 1.109375 3.847656 1 Z M 3.847656 1 " fill-opacity="1" fill-rule="nonzero"/></g></g></g></g><g mask="url(#f0b24b5eeb)"><g transform="matrix(1, 0, 0, 1, 135, 180)"><g clip-path="url(#9efb23ab8d)"><g clip-path="url(#146e1ab39a)"><path fill="#000628" d="M 3.105469 0.589844 C 3.351562 1.441406 3.601562 2.652344 3.648438 4.109375 C 2.625 4.097656 1.640625 4.097656 0.699219 4.109375 C 0.699219 2.96875 0.59375 1.820312 0.328125 0.757812 C 1.230469 0.683594 2.15625 0.628906 3.105469 0.589844 Z M 3.105469 0.589844 " fill-opacity="1" fill-rule="nonzero"/></g></g></g></g><g mask="url(#f2db1cbd48)"><g transform="matrix(1, 0, 0, 1, 140, 180)"><g clip-path="url(#3eac421cc0)"><g clip-path="url(#699c4e7c8a)"><path fill="#000628" d="M 3.664062 0.550781 C 3.429688 1.730469 3.378906 2.992188 3.429688 4.230469 C 2.574219 4.199219 1.742188 4.167969 0.929688 4.148438 C 0.960938 2.921875 0.886719 1.679688 0.625 0.527344 C 0.902344 0.523438 1.179688 0.519531 1.460938 0.519531 C 2.203125 0.519531 2.941406 0.53125 3.664062 0.550781 Z M 3.664062 0.550781 " fill-opacity="1" fill-rule="nonzero"/></g></g></g></g><g mask="url(#ebcba0f701)"><g transform="matrix(1, 0, 0, 1, 145, 180)"><g clip-path="url(#3d72d12378)"><g clip-path="url(#72ee045a57)"><path fill="#000628" d="M 3.9375 0.875 C 3.691406 2.039062 3.625 3.285156 3.664062 4.511719 C 2.652344 4.441406 1.660156 4.382812 0.699219 4.335938 C 0.695312 2.84375 0.917969 1.585938 1.15625 0.65625 C 2.109375 0.714844 3.039062 0.789062 3.9375 0.875 Z M 3.9375 0.875 " fill-opacity="1" fill-rule="nonzero"/></g></g></g></g><g mask="url(#db4055bdc2)"><g transform="matrix(1, 0, 0, 1, 150, 180)"><g clip-path="url(#1c0e551018)"><g clip-path="url(#404e4ceb43)"><path fill="#000628" d="M 4.121094 1.628906 C 3.921875 2.695312 3.867188 3.824219 3.902344 4.9375 C 2.894531 4.84375 1.902344 4.757812 0.933594 4.675781 C 0.945312 3.261719 1.15625 2.0625 1.386719 1.167969 C 2.347656 1.304688 3.261719 1.457031 4.121094 1.628906 Z M 4.121094 1.628906 " fill-opacity="1" fill-rule="nonzero"/></g></g></g></g><g mask="url(#63558a60dd)"><g transform="matrix(1, 0, 0, 1, 156, 181)"><g clip-path="url(#655ce9e360)"><g clip-path="url(#a706f332cf)"><path fill="#000628" d="M 6.132812 4.808594 C 6.132812 4.832031 6.132812 4.851562 6.128906 4.875 C 4.074219 4.601562 2.089844 4.367188 0.175781 4.164062 C 0.183594 3.007812 0.324219 2 0.5 1.179688 C 3.992188 2.125 6.132812 3.40625 6.132812 4.808594 Z M 6.132812 4.808594 " fill-opacity="1" fill-rule="nonzero"/></g></g></g></g><path fill="#000628" d="M 159.828125 202.867188 C 159.828125 202.867188 139.0625 204.546875 118.617188 202.035156 C 148.644531 202.730469 159.828125 202.867188 159.828125 202.867188 Z M 159.828125 202.867188 " fill-opacity="1" fill-rule="nonzero"/><path fill="#000628" d="M 162.410156 200.949219 C 162.410156 200.949219 139.902344 202.628906 117.738281 200.117188 C 150.285156 200.8125 162.410156 200.949219 162.410156 200.949219 Z M 162.410156 200.949219 " fill-opacity="1" fill-rule="nonzero"/><path fill="#000628" d="M 161.023438 199.058594 C 161.023438 199.058594 139.652344 200.65625 118.613281 198.269531 C 149.511719 198.929688 161.023438 199.058594 161.023438 199.058594 Z M 161.023438 199.058594 " fill-opacity="1" fill-rule="nonzero"/><path fill="#000628" d="M 201.09375 159.585938 C 201.09375 159.585938 178.332031 158.050781 164.917969 159.585938 C 178.035156 157.175781 194.300781 158.484375 201.09375 159.585938 Z M 201.09375 159.585938 " fill-opacity="1" fill-rule="nonzero"/><g fill="#000628" fill-opacity="1"><g transform="translate(113.778733, 246.23846)"><g><path d="M 17.421875 -13.296875 C 17.421875 -12.023438 17.097656 -10.84375 16.453125 -9.75 C 15.804688 -8.664062 14.894531 -7.75 13.71875 -7 C 14.851562 -4.851562 15.9375 -2.957031 16.96875 -1.3125 L 16.828125 -0.703125 C 14.847656 -0.117188 12.9375 0.226562 11.09375 0.34375 L 10.609375 -0.109375 L 10.21875 -1.265625 C 9.820312 -2.398438 9.363281 -3.78125 8.84375 -5.40625 L 6.9375 -5.40625 L 6.46875 0 L 0.875 0 L 1.8125 -5.3125 L 3.109375 -18.109375 L 11.390625 -18.140625 C 13.265625 -18.140625 14.738281 -17.710938 15.8125 -16.859375 C 16.882812 -16.015625 17.421875 -14.828125 17.421875 -13.296875 Z M 11.421875 -12.375 C 11.421875 -13.007812 11.25 -13.472656 10.90625 -13.765625 C 10.5625 -14.066406 10.003906 -14.238281 9.234375 -14.28125 L 8.203125 -14.203125 L 7.5 -9.484375 L 9.546875 -9.375 C 10.222656 -9.65625 10.703125 -10.035156 10.984375 -10.515625 C 11.273438 -11.003906 11.421875 -11.625 11.421875 -12.375 Z M 11.421875 -12.375 "/></g></g></g><g fill="#000628" fill-opacity="1"><g transform="translate(132.816326, 246.23846)"><g><path d="M 8.140625 -13.828125 L 7.78125 -11.25 L 10.53125 -11.25 L 13.46875 -11.34375 L 13.71875 -10.953125 L 12.875 -6.859375 L 9.65625 -6.9375 L 7.140625 -6.9375 L 6.96875 -5.875 L 6.828125 -4.28125 L 9.515625 -4.28125 L 14.203125 -4.453125 L 14.453125 -4.0625 L 13.609375 0 L 0.875 0 L 1.796875 -5.3125 L 3.109375 -18.109375 L 16.078125 -18.109375 L 16.328125 -17.71875 L 15.453125 -13.65625 L 11.03125 -13.828125 Z M 8.140625 -13.828125 "/></g></g></g><g fill="#000628" fill-opacity="1"><g transform="translate(149.334262, 246.23846)"><g><path d="M 15.6875 -17.71875 L 14.890625 -13.65625 L 11.234375 -13.828125 L 10.859375 -13.828125 L 9.75 -5.875 L 9.234375 0 L 3.671875 0 L 4.625 -5.3125 L 5.515625 -13.828125 L 5.15625 -13.828125 L 1.40625 -13.65625 L 1.125 -14.0625 L 1.9375 -18.109375 L 15.421875 -18.109375 Z M 15.6875 -17.71875 "/></g></g></g><g fill="#000628" fill-opacity="1"><g transform="translate(165.236275, 246.23846)"><g><path d="M 17.421875 -13.296875 C 17.421875 -12.023438 17.097656 -10.84375 16.453125 -9.75 C 15.804688 -8.664062 14.894531 -7.75 13.71875 -7 C 14.851562 -4.851562 15.9375 -2.957031 16.96875 -1.3125 L 16.828125 -0.703125 C 14.847656 -0.117188 12.9375 0.226562 11.09375 0.34375 L 10.609375 -0.109375 L 10.21875 -1.265625 C 9.820312 -2.398438 9.363281 -3.78125 8.84375 -5.40625 L 6.9375 -5.40625 L 6.46875 0 L 0.875 0 L 1.8125 -5.3125 L 3.109375 -18.109375 L 11.390625 -18.140625 C 13.265625 -18.140625 14.738281 -17.710938 15.8125 -16.859375 C 16.882812 -16.015625 17.421875 -14.828125 17.421875 -13.296875 Z M 11.421875 -12.375 C 11.421875 -13.007812 11.25 -13.472656 10.90625 -13.765625 C 10.5625 -14.066406 10.003906 -14.238281 9.234375 -14.28125 L 8.203125 -14.203125 L 7.5 -9.484375 L 9.546875 -9.375 C 10.222656 -9.65625 10.703125 -10.035156 10.984375 -10.515625 C 11.273438 -11.003906 11.421875 -11.625 11.421875 -12.375 Z M 11.421875 -12.375 "/></g></g></g><g fill="#000628" fill-opacity="1"><g transform="translate(184.27387, 246.23846)"><g><path d="M 10.640625 -18.453125 C 13.085938 -18.453125 14.976562 -17.789062 16.3125 -16.46875 C 17.644531 -15.15625 18.3125 -13.15625 18.3125 -10.46875 C 18.3125 -8.382812 17.921875 -6.523438 17.140625 -4.890625 C 16.367188 -3.253906 15.238281 -1.972656 13.75 -1.046875 C 12.257812 -0.117188 10.46875 0.34375 8.375 0.34375 C 5.925781 0.34375 4.03125 -0.320312 2.6875 -1.65625 C 1.34375 -3 0.671875 -5.023438 0.671875 -7.734375 C 0.671875 -9.816406 1.054688 -11.664062 1.828125 -13.28125 C 2.609375 -14.894531 3.75 -16.160156 5.25 -17.078125 C 6.75 -17.992188 8.546875 -18.453125 10.640625 -18.453125 Z M 10 -14 C 9.25 -14 8.625 -13.828125 8.125 -13.484375 C 7.632812 -13.148438 7.242188 -12.519531 6.953125 -11.59375 C 6.671875 -10.675781 6.53125 -9.359375 6.53125 -7.640625 C 6.53125 -6.628906 6.59375 -5.851562 6.71875 -5.3125 C 6.851562 -4.78125 7.09375 -4.390625 7.4375 -4.140625 C 7.78125 -3.898438 8.285156 -3.78125 8.953125 -3.78125 C 9.679688 -3.78125 10.296875 -3.945312 10.796875 -4.28125 C 11.304688 -4.613281 11.707031 -5.242188 12 -6.171875 C 12.289062 -7.097656 12.4375 -8.421875 12.4375 -10.140625 C 12.4375 -11.128906 12.367188 -11.894531 12.234375 -12.4375 C 12.109375 -12.988281 11.867188 -13.382812 11.515625 -13.625 C 11.171875 -13.875 10.664062 -14 10 -14 Z M 10 -14 "/></g></g></g><g fill="#000628" fill-opacity="1"><g transform="translate(204.09535, 246.23846)"><g/></g></g><g fill="#000628" fill-opacity="1"><g transform="translate(208.7989, 246.23846)"><g><path d="M 11.09375 -18.421875 C 11.925781 -18.421875 12.753906 -18.351562 13.578125 -18.21875 C 14.398438 -18.09375 15.140625 -17.910156 15.796875 -17.671875 L 14.3125 -13.21875 L 13.921875 -13.015625 C 13.472656 -13.273438 12.9375 -13.484375 12.3125 -13.640625 C 11.695312 -13.804688 11.117188 -13.890625 10.578125 -13.890625 C 9.160156 -13.890625 8.15625 -13.441406 7.5625 -12.546875 C 6.976562 -11.648438 6.6875 -10.222656 6.6875 -8.265625 C 6.6875 -6.898438 6.929688 -5.898438 7.421875 -5.265625 C 7.921875 -4.628906 8.695312 -4.3125 9.75 -4.3125 C 10.269531 -4.3125 10.859375 -4.363281 11.515625 -4.46875 C 12.179688 -4.570312 12.773438 -4.71875 13.296875 -4.90625 L 13.6875 -4.640625 L 12.71875 -0.21875 C 12.0625 -0.0195312 11.445312 0.113281 10.875 0.1875 C 10.3125 0.269531 9.691406 0.3125 9.015625 0.3125 C 6.328125 0.3125 4.269531 -0.347656 2.84375 -1.671875 C 1.414062 -3.003906 0.703125 -4.898438 0.703125 -7.359375 C 0.703125 -10.835938 1.601562 -13.550781 3.40625 -15.5 C 5.207031 -17.445312 7.769531 -18.421875 11.09375 -18.421875 Z M 11.09375 -18.421875 "/></g></g></g><g fill="#000628" fill-opacity="1"><g transform="translate(224.644921, 246.23846)"><g><path d="M 16.4375 0 L 10.78125 0 L 10.671875 -3 L 10.671875 -3.109375 L 7.890625 -3.15625 L 5.578125 -3.046875 L 4.703125 0 L -0.75 0 L 6.96875 -18.109375 L 13.71875 -18.109375 Z M 10.296875 -7.171875 L 9.796875 -13.125 L 9.46875 -13.125 L 7.140625 -7.171875 L 8.734375 -7.140625 Z M 10.296875 -7.171875 "/></g></g></g><g fill="#000628" fill-opacity="1"><g transform="translate(243.570518, 246.23846)"><g><path d="M 17.421875 -13.296875 C 17.421875 -12.023438 17.097656 -10.84375 16.453125 -9.75 C 15.804688 -8.664062 14.894531 -7.75 13.71875 -7 C 14.851562 -4.851562 15.9375 -2.957031 16.96875 -1.3125 L 16.828125 -0.703125 C 14.847656 -0.117188 12.9375 0.226562 11.09375 0.34375 L 10.609375 -0.109375 L 10.21875 -1.265625 C 9.820312 -2.398438 9.363281 -3.78125 8.84375 -5.40625 L 6.9375 -5.40625 L 6.46875 0 L 0.875 0 L 1.8125 -5.3125 L 3.109375 -18.109375 L 11.390625 -18.140625 C 13.265625 -18.140625 14.738281 -17.710938 15.8125 -16.859375 C 16.882812 -16.015625 17.421875 -14.828125 17.421875 -13.296875 Z M 11.421875 -12.375 C 11.421875 -13.007812 11.25 -13.472656 10.90625 -13.765625 C 10.5625 -14.066406 10.003906 -14.238281 9.234375 -14.28125 L 8.203125 -14.203125 L 7.5 -9.484375 L 9.546875 -9.375 C 10.222656 -9.65625 10.703125 -10.035156 10.984375 -10.515625 C 11.273438 -11.003906 11.421875 -11.625 11.421875 -12.375 Z M 11.421875 -12.375 "/></g></g></g><g fill="#000000" fill-opacity="1"><g transform="translate(151.410103, 266.355982)"><g><path d="M 1.390625 -2.09375 L 2.453125 -4.96875 C 2.742188 -5.78125 3.175781 -6.296875 3.75 -6.515625 C 4.332031 -6.742188 4.984375 -6.726562 5.703125 -6.46875 C 6.421875 -6.207031 6.941406 -5.8125 7.265625 -5.28125 C 7.597656 -4.757812 7.65625 -4.207031 7.4375 -3.625 C 7.34375 -3.363281 7.226562 -3.203125 7.09375 -3.140625 C 6.957031 -3.085938 6.769531 -3.101562 6.53125 -3.1875 C 6.09375 -3.351562 5.921875 -3.582031 6.015625 -3.875 C 6.035156 -3.957031 6.050781 -4.03125 6.0625 -4.09375 C 6.070312 -4.164062 6.078125 -4.265625 6.078125 -4.390625 C 6.078125 -4.515625 6.054688 -4.625 6.015625 -4.71875 C 5.972656 -4.820312 5.890625 -4.921875 5.765625 -5.015625 C 5.648438 -5.109375 5.503906 -5.191406 5.328125 -5.265625 C 4.597656 -5.535156 4.085938 -5.273438 3.796875 -4.484375 L 2.734375 -1.609375 C 2.441406 -0.816406 2.660156 -0.285156 3.390625 -0.015625 C 3.617188 0.0664062 3.816406 0.101562 3.984375 0.09375 C 4.160156 0.0820312 4.300781 0.0234375 4.40625 -0.078125 C 4.519531 -0.191406 4.609375 -0.296875 4.671875 -0.390625 C 4.734375 -0.484375 4.796875 -0.597656 4.859375 -0.734375 C 4.984375 -1.003906 5.253906 -1.0625 5.671875 -0.90625 C 5.921875 -0.820312 6.078125 -0.710938 6.140625 -0.578125 C 6.210938 -0.453125 6.207031 -0.265625 6.125 -0.015625 C 5.894531 0.597656 5.484375 1.007812 4.890625 1.21875 C 4.296875 1.425781 3.632812 1.398438 2.90625 1.140625 C 2.195312 0.878906 1.691406 0.476562 1.390625 -0.0625 C 1.097656 -0.601562 1.097656 -1.28125 1.390625 -2.09375 Z M 1.390625 -2.09375 "/></g></g></g><g fill="#000000" fill-opacity="1"><g transform="translate(158.911941, 269.028868)"><g><path d="M 1.203125 -2.203125 L 2.015625 -5.15625 C 2.242188 -6 2.632812 -6.554688 3.1875 -6.828125 C 3.75 -7.109375 4.40625 -7.144531 5.15625 -6.9375 C 5.914062 -6.726562 6.46875 -6.363281 6.8125 -5.84375 C 7.15625 -5.320312 7.210938 -4.640625 6.984375 -3.796875 L 6.171875 -0.84375 C 5.941406 0 5.546875 0.550781 4.984375 0.8125 C 4.429688 1.070312 3.773438 1.097656 3.015625 0.890625 C 2.265625 0.679688 1.71875 0.328125 1.375 -0.171875 C 1.03125 -0.679688 0.972656 -1.359375 1.203125 -2.203125 Z M 2.5625 -1.828125 C 2.34375 -1.015625 2.601562 -0.507812 3.34375 -0.3125 C 4.082031 -0.101562 4.5625 -0.40625 4.78125 -1.21875 L 5.59375 -4.171875 C 5.820312 -4.992188 5.566406 -5.507812 4.828125 -5.71875 C 4.085938 -5.914062 3.601562 -5.601562 3.375 -4.78125 Z M 2.5625 -1.828125 "/></g></g></g><g fill="#000000" fill-opacity="1"><g transform="translate(166.837788, 271.101447)"><g><path d="M 0.71875 -0.3125 L 2.046875 -7.34375 C 2.078125 -7.488281 2.171875 -7.582031 2.328125 -7.625 C 2.484375 -7.675781 2.65625 -7.679688 2.84375 -7.640625 C 3.039062 -7.609375 3.203125 -7.539062 3.328125 -7.4375 C 3.453125 -7.34375 3.5 -7.222656 3.46875 -7.078125 L 2.296875 -0.84375 L 4.9375 -0.34375 C 5.050781 -0.320312 5.132812 -0.238281 5.1875 -0.09375 C 5.238281 0.0390625 5.25 0.1875 5.21875 0.34375 C 5.1875 0.507812 5.117188 0.644531 5.015625 0.75 C 4.921875 0.863281 4.816406 0.910156 4.703125 0.890625 L 1.265625 0.234375 C 1.097656 0.203125 0.957031 0.132812 0.84375 0.03125 C 0.738281 -0.0625 0.695312 -0.175781 0.71875 -0.3125 Z M 0.71875 -0.3125 "/></g></g></g><g fill="#000000" fill-opacity="1"><g transform="translate(173.933849, 272.370922)"><g><path d="M 0.703125 -0.375 L 1.5 -7.46875 C 1.519531 -7.625 1.601562 -7.726562 1.75 -7.78125 C 1.894531 -7.84375 2.0625 -7.863281 2.25 -7.84375 C 2.445312 -7.820312 2.613281 -7.765625 2.75 -7.671875 C 2.882812 -7.585938 2.941406 -7.46875 2.921875 -7.3125 L 2.21875 -1.015625 L 4.890625 -0.71875 C 5.015625 -0.707031 5.109375 -0.632812 5.171875 -0.5 C 5.234375 -0.363281 5.253906 -0.210938 5.234375 -0.046875 C 5.222656 0.117188 5.171875 0.257812 5.078125 0.375 C 4.984375 0.488281 4.875 0.539062 4.75 0.53125 L 1.265625 0.140625 C 1.109375 0.117188 0.972656 0.0664062 0.859375 -0.015625 C 0.742188 -0.109375 0.691406 -0.226562 0.703125 -0.375 Z M 0.703125 -0.375 "/></g></g></g><g fill="#000000" fill-opacity="1"><g transform="translate(181.113641, 273.110685)"><g><path d="M 0.671875 -0.4375 L 0.90625 -7.578125 C 0.914062 -7.710938 0.984375 -7.816406 1.109375 -7.890625 C 1.234375 -7.972656 1.378906 -8.007812 1.546875 -8 L 5.46875 -7.875 C 5.613281 -7.863281 5.722656 -7.796875 5.796875 -7.671875 C 5.867188 -7.546875 5.90625 -7.398438 5.90625 -7.234375 C 5.894531 -7.054688 5.847656 -6.90625 5.765625 -6.78125 C 5.679688 -6.65625 5.570312 -6.597656 5.4375 -6.609375 L 2.328125 -6.71875 L 2.25 -4.53125 L 3.921875 -4.46875 C 4.054688 -4.457031 4.160156 -4.394531 4.234375 -4.28125 C 4.316406 -4.164062 4.359375 -4.03125 4.359375 -3.875 C 4.347656 -3.738281 4.300781 -3.613281 4.21875 -3.5 C 4.132812 -3.382812 4.019531 -3.332031 3.875 -3.34375 L 2.203125 -3.40625 L 2.140625 -1.1875 L 5.25 -1.078125 C 5.382812 -1.066406 5.488281 -1 5.5625 -0.875 C 5.644531 -0.75 5.679688 -0.597656 5.671875 -0.421875 C 5.671875 -0.265625 5.628906 -0.125 5.546875 0 C 5.460938 0.125 5.347656 0.179688 5.203125 0.171875 L 1.28125 0.046875 C 1.113281 0.0351562 0.96875 -0.0078125 0.84375 -0.09375 C 0.726562 -0.175781 0.671875 -0.289062 0.671875 -0.4375 Z M 0.671875 -0.4375 "/></g></g></g><g fill="#000000" fill-opacity="1"><g transform="translate(188.847343, 273.29665)"><g><path d="M 0.453125 -2.484375 L 0.3125 -5.546875 C 0.269531 -6.398438 0.472656 -7.039062 0.921875 -7.46875 C 1.367188 -7.90625 1.972656 -8.144531 2.734375 -8.1875 C 3.503906 -8.21875 4.140625 -8.050781 4.640625 -7.6875 C 5.148438 -7.332031 5.421875 -6.847656 5.453125 -6.234375 C 5.460938 -5.960938 5.414062 -5.773438 5.3125 -5.671875 C 5.207031 -5.566406 5.03125 -5.507812 4.78125 -5.5 C 4.3125 -5.46875 4.0625 -5.601562 4.03125 -5.90625 C 4.019531 -6 4.003906 -6.078125 3.984375 -6.140625 C 3.972656 -6.210938 3.941406 -6.304688 3.890625 -6.421875 C 3.835938 -6.535156 3.769531 -6.628906 3.6875 -6.703125 C 3.613281 -6.773438 3.503906 -6.832031 3.359375 -6.875 C 3.210938 -6.914062 3.039062 -6.929688 2.84375 -6.921875 C 2.070312 -6.878906 1.707031 -6.441406 1.75 -5.609375 L 1.890625 -2.546875 C 1.929688 -1.703125 2.34375 -1.300781 3.125 -1.34375 C 3.363281 -1.351562 3.5625 -1.394531 3.71875 -1.46875 C 3.875 -1.550781 3.976562 -1.660156 4.03125 -1.796875 C 4.09375 -1.941406 4.132812 -2.066406 4.15625 -2.171875 C 4.175781 -2.285156 4.191406 -2.414062 4.203125 -2.5625 C 4.203125 -2.863281 4.425781 -3.03125 4.875 -3.0625 C 5.132812 -3.070312 5.320312 -3.03125 5.4375 -2.9375 C 5.550781 -2.84375 5.613281 -2.660156 5.625 -2.390625 C 5.664062 -1.734375 5.453125 -1.191406 4.984375 -0.765625 C 4.515625 -0.347656 3.890625 -0.125 3.109375 -0.09375 C 2.359375 -0.0507812 1.738281 -0.222656 1.25 -0.609375 C 0.757812 -0.992188 0.492188 -1.617188 0.453125 -2.484375 Z M 0.453125 -2.484375 "/></g></g></g><g fill="#000000" fill-opacity="1"><g transform="translate(196.788737, 272.829347)"><g><path d="M -0.84375 -7.359375 C -0.863281 -7.523438 -0.84375 -7.675781 -0.78125 -7.8125 C -0.71875 -7.957031 -0.613281 -8.039062 -0.46875 -8.0625 L 4.140625 -8.671875 C 4.285156 -8.679688 4.40625 -8.625 4.5 -8.5 C 4.59375 -8.382812 4.648438 -8.242188 4.671875 -8.078125 C 4.703125 -7.898438 4.679688 -7.738281 4.609375 -7.59375 C 4.546875 -7.457031 4.445312 -7.382812 4.3125 -7.375 L 2.71875 -7.15625 L 3.53125 -0.921875 C 3.550781 -0.773438 3.492188 -0.65625 3.359375 -0.5625 C 3.234375 -0.46875 3.078125 -0.40625 2.890625 -0.375 C 2.703125 -0.351562 2.53125 -0.367188 2.375 -0.421875 C 2.226562 -0.484375 2.144531 -0.585938 2.125 -0.734375 L 1.3125 -6.96875 L -0.296875 -6.765625 C -0.429688 -6.742188 -0.546875 -6.789062 -0.640625 -6.90625 C -0.742188 -7.019531 -0.8125 -7.171875 -0.84375 -7.359375 Z M -0.84375 -7.359375 "/></g></g></g><g fill="#000000" fill-opacity="1"><g transform="translate(204.364239, 271.728044)"><g><path d="M 0.546875 -0.5625 L -0.828125 -7.578125 C -0.859375 -7.734375 -0.804688 -7.859375 -0.671875 -7.953125 C -0.546875 -8.046875 -0.382812 -8.113281 -0.1875 -8.15625 C 0 -8.195312 0.164062 -8.195312 0.3125 -8.15625 C 0.457031 -8.113281 0.546875 -8.015625 0.578125 -7.859375 L 1.953125 -0.84375 C 1.984375 -0.707031 1.9375 -0.582031 1.8125 -0.46875 C 1.6875 -0.363281 1.53125 -0.296875 1.34375 -0.265625 C 1.15625 -0.222656 0.984375 -0.226562 0.828125 -0.28125 C 0.671875 -0.332031 0.578125 -0.425781 0.546875 -0.5625 Z M 0.546875 -0.5625 "/></g></g></g><g fill="#000000" fill-opacity="1"><g transform="translate(208.887332, 270.835183)"><g><path d="M -0.0625 -2.53125 L -0.859375 -5.484375 C -1.085938 -6.328125 -1.03125 -7.003906 -0.6875 -7.515625 C -0.34375 -8.023438 0.207031 -8.378906 0.96875 -8.578125 C 1.726562 -8.785156 2.382812 -8.753906 2.9375 -8.484375 C 3.5 -8.210938 3.894531 -7.65625 4.125 -6.8125 L 4.921875 -3.859375 C 5.140625 -3.015625 5.070312 -2.332031 4.71875 -1.8125 C 4.375 -1.300781 3.820312 -0.941406 3.0625 -0.734375 C 2.300781 -0.535156 1.644531 -0.570312 1.09375 -0.84375 C 0.539062 -1.125 0.15625 -1.6875 -0.0625 -2.53125 Z M 1.3125 -2.890625 C 1.519531 -2.066406 1.988281 -1.753906 2.71875 -1.953125 C 3.46875 -2.148438 3.738281 -2.660156 3.53125 -3.484375 L 2.734375 -6.4375 C 2.515625 -7.25 2.03125 -7.554688 1.28125 -7.359375 C 0.550781 -7.160156 0.296875 -6.65625 0.515625 -5.84375 Z M 1.3125 -2.890625 "/></g></g></g><g fill="#000000" fill-opacity="1"><g transform="translate(216.805697, 268.642131)"><g><path d="M 0.453125 -0.640625 L -1.984375 -7.359375 C -2.035156 -7.492188 -2.003906 -7.625 -1.890625 -7.75 C -1.785156 -7.875 -1.640625 -7.96875 -1.453125 -8.03125 C -1.210938 -8.125 -1.003906 -8.144531 -0.828125 -8.09375 C -0.660156 -8.050781 -0.445312 -7.910156 -0.1875 -7.671875 L 3.203125 -4.546875 L 1.6875 -8.703125 C 1.632812 -8.847656 1.660156 -8.976562 1.765625 -9.09375 C 1.878906 -9.207031 2.03125 -9.296875 2.21875 -9.359375 C 2.40625 -9.429688 2.578125 -9.457031 2.734375 -9.4375 C 2.890625 -9.414062 2.992188 -9.332031 3.046875 -9.1875 L 5.484375 -2.46875 C 5.535156 -2.332031 5.503906 -2.203125 5.390625 -2.078125 C 5.285156 -1.960938 5.144531 -1.867188 4.96875 -1.796875 C 4.601562 -1.671875 4.289062 -1.71875 4.03125 -1.9375 L 0.296875 -5.296875 L 1.8125 -1.140625 C 1.863281 -1.003906 1.832031 -0.875 1.71875 -0.75 C 1.613281 -0.625 1.472656 -0.53125 1.296875 -0.46875 C 1.109375 -0.40625 0.929688 -0.382812 0.765625 -0.40625 C 0.609375 -0.425781 0.503906 -0.503906 0.453125 -0.640625 Z M 0.453125 -0.640625 "/></g></g></g></svg>