<svg xmlns="http://www.w3.org/2000/svg" xmlns:xlink="http://www.w3.org/1999/xlink" width="500" zoomAndPan="magnify" viewBox="0 0 375 374.999991" height="500" preserveAspectRatio="xMidYMid meet" version="1.0"><defs><filter x="0%" y="0%" width="100%" height="100%" id="1f02411186"><feColorMatrix values="0 0 0 0 1 0 0 0 0 1 0 0 0 0 1 0 0 0 1 0" color-interpolation-filters="sRGB"/></filter><g/><clipPath id="1a5ddf6c76"><path d="M 14 0 L 365.269531 0 L 365.269531 374.574219 L 14 374.574219 Z M 14 0 " clip-rule="nonzero"/></clipPath><clipPath id="d8e517dbbb"><path d="M 9.742188 243 L 361 243 L 361 304 L 9.742188 304 Z M 9.742188 243 " clip-rule="nonzero"/></clipPath><mask id="1638d2f471"><g filter="url(#1f02411186)"><rect x="-37.5" width="450" fill="#000000" y="-37.499999" height="449.999989" fill-opacity="0.3"/></g></mask><clipPath id="5a720d0878"><path d="M 0.558594 0.601562 L 7.761719 0.601562 L 7.761719 15 L 0.558594 15 Z M 0.558594 0.601562 " clip-rule="nonzero"/></clipPath><clipPath id="091b88b7e1"><rect x="0" width="8" y="0" height="16"/></clipPath><mask id="371c45f185"><g filter="url(#1f02411186)"><rect x="-37.5" width="450" fill="#000000" y="-37.499999" height="449.999989" fill-opacity="0.3"/></g></mask><clipPath id="19e2f067bd"><path d="M 0.441406 1 L 18.441406 1 L 18.441406 44.078125 L 0.441406 44.078125 Z M 0.441406 1 " clip-rule="nonzero"/></clipPath><clipPath id="d0b8e2da11"><rect x="0" width="19" y="0" height="45"/></clipPath><mask id="8b993dbea8"><g filter="url(#1f02411186)"><rect x="-37.5" width="450" fill="#000000" y="-37.499999" height="449.999989" fill-opacity="0.2"/></g></mask><clipPath id="71918453c7"><path d="M 0.640625 0.601562 L 13 0.601562 L 13 6.839844 L 0.640625 6.839844 Z M 0.640625 0.601562 " clip-rule="nonzero"/></clipPath><clipPath id="958b902e6a"><rect x="0" width="14" y="0" height="7"/></clipPath><mask id="2f373498ce"><g filter="url(#1f02411186)"><rect x="-37.5" width="450" fill="#000000" y="-37.499999" height="449.999989" fill-opacity="0.2"/></g></mask><clipPath id="10bec1e030"><path d="M 0 0.160156 L 6 0.160156 L 6 6.398438 L 0 6.398438 Z M 0 0.160156 " clip-rule="nonzero"/></clipPath><clipPath id="f5e6b13a40"><rect x="0" width="7" y="0" height="7"/></clipPath><mask id="e8cf83ae52"><g filter="url(#1f02411186)"><rect x="-37.5" width="450" fill="#000000" y="-37.499999" height="449.999989" fill-opacity="0.2"/></g></mask><clipPath id="723678802c"><path d="M 1 0.679688 L 6.878906 0.679688 L 6.878906 7 L 1 7 Z M 1 0.679688 " clip-rule="nonzero"/></clipPath><clipPath id="e0754fff65"><rect x="0" width="7" y="0" height="8"/></clipPath><mask id="d369653390"><g filter="url(#1f02411186)"><rect x="-37.5" width="450" fill="#000000" y="-37.499999" height="449.999989" fill-opacity="0.2"/></g></mask><clipPath id="5514e9e8af"><path d="M 1 0.441406 L 6.519531 0.441406 L 6.519531 7 L 1 7 Z M 1 0.441406 " clip-rule="nonzero"/></clipPath><clipPath id="00b764b569"><rect x="0" width="7" y="0" height="8"/></clipPath><mask id="12d80dcae7"><g filter="url(#1f02411186)"><rect x="-37.5" width="450" fill="#000000" y="-37.499999" height="449.999989" fill-opacity="0.2"/></g></mask><clipPath id="456a5675dd"><path d="M 0.398438 0.679688 L 6.398438 0.679688 L 6.398438 7.640625 L 0.398438 7.640625 Z M 0.398438 0.679688 " clip-rule="nonzero"/></clipPath><clipPath id="f407f94c5e"><rect x="0" width="7" y="0" height="8"/></clipPath><mask id="1e6bee0ec0"><g filter="url(#1f02411186)"><rect x="-37.5" width="450" fill="#000000" y="-37.499999" height="449.999989" fill-opacity="0.2"/></g></mask><clipPath id="6b0d930af0"><path d="M 0.28125 0.398438 L 6 0.398438 L 6 7.601562 L 0.28125 7.601562 Z M 0.28125 0.398438 " clip-rule="nonzero"/></clipPath><clipPath id="86e7b5f24f"><rect x="0" width="7" y="0" height="8"/></clipPath><mask id="0366b3c6ca"><g filter="url(#1f02411186)"><rect x="-37.5" width="450" fill="#000000" y="-37.499999" height="449.999989" fill-opacity="0.2"/></g></mask><clipPath id="780fad24e3"><path d="M 0.160156 0.078125 L 10.71875 0.078125 L 10.71875 6.800781 L 0.160156 6.800781 Z M 0.160156 0.078125 " clip-rule="nonzero"/></clipPath><clipPath id="d4a4b1c204"><rect x="0" width="11" y="0" height="7"/></clipPath></defs><g clip-path="url(#1a5ddf6c76)"><path fill="#fffaef" d="M 190.03125 374.472656 C 180.695312 374.472656 171.636719 372.550781 163.105469 368.757812 L 82.226562 332.800781 C 62.121094 323.863281 47.816406 305.601562 43.964844 283.957031 L 15.808594 125.757812 C 13.222656 111.234375 15.628906 96.070312 22.578125 83.054688 C 29.527344 70.039062 40.800781 59.597656 54.316406 53.652344 L 163.351562 5.703125 C 171.8125 1.984375 180.785156 0.0976562 190.03125 0.0976562 C 199.277344 0.0976562 208.25 1.984375 216.710938 5.703125 L 325.746094 53.652344 C 339.261719 59.59375 350.535156 70.035156 357.484375 83.050781 C 364.433594 96.066406 366.839844 111.230469 364.253906 125.753906 L 336.09375 283.953125 C 332.242188 305.597656 317.9375 323.855469 297.828125 332.796875 L 216.949219 368.757812 C 208.421875 372.546875 199.363281 374.472656 190.027344 374.472656 Z M 190.03125 374.472656 " fill-opacity="1" fill-rule="nonzero"/></g><path fill="#000826" d="M 190.03125 366.730469 C 181.789062 366.730469 173.789062 365.035156 166.261719 361.683594 L 85.382812 325.726562 C 67.628906 317.835938 55 301.710938 51.597656 282.601562 L 23.441406 124.402344 C 21.15625 111.578125 23.285156 98.1875 29.421875 86.695312 C 35.558594 75.207031 45.511719 65.988281 57.445312 60.738281 L 166.476562 12.789062 C 173.945312 9.503906 181.871094 7.839844 190.035156 7.839844 C 198.199219 7.839844 206.121094 9.503906 213.59375 12.789062 L 322.625 60.738281 C 334.558594 65.984375 344.511719 75.203125 350.648438 86.695312 C 356.785156 98.183594 358.910156 111.574219 356.628906 124.398438 L 328.46875 282.597656 C 325.066406 301.707031 312.4375 317.828125 294.683594 325.722656 L 213.804688 361.679688 C 206.273438 365.027344 198.277344 366.730469 190.035156 366.730469 Z M 190.03125 366.730469 " fill-opacity="1" fill-rule="nonzero"/><path fill="#fffaef" d="M 171.472656 24.128906 L 62.441406 72.078125 C 43 80.625 31.933594 101.34375 35.652344 122.234375 L 63.8125 280.433594 C 66.488281 295.46875 76.460938 308.195312 90.429688 314.40625 L 171.308594 350.367188 C 183.230469 355.667969 196.84375 355.667969 208.765625 350.367188 L 289.644531 314.40625 C 303.613281 308.195312 313.585938 295.46875 316.261719 280.433594 L 344.421875 122.234375 C 348.140625 101.34375 337.074219 80.625 317.636719 72.078125 L 208.601562 24.128906 C 196.777344 18.929688 183.308594 18.929688 171.484375 24.128906 Z M 171.472656 24.128906 " fill-opacity="1" fill-rule="nonzero"/><path fill="#f8a400" d="M 295.796875 137.769531 C 295.796875 139.496094 295.753906 141.226562 295.671875 142.953125 C 295.585938 144.679688 295.457031 146.402344 295.289062 148.125 C 295.117188 149.84375 294.90625 151.558594 294.652344 153.269531 C 294.398438 154.980469 294.101562 156.683594 293.765625 158.378906 C 293.425781 160.074219 293.046875 161.761719 292.628906 163.4375 C 292.207031 165.113281 291.746094 166.78125 291.242188 168.433594 C 290.742188 170.089844 290.199219 171.730469 289.613281 173.359375 C 289.03125 174.984375 288.410156 176.597656 287.746094 178.195312 C 287.085938 179.792969 286.382812 181.375 285.644531 182.9375 C 284.902344 184.5 284.125 186.042969 283.308594 187.566406 C 282.492188 189.09375 281.640625 190.597656 280.75 192.078125 C 279.859375 193.5625 278.933594 195.023438 277.972656 196.460938 C 277.011719 197.898438 276.015625 199.3125 274.984375 200.699219 C 273.953125 202.089844 272.886719 203.449219 271.789062 204.789062 C 270.691406 206.125 269.5625 207.433594 268.398438 208.714844 C 267.238281 209.996094 266.042969 211.246094 264.820312 212.46875 C 263.59375 213.691406 262.34375 214.882812 261.058594 216.042969 C 259.777344 217.207031 258.46875 218.335938 257.128906 219.429688 C 255.789062 220.527344 254.425781 221.589844 253.035156 222.621094 C 251.644531 223.652344 250.230469 224.644531 248.792969 225.605469 C 247.351562 226.566406 245.890625 227.492188 244.40625 228.378906 C 242.921875 229.269531 241.414062 230.121094 239.890625 230.9375 C 238.363281 231.75 236.816406 232.527344 235.253906 233.269531 C 233.6875 234.007812 232.105469 234.707031 230.507812 235.367188 C 228.90625 236.03125 227.292969 236.652344 225.664062 237.234375 C 224.035156 237.816406 222.390625 238.359375 220.734375 238.863281 C 219.078125 239.363281 217.410156 239.824219 215.730469 240.246094 C 214.050781 240.664062 212.363281 241.042969 210.664062 241.378906 C 208.96875 241.71875 207.261719 242.011719 205.550781 242.265625 C 203.839844 242.519531 202.121094 242.734375 200.398438 242.902344 C 198.675781 243.070312 196.949219 243.199219 195.222656 243.285156 C 193.492188 243.367188 191.761719 243.410156 190.03125 243.410156 C 188.300781 243.410156 186.570312 243.367188 184.84375 243.285156 C 183.113281 243.199219 181.386719 243.070312 179.664062 242.902344 C 177.941406 242.734375 176.226562 242.519531 174.511719 242.265625 C 172.800781 242.011719 171.097656 241.71875 169.398438 241.378906 C 167.699219 241.042969 166.011719 240.664062 164.332031 240.246094 C 162.652344 239.824219 160.984375 239.363281 159.328125 238.863281 C 157.671875 238.359375 156.03125 237.816406 154.402344 237.234375 C 152.769531 236.652344 151.15625 236.03125 149.558594 235.367188 C 147.957031 234.707031 146.375 234.007812 144.8125 233.269531 C 143.246094 232.527344 141.699219 231.75 140.175781 230.9375 C 138.648438 230.121094 137.140625 229.269531 135.65625 228.378906 C 134.171875 227.492188 132.710938 226.566406 131.273438 225.605469 C 129.832031 224.644531 128.417969 223.652344 127.027344 222.621094 C 125.636719 221.589844 124.273438 220.527344 122.933594 219.429688 C 121.597656 218.335938 120.285156 217.207031 119.003906 216.042969 C 117.722656 214.882812 116.46875 213.691406 115.246094 212.46875 C 114.019531 211.246094 112.828125 209.996094 111.664062 208.714844 C 110.503906 207.433594 109.371094 206.125 108.273438 204.789062 C 107.175781 203.449219 106.113281 202.089844 105.082031 200.699219 C 104.050781 199.3125 103.054688 197.898438 102.089844 196.460938 C 101.128906 195.023438 100.203125 193.5625 99.3125 192.078125 C 98.425781 190.597656 97.570312 189.09375 96.753906 187.566406 C 95.9375 186.042969 95.160156 184.5 94.421875 182.9375 C 93.679688 181.375 92.980469 179.792969 92.316406 178.195312 C 91.65625 176.597656 91.03125 174.984375 90.449219 173.359375 C 89.867188 171.730469 89.324219 170.089844 88.820312 168.433594 C 88.316406 166.78125 87.855469 165.113281 87.4375 163.4375 C 87.015625 161.761719 86.636719 160.074219 86.296875 158.378906 C 85.960938 156.683594 85.664062 154.980469 85.410156 153.269531 C 85.15625 151.558594 84.945312 149.84375 84.777344 148.125 C 84.605469 146.402344 84.480469 144.679688 84.394531 142.953125 C 84.308594 141.226562 84.265625 139.496094 84.265625 137.769531 C 84.265625 136.039062 84.308594 134.3125 84.394531 132.585938 C 84.480469 130.859375 84.605469 129.132812 84.777344 127.414062 C 84.945312 125.691406 85.15625 123.976562 85.410156 122.269531 C 85.664062 120.558594 85.960938 118.855469 86.296875 117.160156 C 86.636719 115.464844 87.015625 113.777344 87.4375 112.101562 C 87.855469 110.421875 88.316406 108.757812 88.820312 107.101562 C 89.324219 105.449219 89.867188 103.808594 90.449219 102.179688 C 91.03125 100.550781 91.65625 98.9375 92.316406 97.339844 C 92.980469 95.742188 93.679688 94.164062 94.421875 92.601562 C 95.160156 91.039062 95.9375 89.492188 96.753906 87.96875 C 97.570312 86.445312 98.425781 84.941406 99.3125 83.457031 C 100.203125 81.976562 101.128906 80.515625 102.089844 79.078125 C 103.054688 77.640625 104.050781 76.226562 105.082031 74.835938 C 106.113281 73.449219 107.175781 72.085938 108.273438 70.75 C 109.371094 69.414062 110.503906 68.105469 111.664062 66.824219 C 112.828125 65.542969 114.019531 64.289062 115.246094 63.070312 C 116.46875 61.847656 117.722656 60.652344 119.003906 59.492188 C 120.285156 58.332031 121.597656 57.203125 122.933594 56.105469 C 124.273438 55.007812 125.636719 53.945312 127.027344 52.917969 C 128.417969 51.886719 129.832031 50.890625 131.273438 49.929688 C 132.710938 48.96875 134.171875 48.046875 135.65625 47.15625 C 137.140625 46.265625 138.648438 45.414062 140.175781 44.601562 C 141.699219 43.785156 143.246094 43.007812 144.8125 42.269531 C 146.375 41.53125 147.957031 40.828125 149.558594 40.167969 C 151.15625 39.507812 152.769531 38.882812 154.402344 38.300781 C 156.03125 37.71875 157.671875 37.175781 159.328125 36.675781 C 160.984375 36.171875 162.652344 35.710938 164.332031 35.292969 C 166.011719 34.871094 167.699219 34.492188 169.398438 34.15625 C 171.097656 33.820312 172.800781 33.523438 174.511719 33.269531 C 176.226562 33.015625 177.941406 32.804688 179.664062 32.636719 C 181.386719 32.464844 183.113281 32.339844 184.84375 32.253906 C 186.570312 32.167969 188.300781 32.125 190.03125 32.125 C 191.761719 32.125 193.492188 32.167969 195.222656 32.253906 C 196.949219 32.339844 198.675781 32.464844 200.398438 32.636719 C 202.121094 32.804688 203.839844 33.015625 205.550781 33.269531 C 207.261719 33.523438 208.96875 33.820312 210.664062 34.15625 C 212.363281 34.492188 214.050781 34.871094 215.730469 35.292969 C 217.410156 35.710938 219.078125 36.171875 220.734375 36.675781 C 222.390625 37.175781 224.035156 37.71875 225.664062 38.300781 C 227.292969 38.882812 228.90625 39.507812 230.507812 40.167969 C 232.105469 40.828125 233.6875 41.53125 235.253906 42.269531 C 236.816406 43.007812 238.363281 43.785156 239.890625 44.601562 C 241.414062 45.414062 242.921875 46.265625 244.40625 47.15625 C 245.890625 48.046875 247.351562 48.96875 248.792969 49.929688 C 250.230469 50.890625 251.644531 51.886719 253.035156 52.917969 C 254.425781 53.945312 255.789062 55.007812 257.128906 56.105469 C 258.46875 57.203125 259.777344 58.332031 261.058594 59.492188 C 262.34375 60.652344 263.59375 61.847656 264.820312 63.070312 C 266.042969 64.289062 267.238281 65.542969 268.398438 66.824219 C 269.5625 68.105469 270.691406 69.414062 271.789062 70.75 C 272.886719 72.085938 273.953125 73.449219 274.984375 74.835938 C 276.015625 76.226562 277.011719 77.640625 277.972656 79.078125 C 278.933594 80.515625 279.859375 81.976562 280.75 83.457031 C 281.640625 84.941406 282.492188 86.445312 283.308594 87.96875 C 284.125 89.492188 284.902344 91.039062 285.644531 92.601562 C 286.382812 94.164062 287.085938 95.742188 287.746094 97.339844 C 288.410156 98.9375 289.03125 100.550781 289.613281 102.179688 C 290.199219 103.808594 290.742188 105.449219 291.242188 107.101562 C 291.746094 108.757812 292.207031 110.421875 292.628906 112.101562 C 293.046875 113.777344 293.425781 115.464844 293.765625 117.160156 C 294.101562 118.855469 294.398438 120.558594 294.652344 122.269531 C 294.90625 123.976562 295.117188 125.691406 295.289062 127.414062 C 295.457031 129.132812 295.585938 130.859375 295.671875 132.585938 C 295.753906 134.3125 295.796875 136.039062 295.796875 137.769531 Z M 295.796875 137.769531 " fill-opacity="1" fill-rule="nonzero"/><path fill="#fffaef" d="M 95.136719 80.371094 L 136.152344 74.167969 L 164.394531 78.121094 L 181.121094 79.558594 L 137.234375 82.972656 L 120.867188 86.566406 L 88.132812 85.488281 Z M 95.136719 80.371094 " fill-opacity="1" fill-rule="nonzero"/><path fill="#fffaef" d="M 72.75 126.257812 L 104.023438 121.527344 L 125.554688 124.542969 L 138.308594 125.636719 L 104.84375 128.238281 L 92.367188 130.980469 L 67.410156 130.160156 Z M 72.75 126.257812 " fill-opacity="1" fill-rule="nonzero"/><path fill="#fffaef" d="M 305.644531 105.699219 L 264.628906 111.898438 L 236.390625 107.945312 L 219.664062 106.507812 L 263.546875 103.097656 L 279.914062 99.5 L 312.652344 100.582031 Z M 305.644531 105.699219 " fill-opacity="1" fill-rule="nonzero"/><path fill="#fffaef" d="M 258.898438 49.183594 L 227.84375 53.875 L 199.605469 49.925781 L 182.878906 48.488281 L 226.761719 45.074219 L 243.128906 41.480469 Z M 258.898438 49.183594 " fill-opacity="1" fill-rule="nonzero"/><path fill="#fffaef" d="M 79 174.027344 C 79 174.027344 103.289062 163.414062 141.996094 174.027344 C 119.988281 165.121094 94.847656 165.308594 79 174.027344 Z M 79 174.027344 " fill-opacity="1" fill-rule="nonzero"/><path fill="#000628" d="M 61.648438 196.566406 L 45.28125 233.160156 L 55.121094 267.550781 L 325.882812 260.75 L 343.503906 171.910156 Z M 61.648438 196.566406 " fill-opacity="1" fill-rule="nonzero"/><g clip-path="url(#d8e517dbbb)"><path fill="#f8a400" d="M 360.222656 303.410156 L 9.742188 303.410156 L 26.679688 273.410156 L 9.742188 243.410156 L 360.222656 243.410156 L 343.285156 272.101562 Z M 360.222656 303.410156 " fill-opacity="1" fill-rule="nonzero"/></g><path fill="#000628" d="M 351.703125 298.335938 L 18.4375 298.335938 L 32.511719 273.410156 L 18.4375 248.484375 L 351.328125 248.484375 L 337.453125 271.992188 Z M 21.339844 296.644531 L 348.863281 296.644531 L 335.511719 271.957031 L 348.367188 250.175781 L 21.339844 250.175781 L 34.460938 273.410156 Z M 21.339844 296.644531 " fill-opacity="1" fill-rule="nonzero"/><path fill="#000628" d="M 321.984375 206.816406 C 323.050781 208.609375 325.300781 209.308594 327.144531 208.328125 C 332.480469 205.488281 341.039062 198.539062 338.972656 183.714844 L 338.257812 179.535156 C 338.257812 179.535156 343.050781 160.78125 334.480469 158.742188 C 325.910156 156.703125 307.238281 167.8125 292.136719 143.046875 C 277.035156 118.28125 254.15625 114.210938 208.839844 114.210938 C 163.523438 114.210938 139.59375 113.730469 133.53125 142.097656 C 98.429688 145.925781 86.78125 145.445312 76.410156 155.644531 C 49.765625 149.429688 35.703125 158.085938 35.703125 168.109375 C 35.703125 178.128906 43.386719 176.414062 43.386719 186.433594 C 36.878906 188.417969 39.769531 197.625 39.769531 197.625 C 39.769531 197.625 31.828125 197.421875 31.828125 206.515625 C 31.828125 215.613281 37.472656 226.566406 56.324219 223.425781 C 58.1875 234.25 64.699219 238.816406 84.007812 238.003906 C 102.550781 237.226562 107.476562 226.210938 107.476562 226.210938 L 177.558594 226.476562 C 177.558594 226.476562 180.046875 248.929688 206.210938 250.351562 C 235.632812 251.957031 239.8125 222.902344 239.8125 222.902344 L 291.691406 214.324219 C 291.691406 214.324219 293.984375 226.347656 304.925781 226.113281 C 316.609375 225.871094 319.953125 212.894531 319.835938 204.433594 C 320.796875 205.132812 321.484375 205.980469 321.976562 206.804688 Z M 321.984375 206.816406 " fill-opacity="1" fill-rule="nonzero"/><path fill="#fffaef" d="M 215.484375 214.835938 C 215.484375 215.300781 215.453125 215.757812 215.394531 216.210938 C 215.335938 216.664062 215.246094 217.101562 215.128906 217.53125 C 215.015625 217.957031 214.871094 218.363281 214.703125 218.746094 C 214.535156 219.132812 214.339844 219.488281 214.125 219.8125 C 213.910156 220.140625 213.675781 220.433594 213.425781 220.6875 C 213.171875 220.945312 212.90625 221.160156 212.625 221.339844 C 212.34375 221.515625 212.054688 221.648438 211.753906 221.738281 C 211.457031 221.828125 211.15625 221.875 210.851562 221.875 C 210.546875 221.875 210.246094 221.828125 209.945312 221.738281 C 209.648438 221.648438 209.359375 221.515625 209.078125 221.339844 C 208.796875 221.160156 208.53125 220.945312 208.277344 220.6875 C 208.023438 220.433594 207.789062 220.140625 207.574219 219.8125 C 207.359375 219.488281 207.167969 219.132812 207 218.746094 C 206.832031 218.363281 206.6875 217.957031 206.570312 217.53125 C 206.453125 217.101562 206.367188 216.664062 206.308594 216.210938 C 206.25 215.757812 206.21875 215.300781 206.21875 214.835938 C 206.21875 214.375 206.25 213.917969 206.308594 213.464844 C 206.367188 213.011719 206.453125 212.570312 206.570312 212.144531 C 206.6875 211.714844 206.832031 211.3125 207 210.925781 C 207.167969 210.542969 207.359375 210.1875 207.574219 209.859375 C 207.789062 209.535156 208.023438 209.242188 208.277344 208.984375 C 208.53125 208.726562 208.796875 208.511719 209.078125 208.335938 C 209.359375 208.15625 209.648438 208.023438 209.945312 207.933594 C 210.246094 207.84375 210.546875 207.800781 210.851562 207.800781 C 211.15625 207.800781 211.457031 207.84375 211.753906 207.933594 C 212.054688 208.023438 212.34375 208.15625 212.625 208.335938 C 212.90625 208.511719 213.171875 208.726562 213.425781 208.984375 C 213.675781 209.242188 213.910156 209.535156 214.125 209.859375 C 214.339844 210.1875 214.535156 210.542969 214.703125 210.925781 C 214.871094 211.3125 215.015625 211.714844 215.128906 212.144531 C 215.246094 212.570312 215.335938 213.011719 215.394531 213.464844 C 215.453125 213.917969 215.484375 214.375 215.484375 214.835938 Z M 215.484375 214.835938 " fill-opacity="1" fill-rule="nonzero"/><g mask="url(#1638d2f471)"><g transform="matrix(1, 0, 0, 1, 208, 207)"><g clip-path="url(#091b88b7e1)"><g clip-path="url(#5a720d0878)"><path fill="#000628" d="M 2.851562 0.800781 C 2.160156 0.800781 1.507812 1.03125 0.917969 1.441406 C 1.167969 1.378906 1.425781 1.34375 1.691406 1.34375 C 4.25 1.34375 6.324219 4.492188 6.324219 8.382812 C 6.324219 11.21875 5.214844 13.660156 3.625 14.777344 C 5.816406 14.21875 7.484375 11.324219 7.484375 7.839844 C 7.484375 3.953125 5.410156 0.800781 2.855469 0.800781 Z M 2.851562 0.800781 " fill-opacity="1" fill-rule="nonzero"/></g></g></g></g><path fill="#fffaef" d="M 192.410156 215.535156 C 192.410156 230.113281 200.695312 241.929688 210.917969 241.929688 C 221.140625 241.929688 229.429688 230.113281 229.429688 215.535156 C 229.429688 200.957031 221.144531 189.140625 210.917969 189.140625 C 200.695312 189.140625 192.410156 200.957031 192.410156 215.535156 Z M 195.296875 216.007812 C 195.296875 204.109375 201.5625 194.472656 209.292969 194.472656 C 217.023438 194.472656 223.289062 204.113281 223.289062 216.007812 C 223.289062 227.902344 217.023438 237.542969 209.292969 237.542969 C 201.5625 237.542969 195.296875 227.898438 195.296875 216.007812 Z M 195.296875 216.007812 " fill-opacity="1" fill-rule="nonzero"/><g mask="url(#371c45f185)"><g transform="matrix(1, 0, 0, 1, 193, 194)"><g clip-path="url(#d0b8e2da11)"><g clip-path="url(#19e2f067bd)"><path fill="#000628" d="M 12.859375 1.125 C 5.984375 2.488281 0.671875 11.527344 0.671875 22.476562 C 0.671875 34.375 6.9375 44.015625 14.667969 44.015625 C 15.851562 44.015625 17 43.785156 18.097656 43.359375 C 17.507812 43.476562 16.90625 43.546875 16.292969 43.546875 C 8.5625 43.546875 2.296875 33.902344 2.296875 22.007812 C 2.296875 11.9375 6.789062 3.480469 12.859375 1.128906 Z M 12.859375 1.125 " fill-opacity="1" fill-rule="nonzero"/></g></g></g></g><path fill="#2d7215" d="M 238.769531 203.871094 C 238.769531 203.871094 240.484375 209.917969 239.433594 217.703125 L 276.339844 206.667969 L 242.582031 211.488281 C 242.582031 211.488281 241.714844 207.039062 238.769531 203.875 Z M 238.769531 203.871094 " fill-opacity="1" fill-rule="nonzero"/><path fill="#fffaef" d="M 180.050781 190.742188 C 180.050781 191.023438 180.023438 191.300781 179.976562 191.574219 C 179.925781 191.847656 179.851562 192.113281 179.75 192.371094 C 179.652344 192.628906 179.53125 192.875 179.386719 193.109375 C 179.242188 193.339844 179.082031 193.554688 178.898438 193.753906 C 178.714844 193.953125 178.515625 194.128906 178.300781 194.285156 C 178.085938 194.4375 177.859375 194.570312 177.621094 194.675781 C 177.382812 194.785156 177.136719 194.863281 176.886719 194.917969 C 176.632812 194.972656 176.375 195 176.117188 195 C 175.859375 195 175.605469 194.972656 175.351562 194.917969 C 175.097656 194.863281 174.851562 194.785156 174.613281 194.675781 C 174.375 194.570312 174.148438 194.4375 173.933594 194.285156 C 173.71875 194.128906 173.519531 193.953125 173.335938 193.753906 C 173.15625 193.554688 172.992188 193.339844 172.847656 193.109375 C 172.703125 192.875 172.582031 192.628906 172.484375 192.371094 C 172.386719 192.113281 172.3125 191.847656 172.261719 191.574219 C 172.210938 191.300781 172.1875 191.023438 172.1875 190.742188 C 172.1875 190.464844 172.210938 190.1875 172.261719 189.914062 C 172.3125 189.636719 172.386719 189.371094 172.484375 189.113281 C 172.582031 188.855469 172.703125 188.609375 172.847656 188.378906 C 172.992188 188.144531 173.15625 187.929688 173.335938 187.734375 C 173.519531 187.535156 173.71875 187.359375 173.933594 187.203125 C 174.148438 187.046875 174.375 186.917969 174.613281 186.808594 C 174.851562 186.703125 175.097656 186.621094 175.351562 186.566406 C 175.605469 186.511719 175.859375 186.484375 176.117188 186.484375 C 176.375 186.484375 176.632812 186.511719 176.886719 186.566406 C 177.136719 186.621094 177.382812 186.703125 177.621094 186.808594 C 177.859375 186.917969 178.085938 187.046875 178.300781 187.203125 C 178.515625 187.359375 178.714844 187.535156 178.898438 187.734375 C 179.082031 187.929688 179.242188 188.144531 179.386719 188.378906 C 179.53125 188.609375 179.652344 188.855469 179.75 189.113281 C 179.851562 189.371094 179.925781 189.636719 179.976562 189.914062 C 180.023438 190.1875 180.050781 190.464844 180.050781 190.742188 Z M 180.050781 190.742188 " fill-opacity="1" fill-rule="nonzero"/><path fill="#fffaef" d="M 53.148438 186.484375 C 53.148438 186.765625 53.121094 187.042969 53.070312 187.316406 C 53.019531 187.589844 52.945312 187.855469 52.847656 188.113281 C 52.75 188.375 52.628906 188.617188 52.484375 188.851562 C 52.339844 189.082031 52.179688 189.296875 51.996094 189.496094 C 51.8125 189.695312 51.613281 189.871094 51.398438 190.027344 C 51.183594 190.179688 50.957031 190.3125 50.71875 190.417969 C 50.480469 190.527344 50.234375 190.605469 49.980469 190.660156 C 49.730469 190.714844 49.472656 190.742188 49.214844 190.742188 C 48.957031 190.742188 48.699219 190.714844 48.449219 190.660156 C 48.195312 190.605469 47.949219 190.527344 47.710938 190.417969 C 47.472656 190.3125 47.246094 190.179688 47.03125 190.027344 C 46.816406 189.871094 46.617188 189.695312 46.433594 189.496094 C 46.25 189.296875 46.089844 189.082031 45.945312 188.851562 C 45.800781 188.617188 45.679688 188.375 45.582031 188.113281 C 45.484375 187.855469 45.410156 187.589844 45.359375 187.316406 C 45.308594 187.042969 45.28125 186.765625 45.28125 186.484375 C 45.28125 186.207031 45.308594 185.929688 45.359375 185.65625 C 45.410156 185.378906 45.484375 185.113281 45.582031 184.855469 C 45.679688 184.597656 45.800781 184.351562 45.945312 184.121094 C 46.089844 183.886719 46.25 183.671875 46.433594 183.476562 C 46.617188 183.277344 46.816406 183.101562 47.03125 182.945312 C 47.246094 182.789062 47.472656 182.660156 47.710938 182.550781 C 47.949219 182.445312 48.195312 182.363281 48.449219 182.308594 C 48.699219 182.253906 48.957031 182.226562 49.214844 182.226562 C 49.472656 182.226562 49.730469 182.253906 49.980469 182.308594 C 50.234375 182.363281 50.480469 182.445312 50.71875 182.550781 C 50.957031 182.660156 51.183594 182.789062 51.398438 182.945312 C 51.613281 183.101562 51.8125 183.277344 51.996094 183.476562 C 52.179688 183.671875 52.339844 183.886719 52.484375 184.121094 C 52.628906 184.351562 52.75 184.597656 52.847656 184.855469 C 52.945312 185.113281 53.019531 185.378906 53.070312 185.65625 C 53.121094 185.929688 53.148438 186.207031 53.148438 186.484375 Z M 53.148438 186.484375 " fill-opacity="1" fill-rule="nonzero"/><path fill="#fffaef" d="M 184.421875 171.910156 C 184.421875 172.480469 184.371094 173.039062 184.269531 173.597656 C 184.167969 174.15625 184.015625 174.695312 183.816406 175.21875 C 183.613281 175.742188 183.367188 176.242188 183.078125 176.714844 C 182.785156 177.1875 182.453125 177.621094 182.082031 178.023438 C 181.710938 178.425781 181.308594 178.785156 180.871094 179.097656 C 180.4375 179.414062 179.976562 179.679688 179.492188 179.898438 C 179.007812 180.113281 178.507812 180.277344 177.992188 180.390625 C 177.476562 180.5 176.957031 180.554688 176.433594 180.554688 C 175.910156 180.554688 175.390625 180.5 174.875 180.390625 C 174.359375 180.277344 173.863281 180.113281 173.375 179.898438 C 172.890625 179.679688 172.433594 179.414062 171.996094 179.097656 C 171.558594 178.785156 171.15625 178.425781 170.785156 178.023438 C 170.414062 177.621094 170.082031 177.1875 169.792969 176.714844 C 169.5 176.242188 169.253906 175.742188 169.054688 175.21875 C 168.851562 174.695312 168.699219 174.15625 168.597656 173.597656 C 168.496094 173.039062 168.445312 172.480469 168.445312 171.910156 C 168.445312 171.34375 168.496094 170.78125 168.597656 170.222656 C 168.699219 169.667969 168.851562 169.128906 169.054688 168.601562 C 169.253906 168.078125 169.5 167.582031 169.792969 167.109375 C 170.082031 166.636719 170.414062 166.199219 170.785156 165.796875 C 171.15625 165.398438 171.558594 165.039062 171.996094 164.722656 C 172.433594 164.40625 172.890625 164.140625 173.375 163.925781 C 173.863281 163.707031 174.359375 163.542969 174.875 163.433594 C 175.390625 163.320312 175.910156 163.265625 176.433594 163.265625 C 176.957031 163.265625 177.476562 163.320312 177.992188 163.433594 C 178.507812 163.542969 179.007812 163.707031 179.492188 163.925781 C 179.976562 164.140625 180.4375 164.40625 180.871094 164.722656 C 181.308594 165.039062 181.710938 165.398438 182.082031 165.796875 C 182.453125 166.199219 182.785156 166.636719 183.078125 167.109375 C 183.367188 167.582031 183.613281 168.078125 183.816406 168.601562 C 184.015625 169.128906 184.167969 169.667969 184.269531 170.222656 C 184.371094 170.78125 184.421875 171.34375 184.421875 171.910156 Z M 184.421875 171.910156 " fill-opacity="1" fill-rule="nonzero"/><path fill="#000628" d="M 175.222656 177.820312 C 178.140625 177.820312 180.507812 175.261719 180.507812 172.101562 C 180.507812 168.945312 178.140625 166.382812 175.222656 166.382812 C 174.109375 166.382812 173.082031 166.757812 172.230469 167.390625 C 173.304688 166.292969 174.75 165.621094 176.34375 165.621094 C 179.652344 165.621094 182.335938 168.523438 182.335938 172.105469 C 182.335938 175.6875 179.65625 178.589844 176.34375 178.589844 C 174.75 178.589844 173.304688 177.917969 172.230469 176.820312 C 173.082031 177.453125 174.109375 177.828125 175.222656 177.828125 Z M 175.222656 177.820312 " fill-opacity="1" fill-rule="nonzero"/><path fill="#fffaef" d="M 57.203125 168.511719 C 57.203125 169.082031 57.152344 169.644531 57.050781 170.199219 C 56.949219 170.757812 56.796875 171.296875 56.59375 171.820312 C 56.394531 172.347656 56.148438 172.84375 55.855469 173.316406 C 55.566406 173.789062 55.234375 174.226562 54.863281 174.625 C 54.492188 175.027344 54.089844 175.386719 53.652344 175.703125 C 53.21875 176.015625 52.757812 176.28125 52.273438 176.5 C 51.789062 176.71875 51.289062 176.882812 50.773438 176.992188 C 50.257812 177.101562 49.738281 177.160156 49.214844 177.160156 C 48.691406 177.160156 48.171875 177.101562 47.65625 176.992188 C 47.140625 176.882812 46.640625 176.71875 46.15625 176.5 C 45.671875 176.28125 45.210938 176.015625 44.777344 175.703125 C 44.339844 175.386719 43.9375 175.027344 43.566406 174.625 C 43.195312 174.226562 42.863281 173.789062 42.570312 173.316406 C 42.28125 172.84375 42.035156 172.347656 41.832031 171.820312 C 41.632812 171.296875 41.480469 170.757812 41.378906 170.199219 C 41.277344 169.644531 41.226562 169.082031 41.226562 168.511719 C 41.226562 167.945312 41.277344 167.382812 41.378906 166.828125 C 41.480469 166.269531 41.632812 165.730469 41.832031 165.207031 C 42.035156 164.679688 42.28125 164.183594 42.570312 163.710938 C 42.863281 163.238281 43.195312 162.800781 43.566406 162.402344 C 43.9375 162 44.339844 161.640625 44.777344 161.324219 C 45.210938 161.011719 45.671875 160.742188 46.15625 160.527344 C 46.640625 160.308594 47.140625 160.144531 47.65625 160.035156 C 48.171875 159.925781 48.691406 159.867188 49.214844 159.867188 C 49.738281 159.867188 50.257812 159.925781 50.773438 160.035156 C 51.289062 160.144531 51.789062 160.308594 52.273438 160.527344 C 52.757812 160.742188 53.21875 161.011719 53.652344 161.324219 C 54.089844 161.640625 54.492188 162 54.863281 162.402344 C 55.234375 162.800781 55.566406 163.238281 55.855469 163.710938 C 56.148438 164.183594 56.394531 164.679688 56.59375 165.207031 C 56.796875 165.730469 56.949219 166.269531 57.050781 166.828125 C 57.152344 167.382812 57.203125 167.945312 57.203125 168.511719 Z M 57.203125 168.511719 " fill-opacity="1" fill-rule="nonzero"/><path fill="#000628" d="M 48.003906 174.421875 C 50.921875 174.421875 53.289062 171.859375 53.289062 168.703125 C 53.289062 165.542969 50.921875 162.984375 48.003906 162.984375 C 46.890625 162.984375 45.859375 163.355469 45.011719 163.992188 C 46.085938 162.894531 47.53125 162.21875 49.125 162.21875 C 52.433594 162.21875 55.117188 165.125 55.117188 168.707031 C 55.117188 172.285156 52.4375 175.191406 49.125 175.191406 C 47.53125 175.191406 46.085938 174.515625 45.011719 173.417969 C 45.859375 174.054688 46.890625 174.425781 48.003906 174.425781 Z M 48.003906 174.421875 " fill-opacity="1" fill-rule="nonzero"/><path fill="#fffaef" d="M 311.996094 207.0625 C 311.996094 207.578125 311.96875 208.085938 311.910156 208.59375 C 311.855469 209.097656 311.773438 209.589844 311.664062 210.0625 C 311.550781 210.539062 311.417969 210.992188 311.257812 211.417969 C 311.097656 211.847656 310.917969 212.242188 310.714844 212.609375 C 310.511719 212.972656 310.292969 213.296875 310.054688 213.582031 C 309.8125 213.867188 309.5625 214.109375 309.296875 214.308594 C 309.03125 214.503906 308.757812 214.652344 308.476562 214.753906 C 308.195312 214.855469 307.914062 214.90625 307.625 214.90625 C 307.339844 214.90625 307.054688 214.855469 306.773438 214.753906 C 306.492188 214.652344 306.21875 214.503906 305.953125 214.308594 C 305.6875 214.109375 305.4375 213.867188 305.199219 213.582031 C 304.960938 213.296875 304.738281 212.972656 304.535156 212.609375 C 304.332031 212.242188 304.152344 211.847656 303.992188 211.417969 C 303.832031 210.992188 303.699219 210.539062 303.589844 210.0625 C 303.476562 209.589844 303.394531 209.097656 303.339844 208.59375 C 303.285156 208.085938 303.253906 207.578125 303.253906 207.0625 C 303.253906 206.546875 303.285156 206.039062 303.339844 205.535156 C 303.394531 205.027344 303.476562 204.539062 303.589844 204.0625 C 303.699219 203.585938 303.832031 203.136719 303.992188 202.707031 C 304.152344 202.277344 304.332031 201.882812 304.535156 201.519531 C 304.738281 201.15625 304.960938 200.828125 305.199219 200.542969 C 305.4375 200.257812 305.6875 200.015625 305.953125 199.820312 C 306.21875 199.621094 306.492188 199.472656 306.773438 199.371094 C 307.054688 199.273438 307.339844 199.222656 307.625 199.222656 C 307.914062 199.222656 308.195312 199.273438 308.476562 199.371094 C 308.757812 199.472656 309.03125 199.621094 309.296875 199.820312 C 309.5625 200.015625 309.816406 200.257812 310.054688 200.542969 C 310.292969 200.828125 310.511719 201.15625 310.714844 201.519531 C 310.917969 201.882812 311.097656 202.277344 311.257812 202.707031 C 311.417969 203.136719 311.550781 203.585938 311.664062 204.0625 C 311.773438 204.539062 311.855469 205.027344 311.910156 205.535156 C 311.96875 206.039062 311.996094 206.546875 311.996094 207.0625 Z M 311.996094 207.0625 " fill-opacity="1" fill-rule="nonzero"/><path fill="#fffaef" d="M 315.457031 205.457031 C 315.457031 198.5 312.839844 192.484375 309.035156 189.605469 C 313.902344 191.378906 317.527344 198.101562 317.527344 206.128906 C 317.527344 215.503906 312.578125 223.109375 306.472656 223.109375 C 306.070312 223.109375 305.667969 223.074219 305.277344 223.011719 C 311.007812 222.007812 315.460938 214.535156 315.460938 205.460938 Z M 315.457031 205.457031 " fill-opacity="1" fill-rule="nonzero"/><path fill="#2d7215" d="M 161.996094 212.449219 C 161.996094 212.449219 160.199219 217.039062 137.082031 217.039062 C 113.964844 217.039062 88.179688 216.441406 75.855469 215.839844 C 63.53125 215.238281 63.867188 210.53125 63.867188 207.375 C 63.867188 204.210938 70.917969 203.308594 86.371094 203.308594 C 101.828125 203.308594 139.925781 202.429688 146.257812 204.699219 C 152.589844 206.96875 153.378906 212.25 161.996094 212.445312 Z M 161.996094 212.449219 " fill-opacity="1" fill-rule="nonzero"/><path fill="#2d7215" d="M 183.359375 212.167969 C 183.359375 216.628906 179.738281 220.242188 175.273438 220.242188 C 170.808594 220.242188 167.1875 216.628906 167.1875 212.167969 L 183.363281 212.167969 Z M 183.359375 212.167969 " fill-opacity="1" fill-rule="nonzero"/><path fill="#2d7215" d="M 55.121094 208.128906 C 55.121094 212.589844 51.5 216.203125 47.035156 216.203125 C 42.570312 216.203125 38.949219 212.589844 38.949219 208.128906 Z M 55.121094 208.128906 " fill-opacity="1" fill-rule="nonzero"/><path fill="#2d7215" d="M 234.839844 156.683594 C 234.839844 156.683594 185.386719 150.707031 162.519531 166.113281 C 162.519531 166.113281 158.476562 164.945312 160.179688 159.207031 C 161.882812 153.472656 155.605469 147.203125 90.1875 154.746094 C 90.1875 154.746094 149.308594 134.820312 234.84375 156.683594 Z M 234.839844 156.683594 " fill-opacity="1" fill-rule="nonzero"/><path fill="#2d7215" d="M 236.929688 145.4375 C 236.929688 145.4375 186.121094 140.113281 143.601562 142.125 C 149.640625 123.90625 152.296875 122.902344 186.59375 122.253906 C 215.722656 121.703125 234.203125 119.53125 236.929688 145.4375 Z M 236.929688 145.4375 " fill-opacity="1" fill-rule="nonzero"/><path fill="#000628" d="M 233.027344 143.054688 L 232.992188 143.050781 C 231.515625 142.847656 230.347656 141.703125 230.089844 140.234375 C 229.367188 136.078125 225.960938 127.867188 210.515625 125.597656 C 210.515625 125.597656 231.699219 124.234375 233.027344 143.054688 Z M 233.027344 143.054688 " fill-opacity="1" fill-rule="nonzero"/><path fill="#2d7215" d="M 291.554688 153.695312 L 262.34375 154.292969 L 279.664062 152 L 259.457031 152.339844 C 259.457031 152.339844 253.511719 145.640625 252.492188 134.953125 C 279.496094 134.699219 281.789062 135.972656 291.550781 153.699219 Z M 291.554688 153.695312 " fill-opacity="1" fill-rule="nonzero"/><path fill="#fffaef" d="M 252.496094 174.980469 L 182.339844 175.683594 L 182.902344 169.097656 Z M 252.496094 174.980469 " fill-opacity="1" fill-rule="nonzero"/><path fill="#fffaef" d="M 86.046875 191.273438 C 78.992188 189.636719 74.566406 187.273438 74.566406 184.640625 C 74.566406 184.269531 74.65625 183.902344 74.828125 183.542969 C 75.882812 181.328125 80.101562 179.363281 86.285156 177.953125 C 86.585938 179.101562 86.867188 180.554688 86.992188 182.246094 C 87.183594 184.792969 87.03125 187.882812 86.046875 191.269531 Z M 86.046875 191.273438 " fill-opacity="1" fill-rule="nonzero"/><path fill="#fffaef" d="M 94.167969 192.6875 C 92.652344 192.496094 91.195312 192.277344 89.8125 192.035156 C 90.410156 189.273438 90.992188 185.621094 90.921875 182.015625 C 90.890625 180.351562 90.726562 178.699219 90.363281 177.148438 C 91.828125 176.902344 93.367188 176.683594 94.972656 176.496094 C 95.355469 177.800781 95.757812 179.628906 95.890625 181.828125 C 96.070312 184.855469 95.746094 188.597656 94.167969 192.683594 Z M 94.167969 192.6875 " fill-opacity="1" fill-rule="nonzero"/><path fill="#fffaef" d="M 102.390625 193.410156 C 100.976562 193.335938 99.589844 193.234375 98.242188 193.121094 C 98.929688 190.417969 99.804688 186.09375 99.800781 181.761719 C 99.800781 179.824219 99.625 177.882812 99.175781 176.085938 C 100.699219 175.960938 102.269531 175.867188 103.878906 175.800781 C 104.292969 177.242188 104.71875 179.292969 104.792969 181.757812 C 104.894531 185.035156 104.375 189.0625 102.390625 193.40625 Z M 102.390625 193.410156 " fill-opacity="1" fill-rule="nonzero"/><path fill="#fffaef" d="M 123.339844 192.875 C 122.023438 193.019531 120.664062 193.144531 119.269531 193.246094 C 117.34375 189.148438 116.734375 185.332031 116.726562 182.136719 C 116.722656 179.613281 117.097656 177.484375 117.503906 175.914062 C 119.117188 176.011719 120.6875 176.136719 122.210938 176.285156 C 121.792969 178.25 121.679688 180.363281 121.75 182.441406 C 121.882812 186.488281 122.710938 190.410156 123.339844 192.871094 Z M 123.339844 192.875 " fill-opacity="1" fill-rule="nonzero"/><path fill="#fffaef" d="M 114.859375 193.496094 C 113.128906 193.5625 111.359375 193.597656 109.558594 193.597656 C 108.625 193.597656 107.695312 193.589844 106.777344 193.570312 C 107.421875 191.25 108.539062 186.613281 108.660156 181.828125 C 108.714844 179.753906 108.585938 177.644531 108.144531 175.691406 C 108.617188 175.6875 109.085938 175.683594 109.558594 175.683594 C 110.820312 175.683594 112.0625 175.699219 113.289062 175.734375 C 112.894531 177.734375 112.804688 179.871094 112.894531 181.964844 C 113.101562 186.808594 114.261719 191.410156 114.859375 193.496094 Z M 114.859375 193.496094 " fill-opacity="1" fill-rule="nonzero"/><path fill="#fffaef" d="M 131.714844 191.574219 C 130.359375 191.859375 128.917969 192.117188 127.40625 192.347656 C 126.015625 188.804688 125.578125 185.515625 125.597656 182.722656 C 125.613281 180.328125 125.96875 178.292969 126.363281 176.78125 C 127.988281 177.007812 129.535156 177.269531 130.988281 177.558594 C 130.65625 179.363281 130.558594 181.273438 130.621094 183.160156 C 130.710938 186.226562 131.207031 189.21875 131.714844 191.574219 Z M 131.714844 191.574219 " fill-opacity="1" fill-rule="nonzero"/><path fill="#fffaef" d="M 144.554688 184.640625 C 144.554688 184.675781 144.554688 184.710938 144.550781 184.75 C 144.445312 187.03125 141.011719 189.101562 135.441406 190.667969 C 134.707031 188.078125 134.457031 185.671875 134.472656 183.542969 C 134.484375 181.589844 134.722656 179.878906 135.019531 178.492188 C 140.933594 180.097656 144.558594 182.257812 144.558594 184.636719 Z M 144.554688 184.640625 " fill-opacity="1" fill-rule="nonzero"/><path fill="#fffaef" d="M 332.019531 164.96875 C 332.019531 164.96875 297.933594 164.96875 259.957031 167.5625 C 287.535156 170.667969 318.480469 167.773438 332.019531 164.96875 Z M 332.019531 164.96875 " fill-opacity="1" fill-rule="nonzero"/><path fill="#fffaef" d="M 335.332031 189.332031 C 335.332031 189.332031 335.882812 200.066406 325.882812 203.804688 C 333.125 198.296875 335.332031 189.332031 335.332031 189.332031 Z M 335.332031 189.332031 " fill-opacity="1" fill-rule="nonzero"/><path fill="#fffaef" d="M 295.953125 189.972656 L 210.488281 189.140625 L 219.476562 195.757812 Z M 295.953125 189.972656 " fill-opacity="1" fill-rule="nonzero"/><g mask="url(#8b993dbea8)"><g transform="matrix(1, 0, 0, 1, 74, 177)"><g clip-path="url(#958b902e6a)"><g clip-path="url(#71918453c7)"><path fill="#000628" d="M 12.28125 0.953125 C 12.582031 2.101562 12.863281 3.554688 12.992188 5.246094 C 7.777344 5.601562 3.71875 6.097656 0.824219 6.542969 C 1.878906 4.328125 6.097656 2.363281 12.28125 0.953125 Z M 12.28125 0.953125 " fill-opacity="1" fill-rule="nonzero"/></g></g></g></g><g mask="url(#2f373498ce)"><g transform="matrix(1, 0, 0, 1, 90, 176)"><g clip-path="url(#f5e6b13a40)"><g clip-path="url(#10bec1e030)"><path fill="#000628" d="M 4.972656 0.5 C 5.355469 1.804688 5.757812 3.632812 5.890625 5.832031 C 4.148438 5.871094 2.492188 5.9375 0.925781 6.015625 C 0.894531 4.351562 0.726562 2.699219 0.367188 1.148438 C 1.832031 0.902344 3.371094 0.683594 4.976562 0.496094 Z M 4.972656 0.5 " fill-opacity="1" fill-rule="nonzero"/></g></g></g></g><g mask="url(#e8cf83ae52)"><g transform="matrix(1, 0, 0, 1, 98, 175)"><g clip-path="url(#e0754fff65)"><g clip-path="url(#723678802c)"><path fill="#000628" d="M 5.878906 0.800781 C 6.292969 2.246094 6.71875 4.296875 6.792969 6.761719 C 5.0625 6.742188 3.398438 6.742188 1.800781 6.761719 C 1.800781 4.824219 1.625 2.882812 1.175781 1.085938 C 2.699219 0.964844 4.269531 0.867188 5.878906 0.800781 Z M 5.878906 0.800781 " fill-opacity="1" fill-rule="nonzero"/></g></g></g></g><g mask="url(#d369653390)"><g transform="matrix(1, 0, 0, 1, 107, 175)"><g clip-path="url(#00b764b569)"><g clip-path="url(#5514e9e8af)"><path fill="#000628" d="M 6.285156 0.734375 C 5.890625 2.734375 5.804688 4.871094 5.890625 6.964844 C 4.441406 6.910156 3.035156 6.863281 1.660156 6.828125 C 1.710938 4.753906 1.582031 2.644531 1.144531 0.691406 C 1.613281 0.6875 2.082031 0.683594 2.558594 0.683594 C 3.816406 0.683594 5.0625 0.699219 6.285156 0.734375 Z M 6.285156 0.734375 " fill-opacity="1" fill-rule="nonzero"/></g></g></g></g><g mask="url(#12d80dcae7)"><g transform="matrix(1, 0, 0, 1, 116, 175)"><g clip-path="url(#f407f94c5e)"><g clip-path="url(#456a5675dd)"><path fill="#000628" d="M 6.210938 1.289062 C 5.796875 3.253906 5.683594 5.363281 5.75 7.441406 C 4.039062 7.324219 2.363281 7.226562 0.730469 7.140625 C 0.726562 4.617188 1.101562 2.484375 1.507812 0.914062 C 3.121094 1.011719 4.691406 1.136719 6.210938 1.289062 Z M 6.210938 1.289062 " fill-opacity="1" fill-rule="nonzero"/></g></g></g></g><g mask="url(#1e6bee0ec0)"><g transform="matrix(1, 0, 0, 1, 125, 176)"><g clip-path="url(#86e7b5f24f)"><g clip-path="url(#6b0d930af0)"><path fill="#000628" d="M 5.988281 1.558594 C 5.65625 3.363281 5.558594 5.273438 5.621094 7.160156 C 3.910156 7 2.234375 6.855469 0.597656 6.722656 C 0.613281 4.328125 0.96875 2.292969 1.363281 0.78125 C 2.988281 1.007812 4.535156 1.269531 5.988281 1.558594 Z M 5.988281 1.558594 " fill-opacity="1" fill-rule="nonzero"/></g></g></g></g><g mask="url(#0366b3c6ca)"><g transform="matrix(1, 0, 0, 1, 134, 178)"><g clip-path="url(#d4a4b1c204)"><g clip-path="url(#780fad24e3)"><path fill="#000628" d="M 10.554688 6.640625 C 10.554688 6.675781 10.554688 6.710938 10.550781 6.75 C 7.070312 6.289062 3.710938 5.890625 0.46875 5.542969 C 0.480469 3.589844 0.71875 1.878906 1.015625 0.492188 C 6.929688 2.097656 10.554688 4.257812 10.554688 6.636719 Z M 10.554688 6.640625 " fill-opacity="1" fill-rule="nonzero"/></g></g></g></g><path fill="#000628" d="M 140.652344 213.515625 C 140.652344 213.515625 105.496094 216.359375 70.878906 212.105469 C 121.71875 213.28125 140.652344 213.515625 140.652344 213.515625 Z M 140.652344 213.515625 " fill-opacity="1" fill-rule="nonzero"/><path fill="#000628" d="M 145.019531 210.269531 C 145.019531 210.269531 106.914062 213.113281 69.394531 208.863281 C 124.496094 210.039062 145.019531 210.269531 145.019531 210.269531 Z M 145.019531 210.269531 " fill-opacity="1" fill-rule="nonzero"/><path fill="#000628" d="M 142.675781 207.070312 C 142.675781 207.070312 106.496094 209.773438 70.878906 205.734375 C 123.1875 206.851562 142.675781 207.070312 142.675781 207.070312 Z M 142.675781 207.070312 " fill-opacity="1" fill-rule="nonzero"/><path fill="#000628" d="M 210.515625 140.242188 C 210.515625 140.242188 171.976562 137.640625 149.265625 140.242188 C 171.472656 136.160156 199.015625 138.378906 210.515625 140.242188 Z M 210.515625 140.242188 " fill-opacity="1" fill-rule="nonzero"/><g fill="#000628" fill-opacity="1"><g transform="translate(49.656375, 286.943275)"><g><path d="M 18.765625 -31.1875 C 20.191406 -31.1875 21.597656 -31.078125 22.984375 -30.859375 C 24.378906 -30.640625 25.628906 -30.320312 26.734375 -29.90625 L 24.21875 -22.375 L 23.5625 -22.046875 C 22.800781 -22.484375 21.898438 -22.835938 20.859375 -23.109375 C 19.816406 -23.378906 18.835938 -23.515625 17.921875 -23.515625 C 15.515625 -23.515625 13.8125 -22.753906 12.8125 -21.234375 C 11.820312 -19.722656 11.328125 -17.304688 11.328125 -13.984375 C 11.328125 -11.679688 11.742188 -9.988281 12.578125 -8.90625 C 13.421875 -7.832031 14.726562 -7.296875 16.5 -7.296875 C 17.382812 -7.296875 18.382812 -7.382812 19.5 -7.5625 C 20.625 -7.738281 21.628906 -7.984375 22.515625 -8.296875 L 23.1875 -7.875 L 21.515625 -0.375 C 20.410156 -0.03125 19.375 0.203125 18.40625 0.328125 C 17.445312 0.453125 16.398438 0.515625 15.265625 0.515625 C 10.710938 0.515625 7.226562 -0.601562 4.8125 -2.84375 C 2.394531 -5.082031 1.1875 -8.289062 1.1875 -12.46875 C 1.1875 -18.34375 2.707031 -22.929688 5.75 -26.234375 C 8.800781 -29.535156 13.140625 -31.1875 18.765625 -31.1875 Z M 18.765625 -31.1875 "/></g></g></g><g fill="#000628" fill-opacity="1"><g transform="translate(76.483441, 286.943275)"><g><path d="M 27.828125 0 L 18.25 0 L 18.0625 -5.078125 L 18.0625 -5.265625 L 13.375 -5.359375 L 9.4375 -5.171875 L 7.96875 0 L -1.28125 0 L 11.796875 -30.671875 L 23.234375 -30.671875 Z M 17.453125 -12.140625 L 16.59375 -22.234375 L 16.015625 -22.234375 L 12.09375 -12.140625 L 14.796875 -12.09375 Z M 17.453125 -12.140625 "/></g></g></g><g fill="#000628" fill-opacity="1"><g transform="translate(108.524193, 286.943275)"><g><path d="M 29.484375 -22.515625 C 29.484375 -20.367188 28.9375 -18.367188 27.84375 -16.515625 C 26.757812 -14.671875 25.222656 -13.113281 23.234375 -11.84375 C 25.160156 -8.21875 26.992188 -5.015625 28.734375 -2.234375 L 28.484375 -1.1875 C 25.140625 -0.207031 21.898438 0.375 18.765625 0.5625 L 17.96875 -0.1875 L 17.296875 -2.140625 C 16.640625 -4.066406 15.867188 -6.40625 14.984375 -9.15625 L 11.75 -9.15625 L 10.953125 0 L 1.46875 0 L 3.078125 -9 L 5.265625 -30.671875 L 19.296875 -30.71875 C 22.453125 -30.71875 24.9375 -30 26.75 -28.5625 C 28.570312 -27.125 29.484375 -25.109375 29.484375 -22.515625 Z M 19.34375 -20.953125 C 19.34375 -22.023438 19.050781 -22.8125 18.46875 -23.3125 C 17.882812 -23.820312 16.941406 -24.109375 15.640625 -24.171875 L 13.890625 -24.03125 L 12.703125 -16.078125 L 16.171875 -15.875 C 17.304688 -16.351562 18.117188 -17.003906 18.609375 -17.828125 C 19.097656 -18.648438 19.34375 -19.691406 19.34375 -20.953125 Z M 19.34375 -20.953125 "/></g></g></g><g fill="#000628" fill-opacity="1"><g transform="translate(140.754543, 286.943275)"><g/></g></g><g fill="#000628" fill-opacity="1"><g transform="translate(148.717581, 286.943275)"><g><path d="M 29.484375 -22.515625 C 29.484375 -20.367188 28.9375 -18.367188 27.84375 -16.515625 C 26.757812 -14.671875 25.222656 -13.113281 23.234375 -11.84375 C 25.160156 -8.21875 26.992188 -5.015625 28.734375 -2.234375 L 28.484375 -1.1875 C 25.140625 -0.207031 21.898438 0.375 18.765625 0.5625 L 17.96875 -0.1875 L 17.296875 -2.140625 C 16.640625 -4.066406 15.867188 -6.40625 14.984375 -9.15625 L 11.75 -9.15625 L 10.953125 0 L 1.46875 0 L 3.078125 -9 L 5.265625 -30.671875 L 19.296875 -30.71875 C 22.453125 -30.71875 24.9375 -30 26.75 -28.5625 C 28.570312 -27.125 29.484375 -25.109375 29.484375 -22.515625 Z M 19.34375 -20.953125 C 19.34375 -22.023438 19.050781 -22.8125 18.46875 -23.3125 C 17.882812 -23.820312 16.941406 -24.109375 15.640625 -24.171875 L 13.890625 -24.03125 L 12.703125 -16.078125 L 16.171875 -15.875 C 17.304688 -16.351562 18.117188 -17.003906 18.609375 -17.828125 C 19.097656 -18.648438 19.34375 -19.691406 19.34375 -20.953125 Z M 19.34375 -20.953125 "/></g></g></g><g fill="#000628" fill-opacity="1"><g transform="translate(180.947935, 286.943275)"><g><path d="M 13.796875 -23.421875 L 13.171875 -19.0625 L 17.828125 -19.0625 L 22.796875 -19.203125 L 23.234375 -18.53125 L 21.8125 -11.609375 L 16.359375 -11.75 L 12.09375 -11.75 L 11.796875 -9.953125 L 11.5625 -7.25 L 16.125 -7.25 L 24.03125 -7.53125 L 24.46875 -6.875 L 23.046875 0 L 1.46875 0 L 3.03125 -9 L 5.265625 -30.671875 L 27.21875 -30.671875 L 27.640625 -30.015625 L 26.171875 -23.140625 L 18.671875 -23.421875 Z M 13.796875 -23.421875 "/></g></g></g><g fill="#000628" fill-opacity="1"><g transform="translate(208.912549, 286.943275)"><g><path d="M 30.15625 -10 L 29.296875 0 L 19.015625 0 L 12.375 -16.5 L 11.796875 -16.5 L 11.09375 -11.09375 L 10.09375 0 L 1.515625 0 L 3.078125 -9 L 5.265625 -30.671875 L 15.546875 -30.671875 L 22.234375 -14.171875 L 22.796875 -14.171875 L 24.515625 -30.34375 L 33.234375 -30.859375 Z M 30.15625 -10 "/></g></g></g><g fill="#000628" fill-opacity="1"><g transform="translate(244.934662, 286.943275)"><g><path d="M 26.546875 -30.015625 L 25.21875 -23.140625 L 19.015625 -23.421875 L 18.390625 -23.421875 L 16.5 -9.953125 L 15.640625 0 L 6.203125 0 L 7.828125 -9 L 9.34375 -23.421875 L 8.71875 -23.421875 L 2.375 -23.140625 L 1.890625 -23.796875 L 3.265625 -30.671875 L 26.125 -30.671875 Z M 26.546875 -30.015625 "/></g></g></g><g fill="#000628" fill-opacity="1"><g transform="translate(271.856521, 286.943275)"><g><path d="M 27.828125 0 L 18.25 0 L 18.0625 -5.078125 L 18.0625 -5.265625 L 13.375 -5.359375 L 9.4375 -5.171875 L 7.96875 0 L -1.28125 0 L 11.796875 -30.671875 L 23.234375 -30.671875 Z M 17.453125 -12.140625 L 16.59375 -22.234375 L 16.015625 -22.234375 L 12.09375 -12.140625 L 14.796875 -12.09375 Z M 17.453125 -12.140625 "/></g></g></g><g fill="#000628" fill-opacity="1"><g transform="translate(303.897266, 286.943275)"><g><path d="M 20.859375 -7.0625 L 19.484375 0 L 1.234375 0 L 2.796875 -9 L 4.984375 -30.671875 L 14.59375 -30.671875 L 11.5625 -9.953125 L 11.375 -7.734375 L 20.4375 -7.734375 Z M 20.859375 -7.0625 "/></g></g></g><g fill="#000000" fill-opacity="1"><g transform="translate(157.770172, 329.988949)"><g><path d="M 1.21875 -0.578125 L 3.125 -12.515625 C 3.15625 -12.734375 3.289062 -12.894531 3.53125 -13 C 3.769531 -13.101562 4.023438 -13.132812 4.296875 -13.09375 L 10.71875 -12.0625 C 10.96875 -12.03125 11.132812 -11.898438 11.21875 -11.671875 C 11.300781 -11.453125 11.320312 -11.203125 11.28125 -10.921875 C 11.226562 -10.617188 11.125 -10.375 10.96875 -10.1875 C 10.8125 -10.007812 10.613281 -9.9375 10.375 -9.96875 L 5.296875 -10.78125 L 4.71875 -7.109375 L 7.546875 -6.65625 C 7.773438 -6.625 7.9375 -6.503906 8.03125 -6.296875 C 8.125 -6.085938 8.148438 -5.851562 8.109375 -5.59375 C 8.066406 -5.34375 7.96875 -5.132812 7.8125 -4.96875 C 7.65625 -4.800781 7.460938 -4.734375 7.234375 -4.765625 L 4.40625 -5.21875 L 3.609375 -0.1875 C 3.566406 0.0390625 3.414062 0.203125 3.15625 0.296875 C 2.90625 0.390625 2.617188 0.414062 2.296875 0.375 C 1.972656 0.3125 1.703125 0.191406 1.484375 0.015625 C 1.265625 -0.148438 1.175781 -0.347656 1.21875 -0.578125 Z M 1.21875 -0.578125 "/></g></g></g><g fill="#000000" fill-opacity="1"><g transform="translate(170.289562, 331.859928)"><g><path d="M 1.171875 -0.671875 L 2.15625 -12.71875 C 2.175781 -12.96875 2.3125 -13.144531 2.5625 -13.25 C 2.8125 -13.351562 3.097656 -13.390625 3.421875 -13.359375 C 3.753906 -13.335938 4.03125 -13.253906 4.25 -13.109375 C 4.476562 -12.972656 4.582031 -12.78125 4.5625 -12.53125 L 3.6875 -1.84375 L 8.21875 -1.46875 C 8.4375 -1.445312 8.601562 -1.320312 8.71875 -1.09375 C 8.832031 -0.875 8.875 -0.617188 8.84375 -0.328125 C 8.820312 -0.046875 8.738281 0.191406 8.59375 0.390625 C 8.445312 0.585938 8.265625 0.675781 8.046875 0.65625 L 2.171875 0.171875 C 1.890625 0.148438 1.644531 0.0664062 1.4375 -0.078125 C 1.238281 -0.234375 1.148438 -0.429688 1.171875 -0.671875 Z M 1.171875 -0.671875 "/></g></g></g><g fill="#000000" fill-opacity="1"><g transform="translate(182.476605, 332.751891)"><g><path d="M 1.109375 -0.765625 L 1.15625 -12.84375 C 1.15625 -13.070312 1.257812 -13.253906 1.46875 -13.390625 C 1.6875 -13.535156 1.9375 -13.601562 2.21875 -13.59375 L 8.84375 -13.578125 C 9.09375 -13.578125 9.28125 -13.46875 9.40625 -13.25 C 9.539062 -13.039062 9.609375 -12.800781 9.609375 -12.53125 C 9.609375 -12.226562 9.539062 -11.972656 9.40625 -11.765625 C 9.269531 -11.554688 9.082031 -11.453125 8.84375 -11.453125 L 3.578125 -11.46875 L 3.5625 -7.75 L 6.390625 -7.734375 C 6.628906 -7.734375 6.816406 -7.632812 6.953125 -7.4375 C 7.085938 -7.25 7.15625 -7.023438 7.15625 -6.765625 C 7.15625 -6.523438 7.085938 -6.304688 6.953125 -6.109375 C 6.816406 -5.921875 6.625 -5.828125 6.375 -5.828125 L 3.546875 -5.84375 L 3.546875 -2.109375 L 8.8125 -2.09375 C 9.050781 -2.09375 9.234375 -1.984375 9.359375 -1.765625 C 9.492188 -1.554688 9.5625 -1.304688 9.5625 -1.015625 C 9.5625 -0.734375 9.492188 -0.488281 9.359375 -0.28125 C 9.234375 -0.0703125 9.046875 0.03125 8.796875 0.03125 L 2.171875 0.015625 C 1.890625 0.00390625 1.640625 -0.0664062 1.421875 -0.203125 C 1.210938 -0.335938 1.109375 -0.523438 1.109375 -0.765625 Z M 1.109375 -0.765625 "/></g></g></g><g fill="#000000" fill-opacity="1"><g transform="translate(195.566488, 332.673535)"><g><path d="M 1.046875 -0.84375 L 0.125 -12.890625 C 0.101562 -13.117188 0.191406 -13.3125 0.390625 -13.46875 C 0.597656 -13.625 0.84375 -13.710938 1.125 -13.734375 L 7.71875 -14.234375 C 7.96875 -14.253906 8.164062 -14.164062 8.3125 -13.96875 C 8.457031 -13.769531 8.539062 -13.535156 8.5625 -13.265625 C 8.59375 -12.960938 8.546875 -12.703125 8.421875 -12.484375 C 8.304688 -12.265625 8.128906 -12.144531 7.890625 -12.125 L 2.640625 -11.71875 L 2.921875 -8.015625 L 5.75 -8.234375 C 5.988281 -8.253906 6.179688 -8.171875 6.328125 -7.984375 C 6.484375 -7.804688 6.570312 -7.585938 6.59375 -7.328125 C 6.601562 -7.085938 6.550781 -6.863281 6.4375 -6.65625 C 6.320312 -6.457031 6.140625 -6.347656 5.890625 -6.328125 L 3.0625 -6.109375 L 3.359375 -2.390625 L 8.609375 -2.796875 C 8.847656 -2.816406 9.039062 -2.722656 9.1875 -2.515625 C 9.34375 -2.316406 9.429688 -2.070312 9.453125 -1.78125 C 9.472656 -1.5 9.425781 -1.25 9.3125 -1.03125 C 9.195312 -0.8125 9.015625 -0.691406 8.765625 -0.671875 L 2.171875 -0.171875 C 1.890625 -0.148438 1.632812 -0.195312 1.40625 -0.3125 C 1.1875 -0.425781 1.066406 -0.601562 1.046875 -0.84375 Z M 1.046875 -0.84375 "/></g></g></g><g fill="#000000" fill-opacity="1"><g transform="translate(208.606637, 331.538645)"><g><path d="M -1.75 -12.40625 C -1.789062 -12.6875 -1.765625 -12.941406 -1.671875 -13.171875 C -1.578125 -13.410156 -1.410156 -13.550781 -1.171875 -13.59375 L 6.609375 -14.828125 C 6.859375 -14.867188 7.0625 -14.789062 7.21875 -14.59375 C 7.382812 -14.40625 7.488281 -14.171875 7.53125 -13.890625 C 7.582031 -13.585938 7.554688 -13.316406 7.453125 -13.078125 C 7.359375 -12.847656 7.191406 -12.710938 6.953125 -12.671875 L 4.265625 -12.25 L 5.9375 -1.71875 C 5.976562 -1.488281 5.890625 -1.285156 5.671875 -1.109375 C 5.460938 -0.929688 5.195312 -0.820312 4.875 -0.78125 C 4.53125 -0.71875 4.234375 -0.734375 3.984375 -0.828125 C 3.734375 -0.929688 3.585938 -1.097656 3.546875 -1.328125 L 1.875 -11.859375 L -0.828125 -11.4375 C -1.054688 -11.394531 -1.253906 -11.46875 -1.421875 -11.65625 C -1.585938 -11.84375 -1.695312 -12.09375 -1.75 -12.40625 Z M -1.75 -12.40625 "/></g></g></g></svg>