<svg xmlns="http://www.w3.org/2000/svg" xmlns:xlink="http://www.w3.org/1999/xlink" width="500" zoomAndPan="magnify" viewBox="0 0 375 374.999991" height="500" preserveAspectRatio="xMidYMid meet" version="1.0"><defs><g/><clipPath id="a4d08e2d4b"><path d="M 110 158 L 245 158 L 245 299 L 110 299 Z M 110 158 " clip-rule="nonzero"/></clipPath><clipPath id="7dbf98c8bb"><path d="M 222.703125 157.605469 L 245.550781 179.292969 L 124.726562 306.578125 L 101.878906 284.894531 Z M 222.703125 157.605469 " clip-rule="nonzero"/></clipPath><clipPath id="8d99b9a30d"><path d="M 222.703125 157.605469 L 245.550781 179.292969 L 124.726562 306.578125 L 101.878906 284.894531 Z M 222.703125 157.605469 " clip-rule="nonzero"/></clipPath><clipPath id="167ae1e8b4"><path d="M 159 177 L 276 177 L 276 299 L 159 299 Z M 159 177 " clip-rule="nonzero"/></clipPath><clipPath id="f8e4025086"><path d="M 145.511719 198.195312 L 181.941406 163.585938 L 290.9375 278.316406 L 254.507812 312.925781 Z M 145.511719 198.195312 " clip-rule="nonzero"/></clipPath><clipPath id="f8d87d5aba"><path d="M 145.511719 198.195312 L 181.941406 163.585938 L 290.9375 278.316406 L 254.507812 312.925781 Z M 145.511719 198.195312 " clip-rule="nonzero"/></clipPath><clipPath id="4cc273b6d7"><path d="M 66 76 L 183 76 L 183 197 L 66 197 Z M 66 76 " clip-rule="nonzero"/></clipPath><clipPath id="a79af0642b"><path d="M 51.941406 96.746094 L 88.371094 62.136719 L 197.371094 176.867188 L 160.9375 211.476562 Z M 51.941406 96.746094 " clip-rule="nonzero"/></clipPath><clipPath id="4f3c00596d"><path d="M 51.941406 96.746094 L 88.371094 62.136719 L 197.371094 176.867188 L 160.9375 211.476562 Z M 51.941406 96.746094 " clip-rule="nonzero"/></clipPath><clipPath id="8f384adb38"><path d="M 187 76 L 323 76 L 323 217 L 187 217 Z M 187 76 " clip-rule="nonzero"/></clipPath><clipPath id="072487d4c2"><path d="M 300.160156 75.257812 L 323.007812 96.941406 L 202.183594 224.230469 L 179.335938 202.542969 Z M 300.160156 75.257812 " clip-rule="nonzero"/></clipPath><clipPath id="5a28139ab9"><path d="M 300.160156 75.257812 L 323.007812 96.941406 L 202.183594 224.230469 L 179.335938 202.542969 Z M 300.160156 75.257812 " clip-rule="nonzero"/></clipPath><clipPath id="834a8148f0"><path d="M 118.417969 136.777344 L 266.8125 136.777344 L 266.8125 285.171875 L 118.417969 285.171875 Z M 118.417969 136.777344 " clip-rule="nonzero"/></clipPath><clipPath id="af94d6309b"><path d="M 192.613281 136.777344 C 151.636719 136.777344 118.417969 169.996094 118.417969 210.972656 C 118.417969 251.953125 151.636719 285.171875 192.613281 285.171875 C 233.59375 285.171875 266.8125 251.953125 266.8125 210.972656 C 266.8125 169.996094 233.59375 136.777344 192.613281 136.777344 Z M 192.613281 136.777344 " clip-rule="nonzero"/></clipPath><clipPath id="ffc29c34d1"><path d="M 97.835938 116.195312 L 287.585938 116.195312 L 287.585938 305.945312 L 97.835938 305.945312 Z M 97.835938 116.195312 " clip-rule="nonzero"/></clipPath><clipPath id="87895269fc"><path d="M 140 137 L 245 137 L 245 207.277344 L 140 207.277344 Z M 140 137 " clip-rule="nonzero"/></clipPath><clipPath id="8641bb6a72"><path d="M 91.546875 211 L 294.046875 211 L 294.046875 268.722656 L 91.546875 268.722656 Z M 91.546875 211 " clip-rule="nonzero"/></clipPath><clipPath id="9da394037e"><path d="M 139.773438 260.242188 L 151.023438 260.242188 L 151.023438 272.242188 L 139.773438 272.242188 Z M 139.773438 260.242188 " clip-rule="nonzero"/></clipPath><clipPath id="a54a4c52a7"><path d="M 233.839844 260.242188 L 245.089844 260.242188 L 245.089844 272.242188 L 233.839844 272.242188 Z M 233.839844 260.242188 " clip-rule="nonzero"/></clipPath></defs><g clip-path="url(#a4d08e2d4b)"><g clip-path="url(#7dbf98c8bb)"><g clip-path="url(#8d99b9a30d)"><path fill="#000000" d="M 181.089844 216.335938 C 184.464844 212.777344 185.351562 207.847656 183.671875 203.996094 C 182.726562 201.824219 183.285156 199.132812 185.082031 197.238281 L 221.421875 158.957031 C 222.125 158.214844 223.351562 158.230469 224.152344 158.992188 C 224.152344 158.992188 224.152344 158.996094 224.152344 158.996094 C 224.957031 159.757812 225.03125 160.976562 224.328125 161.71875 L 196.5 191.035156 C 196.027344 191.53125 195.773438 192.195312 195.792969 192.882812 C 195.808594 193.566406 196.097656 194.210938 196.589844 194.683594 C 196.59375 194.683594 196.59375 194.683594 196.59375 194.683594 C 197.089844 195.152344 197.75 195.410156 198.433594 195.390625 C 199.117188 195.371094 199.765625 195.082031 200.238281 194.585938 C 206.632812 187.851562 228.066406 165.269531 228.066406 165.269531 C 228.773438 164.527344 229.996094 164.539062 230.800781 165.300781 C 231.601562 166.0625 231.679688 167.285156 230.976562 168.027344 L 203.148438 197.34375 C 202.675781 197.84375 202.417969 198.503906 202.4375 199.1875 C 202.453125 199.875 202.742188 200.519531 203.238281 200.992188 C 203.734375 201.460938 204.394531 201.71875 205.082031 201.699219 C 205.765625 201.679688 206.414062 201.390625 206.886719 200.890625 C 213.277344 194.160156 234.710938 171.578125 234.710938 171.578125 C 235.417969 170.832031 236.640625 170.847656 237.445312 171.609375 C 238.25 172.375 238.324219 173.59375 237.621094 174.335938 L 209.792969 203.652344 C 209.320312 204.152344 209.066406 204.8125 209.082031 205.5 C 209.097656 206.179688 209.390625 206.828125 209.882812 207.300781 C 210.378906 207.773438 211.042969 208.027344 211.726562 208.007812 C 212.410156 207.988281 213.058594 207.699219 213.53125 207.199219 C 219.921875 200.464844 241.359375 177.882812 241.359375 177.882812 C 242.0625 177.140625 243.289062 177.15625 244.089844 177.917969 C 244.089844 177.917969 244.089844 177.917969 244.09375 177.921875 C 244.894531 178.683594 244.972656 179.902344 244.265625 180.644531 L 210.25 216.480469 L 207.921875 218.933594 C 206.125 220.828125 203.464844 221.527344 201.25 220.695312 C 197.320312 219.222656 192.449219 220.363281 189.074219 223.917969 L 139.765625 278.871094 C 139.765625 278.871094 130.601562 289.445312 124.691406 296.257812 C 123.417969 297.730469 121.597656 298.617188 119.65625 298.714844 C 117.714844 298.8125 115.820312 298.109375 114.414062 296.773438 C 113.683594 296.082031 112.941406 295.375 112.210938 294.683594 C 110.804688 293.347656 110.003906 291.492188 110 289.546875 C 109.996094 287.601562 110.785156 285.738281 112.191406 284.386719 C 118.695312 278.136719 128.773438 268.4375 128.773438 268.4375 Z M 181.089844 216.335938 " fill-opacity="1" fill-rule="evenodd"/></g></g></g><g clip-path="url(#167ae1e8b4)"><g clip-path="url(#f8e4025086)"><g clip-path="url(#f8d87d5aba)"><path fill="#000000" d="M 203.394531 236.097656 C 195.171875 240.171875 185.105469 239.867188 175.351562 229.601562 C 162.296875 215.863281 154.714844 189.449219 163.726562 180.886719 C 172.742188 172.324219 198.726562 181.253906 211.78125 194.992188 C 221.523438 205.246094 221.324219 215.300781 216.851562 223.304688 C 216.222656 226.421875 217.199219 229.964844 219.746094 232.644531 L 258.527344 271.242188 C 258.527344 271.242188 267.671875 279.832031 273.605469 285.402344 C 274.898438 286.613281 275.636719 288.300781 275.644531 290.066406 C 275.652344 291.832031 274.933594 293.519531 273.65625 294.734375 L 271.792969 296.5 C 270.515625 297.714844 268.792969 298.347656 267.03125 298.246094 C 265.269531 298.144531 263.621094 297.324219 262.476562 295.972656 C 257.21875 289.757812 249.117188 280.183594 249.117188 280.183594 L 212.554688 239.476562 C 210.015625 236.800781 206.535156 235.640625 203.394531 236.097656 Z M 203.394531 236.097656 " fill-opacity="1" fill-rule="evenodd"/></g></g></g><g clip-path="url(#4cc273b6d7)"><g clip-path="url(#a79af0642b)"><g clip-path="url(#4f3c00596d)"><path fill="#000000" d="M 109.824219 134.652344 C 101.601562 138.726562 91.535156 138.417969 81.78125 128.152344 C 68.726562 114.414062 61.144531 88.003906 70.15625 79.441406 C 79.171875 70.878906 105.15625 79.804688 118.210938 93.542969 C 127.953125 103.800781 127.753906 113.855469 123.28125 121.855469 C 122.652344 124.972656 123.628906 128.515625 126.175781 131.199219 L 164.957031 169.796875 C 164.957031 169.796875 174.101562 178.382812 180.039062 183.957031 C 181.328125 185.167969 182.066406 186.851562 182.074219 188.621094 C 182.082031 190.382812 181.363281 192.070312 180.085938 193.285156 L 178.222656 195.054688 C 176.945312 196.265625 175.222656 196.898438 173.460938 196.800781 C 171.699219 196.699219 170.050781 195.875 168.90625 194.527344 C 163.648438 188.3125 155.546875 178.738281 155.546875 178.738281 L 118.984375 138.027344 C 116.445312 135.355469 112.964844 134.191406 109.824219 134.652344 Z M 109.824219 134.652344 " fill-opacity="1" fill-rule="evenodd"/></g></g></g><g clip-path="url(#8f384adb38)"><g clip-path="url(#072487d4c2)"><g clip-path="url(#5a28139ab9)"><path fill="#000000" d="M 258.542969 133.984375 C 261.921875 130.425781 262.808594 125.5 261.128906 121.644531 C 260.183594 119.476562 260.742188 116.78125 262.539062 114.886719 L 298.875 76.609375 C 299.582031 75.867188 300.804688 75.878906 301.609375 76.640625 C 301.609375 76.640625 301.609375 76.644531 301.609375 76.644531 C 302.414062 77.40625 302.488281 78.625 301.785156 79.367188 L 273.957031 108.683594 C 273.484375 109.183594 273.230469 109.847656 273.246094 110.53125 C 273.265625 111.214844 273.554688 111.863281 274.046875 112.332031 C 274.050781 112.332031 274.050781 112.332031 274.050781 112.332031 C 274.542969 112.804688 275.207031 113.058594 275.890625 113.039062 C 276.574219 113.019531 277.222656 112.730469 277.695312 112.234375 C 284.089844 105.5 305.523438 82.917969 305.523438 82.917969 C 306.230469 82.175781 307.453125 82.1875 308.257812 82.953125 C 309.058594 83.714844 309.136719 84.9375 308.433594 85.679688 L 280.605469 114.992188 C 280.132812 115.492188 279.875 116.152344 279.894531 116.839844 C 279.910156 117.523438 280.199219 118.167969 280.695312 118.640625 C 281.191406 119.109375 281.851562 119.367188 282.539062 119.347656 C 283.222656 119.328125 283.867188 119.039062 284.34375 118.542969 C 290.734375 111.808594 312.167969 89.226562 312.167969 89.226562 C 312.875 88.484375 314.097656 88.5 314.902344 89.261719 C 315.707031 90.023438 315.78125 91.242188 315.078125 91.984375 L 287.25 121.300781 C 286.777344 121.800781 286.523438 122.464844 286.539062 123.148438 C 286.554688 123.832031 286.84375 124.480469 287.339844 124.949219 C 287.835938 125.421875 288.5 125.675781 289.183594 125.65625 C 289.867188 125.636719 290.515625 125.347656 290.988281 124.847656 C 297.378906 118.117188 318.816406 95.535156 318.816406 95.535156 C 319.519531 94.792969 320.746094 94.804688 321.546875 95.566406 C 321.546875 95.566406 321.546875 95.566406 321.550781 95.570312 C 322.351562 96.332031 322.425781 97.550781 321.722656 98.292969 L 287.707031 134.128906 L 285.378906 136.582031 C 283.578125 138.476562 280.921875 139.179688 278.707031 138.34375 C 274.773438 136.875 269.90625 138.011719 266.53125 141.566406 L 217.222656 196.519531 C 217.222656 196.519531 208.058594 207.09375 202.148438 213.90625 C 200.875 215.378906 199.054688 216.265625 197.113281 216.363281 C 195.171875 216.460938 193.277344 215.761719 191.871094 214.421875 C 191.140625 213.730469 190.398438 213.023438 189.667969 212.335938 C 188.261719 210.996094 187.460938 209.140625 187.457031 207.199219 C 187.453125 205.253906 188.242188 203.390625 189.648438 202.039062 C 196.152344 195.785156 206.230469 186.089844 206.230469 186.089844 Z M 258.542969 133.984375 " fill-opacity="1" fill-rule="evenodd"/></g></g></g><g clip-path="url(#834a8148f0)"><g clip-path="url(#af94d6309b)"><path fill="#000000" d="M 118.417969 136.777344 L 266.8125 136.777344 L 266.8125 285.171875 L 118.417969 285.171875 Z M 118.417969 136.777344 " fill-opacity="1" fill-rule="nonzero"/></g></g><g clip-path="url(#ffc29c34d1)"><path fill="#000000" d="M 192.722656 116.179688 C 140.359375 116.179688 97.847656 158.691406 97.847656 211.054688 C 97.847656 263.417969 140.359375 305.929688 192.722656 305.929688 C 245.085938 305.929688 287.597656 263.417969 287.597656 211.054688 C 287.597656 158.691406 245.085938 116.179688 192.722656 116.179688 Z M 192.722656 123.984375 C 240.773438 123.984375 279.792969 163 279.792969 211.054688 C 279.792969 259.109375 240.773438 298.125 192.722656 298.125 C 144.667969 298.125 105.652344 259.109375 105.652344 211.054688 C 105.652344 163 144.667969 123.984375 192.722656 123.984375 Z M 192.722656 123.984375 " fill-opacity="1" fill-rule="evenodd"/></g><path fill="#fffc10" d="M 192.722656 125.683594 C 145.605469 125.683594 107.351562 163.9375 107.351562 211.054688 C 107.351562 258.175781 145.605469 296.425781 192.722656 296.425781 C 239.839844 296.425781 278.09375 258.175781 278.09375 211.054688 C 278.09375 163.9375 239.839844 125.683594 192.722656 125.683594 Z M 192.722656 147.660156 C 227.710938 147.660156 256.121094 176.066406 256.121094 211.054688 C 256.121094 246.046875 227.710938 274.453125 192.722656 274.453125 C 157.734375 274.453125 129.328125 246.046875 129.328125 211.054688 C 129.328125 176.066406 157.734375 147.660156 192.722656 147.660156 Z M 192.722656 147.660156 " fill-opacity="1" fill-rule="evenodd"/><path fill="#000000" d="M 245.148438 246.699219 L 260.421875 263.050781 C 244.808594 283.339844 220.28125 296.425781 192.722656 296.425781 C 165.347656 296.425781 140.964844 283.515625 125.34375 263.457031 L 140.597656 247.125 C 152.046875 263.632812 171.132812 274.453125 192.722656 274.453125 C 214.5 274.453125 233.726562 263.449219 245.148438 246.699219 Z M 245.148438 246.699219 " fill-opacity="1" fill-rule="evenodd"/><path fill="#fcb036" d="M 192.726562 123.503906 C 144.402344 123.503906 105.175781 162.734375 105.175781 211.058594 C 105.175781 259.378906 144.402344 298.609375 192.726562 298.609375 C 241.050781 298.609375 280.277344 259.378906 280.277344 211.058594 C 280.277344 162.734375 241.050781 123.503906 192.726562 123.503906 Z M 192.726562 126.160156 C 239.582031 126.160156 277.621094 164.203125 277.621094 211.058594 C 277.621094 257.914062 239.582031 295.953125 192.726562 295.953125 C 145.871094 295.953125 107.832031 257.914062 107.832031 211.058594 C 107.832031 164.203125 145.871094 126.160156 192.726562 126.160156 Z M 192.726562 126.160156 " fill-opacity="1" fill-rule="evenodd"/><g clip-path="url(#87895269fc)"><path fill="#fffff7" d="M 165.917969 152.335938 C 165.96875 152.117188 166.027344 151.902344 166.085938 151.6875 C 166.359375 150.699219 166.722656 149.769531 167.140625 148.886719 C 168.917969 145.136719 171.828125 142.320312 175.351562 140.394531 C 178.730469 138.550781 182.683594 137.539062 186.738281 137.289062 C 192.710938 136.925781 198.914062 138.238281 203.867188 141.042969 C 207.480469 143.089844 210.425781 145.925781 212.167969 149.464844 C 212.347656 149.835938 212.53125 150.199219 212.714844 150.546875 C 220.882812 147.628906 227.78125 148.375 233.023438 151.203125 C 241.089844 155.554688 245.261719 164.890625 244.089844 173.738281 C 242.820312 183.347656 235.285156 192.445312 219.546875 193.792969 L 219.546875 206.21875 C 219.546875 206.523438 219.382812 206.808594 219.117188 206.960938 C 218.851562 207.117188 218.523438 207.121094 218.253906 206.96875 C 201.089844 197.277344 183.253906 197.234375 164.738281 206.980469 C 164.472656 207.121094 164.148438 207.113281 163.886719 206.957031 C 163.628906 206.800781 163.46875 206.519531 163.46875 206.21875 L 163.46875 196.113281 C 147.246094 195.453125 139.746094 184.324219 140.261719 173.484375 C 140.78125 162.535156 149.511719 151.773438 165.917969 152.335938 Z M 165.917969 152.335938 " fill-opacity="1" fill-rule="evenodd"/><path fill="#000000" d="M 165.828125 152.222656 C 165.875 152.03125 165.921875 151.84375 165.976562 151.65625 C 166.253906 150.664062 166.617188 149.726562 167.035156 148.839844 C 168.824219 145.066406 171.753906 142.230469 175.296875 140.296875 C 178.691406 138.445312 182.660156 137.425781 186.730469 137.175781 C 192.726562 136.8125 198.953125 138.132812 203.925781 140.945312 C 207.558594 143.003906 210.519531 145.859375 212.273438 149.417969 C 212.433594 149.753906 212.601562 150.085938 212.773438 150.410156 C 220.933594 147.515625 227.832031 148.273438 233.078125 151.101562 C 241.1875 155.480469 245.382812 164.863281 244.207031 173.757812 C 242.929688 183.386719 235.402344 192.515625 219.664062 193.902344 L 219.664062 206.21875 C 219.664062 206.566406 219.480469 206.890625 219.175781 207.066406 C 218.875 207.238281 218.503906 207.242188 218.199219 207.070312 C 201.070312 197.402344 183.273438 197.359375 164.792969 207.085938 C 164.488281 207.246094 164.125 207.234375 163.828125 207.058594 C 163.535156 206.878906 163.355469 206.5625 163.355469 206.21875 L 163.355469 196.226562 C 147.125 195.515625 139.628906 184.347656 140.148438 173.484375 C 140.667969 162.5 149.40625 151.699219 165.828125 152.222656 Z M 183.300781 181.140625 C 177.328125 182.136719 171.332031 184.191406 165.316406 187.289062 L 165.316406 204.613281 C 183.40625 195.558594 200.863281 195.597656 217.703125 204.566406 L 217.703125 188.566406 C 204.070312 195.324219 191.085938 190.847656 183.445312 181.289062 C 183.394531 181.246094 183.34375 181.195312 183.300781 181.140625 Z M 225.933594 159.800781 C 222.976562 160.566406 220.414062 160.265625 218.144531 159.117188 C 217.097656 158.589844 216.121094 157.878906 215.210938 156.996094 C 213.460938 155.308594 211.960938 152.996094 210.582031 150.25 C 208.976562 147.035156 206.261719 144.484375 202.96875 142.632812 C 198.300781 140.011719 192.46875 138.792969 186.851562 139.132812 C 183.070312 139.363281 179.386719 140.300781 176.226562 142 C 173.007812 143.726562 170.332031 146.238281 168.65625 149.621094 C 168.261719 150.417969 167.925781 151.265625 167.636719 152.15625 C 167.363281 153.003906 167.128906 153.886719 166.960938 154.824219 C 166.691406 156.257812 166.667969 158.363281 166.824219 160.417969 C 166.992188 162.609375 167.355469 164.742188 167.882812 165.953125 C 167.960938 166.117188 167.890625 166.316406 167.722656 166.398438 C 167.554688 166.480469 167.355469 166.410156 167.273438 166.242188 C 166.621094 165.023438 166.046875 162.828125 165.695312 160.546875 C 165.359375 158.378906 165.238281 156.140625 165.410156 154.59375 C 165.425781 154.453125 165.445312 154.308594 165.464844 154.167969 C 150.585938 153.832031 142.585938 163.5625 142.105469 173.574219 C 141.632812 183.496094 148.574219 193.574219 163.355469 194.269531 L 163.355469 191.957031 C 162.222656 192.199219 161.167969 192.292969 160.1875 192.195312 C 159.367188 192.113281 158.597656 191.917969 157.890625 191.597656 C 157.007812 191.199219 156.21875 190.636719 155.527344 189.90625 C 154.921875 189.265625 154.398438 188.515625 153.9375 187.636719 C 153.820312 187.457031 153.871094 187.214844 154.050781 187.09375 C 154.230469 186.972656 154.472656 187.019531 154.597656 187.195312 C 155.054688 187.734375 155.535156 188.183594 156.035156 188.585938 C 156.8125 189.207031 157.644531 189.621094 158.539062 189.894531 C 159.113281 190.070312 159.710938 190.167969 160.347656 190.207031 C 161.21875 190.257812 162.160156 190.199219 163.175781 189.96875 L 163.355469 189.925781 L 163.355469 187.71875 L 162.777344 187.589844 L 162.769531 187.589844 C 160.765625 187.066406 159.03125 186.265625 157.589844 185.160156 C 156.566406 184.371094 155.679688 183.4375 154.953125 182.359375 C 154.113281 181.109375 153.476562 179.675781 153.035156 178.066406 C 152.65625 176.6875 152.429688 175.183594 152.332031 173.546875 C 152.304688 173.335938 152.460938 173.140625 152.675781 173.113281 C 152.890625 173.085938 153.089844 173.234375 153.117188 173.449219 C 153.351562 174.660156 153.664062 175.777344 154.03125 176.824219 C 154.636719 178.546875 155.441406 180.023438 156.4375 181.28125 C 157.125 182.15625 157.90625 182.914062 158.796875 183.566406 C 160.0625 184.496094 161.539062 185.21875 163.277344 185.679688 L 163.890625 185.824219 C 169.972656 182.632812 176.035156 180.480469 182.070312 179.371094 C 181.847656 179.011719 181.621094 178.621094 181.402344 178.199219 C 180.917969 177.269531 180.453125 176.195312 180.082031 174.984375 C 179.851562 174.222656 179.644531 173.410156 179.519531 172.546875 C 179.441406 172.007812 179.371094 171.457031 179.371094 170.882812 C 179.371094 169.996094 179.5 169.105469 179.675781 168.144531 C 179.683594 167.960938 179.839844 167.816406 180.027344 167.824219 C 180.210938 167.828125 180.359375 167.980469 180.359375 168.164062 C 180.480469 169.078125 180.695312 169.898438 180.878906 170.71875 C 180.992188 171.234375 181.09375 171.730469 181.210938 172.214844 C 181.402344 172.988281 181.617188 173.71875 181.859375 174.398438 C 182.246094 175.480469 182.699219 176.4375 183.152344 177.273438 C 183.695312 178.277344 184.238281 179.105469 184.699219 179.738281 C 184.742188 179.773438 184.78125 179.820312 184.820312 179.867188 C 191.972656 188.984375 204.3125 193.222656 217.226562 186.613281 C 217.25 186.597656 217.277344 186.585938 217.304688 186.574219 C 217.320312 186.566406 217.335938 186.558594 217.347656 186.550781 C 217.589844 186.425781 217.832031 186.296875 218.074219 186.164062 C 218.945312 185.660156 220.140625 184.832031 221.386719 183.542969 C 222.101562 182.804688 222.832031 181.917969 223.539062 180.851562 C 224.261719 179.757812 224.953125 178.480469 225.582031 176.984375 C 226.109375 175.722656 226.617188 174.339844 227.011719 172.75 C 227.050781 172.550781 227.238281 172.417969 227.4375 172.453125 C 227.636719 172.484375 227.773438 172.675781 227.742188 172.871094 C 227.589844 174.570312 227.328125 176.089844 226.941406 177.453125 C 226.464844 179.144531 225.816406 180.585938 225.109375 181.816406 C 224.402344 183.050781 223.613281 184.070312 222.832031 184.90625 C 221.707031 186.113281 220.585938 186.945312 219.664062 187.515625 L 219.664062 189.117188 C 220.769531 188.886719 221.71875 188.539062 222.554688 188.140625 C 223.207031 187.835938 223.792969 187.511719 224.304688 187.109375 C 225.234375 186.382812 225.957031 185.515625 226.449219 184.398438 C 226.519531 184.195312 226.738281 184.082031 226.945312 184.144531 C 227.152344 184.210938 227.269531 184.425781 227.207031 184.632812 C 227.050781 185.503906 226.769531 186.292969 226.363281 187.027344 C 225.945312 187.789062 225.382812 188.460938 224.679688 189.050781 C 224.167969 189.484375 223.574219 189.859375 222.902344 190.175781 C 222.050781 190.574219 221.066406 190.859375 219.972656 191.074219 L 219.664062 191.128906 L 219.664062 191.933594 C 234.070312 190.601562 241.085938 182.359375 242.257812 173.5 C 243.332031 165.386719 239.539062 156.816406 232.144531 152.824219 C 227.378906 150.253906 221.132812 149.605469 213.75 152.140625 C 214.59375 153.523438 215.5 154.734375 216.472656 155.742188 C 217.238281 156.542969 218.039062 157.21875 218.910156 157.75 C 220.84375 158.933594 223.078125 159.425781 225.769531 159.007812 C 225.988281 158.964844 226.199219 159.105469 226.246094 159.320312 C 226.289062 159.539062 226.148438 159.753906 225.933594 159.800781 Z M 225.933594 159.800781 " fill-opacity="1" fill-rule="evenodd"/></g><g clip-path="url(#8641bb6a72)"><path fill="#ffffff" d="M 262.070312 215.378906 C 243.789062 212.597656 219.183594 211.066406 192.789062 211.066406 C 166.394531 211.066406 141.789062 212.597656 123.503906 215.378906 C 102.296875 218.601562 91.546875 223.144531 91.546875 228.878906 L 91.546875 260.539062 C 91.546875 263.105469 93.214844 265.234375 96.371094 266.703125 C 99.046875 267.945312 102.636719 268.628906 106.476562 268.628906 C 113.644531 268.628906 121.355469 266.113281 121.40625 260.59375 C 121.40625 260.574219 121.40625 260.558594 121.40625 260.539062 C 121.40625 260.265625 121.375 260 121.320312 259.742188 C 120.800781 254.90625 120.570312 249.570312 121.085938 248.757812 C 121.167969 248.714844 121.230469 248.652344 121.28125 248.582031 C 139.03125 245.65625 163.941406 243.925781 192.789062 243.925781 C 219.125 243.925781 243.664062 245.453125 261.890625 248.222656 C 262.714844 248.347656 263.515625 248.476562 264.308594 248.605469 C 264.359375 248.667969 264.417969 248.71875 264.488281 248.757812 C 265.003906 249.570312 264.773438 254.90625 264.253906 259.742188 C 264.199219 260 264.167969 260.265625 264.167969 260.539062 C 264.167969 263.105469 265.835938 265.234375 268.992188 266.703125 C 271.667969 267.945312 275.257812 268.628906 279.097656 268.628906 C 286.289062 268.628906 294.027344 266.097656 294.027344 260.539062 L 294.027344 228.878906 C 294.027344 223.144531 283.277344 218.601562 262.070312 215.378906 " fill-opacity="1" fill-rule="nonzero"/><path fill="#000000" d="M 292.835938 230.453125 C 291.34375 228.371094 287.464844 225.425781 277.476562 223.179688 C 277.371094 223.15625 277.261719 223.222656 277.234375 223.332031 C 277.210938 223.441406 277.277344 223.550781 277.390625 223.574219 C 288.25 226.019531 291.726562 229.300781 292.835938 231.269531 L 292.835938 232.746094 C 291.203125 230.539062 286.800781 227.355469 275.078125 224.714844 C 274.96875 224.691406 274.859375 224.761719 274.835938 224.871094 C 274.808594 224.980469 274.878906 225.085938 274.988281 225.113281 C 287.691406 227.972656 291.628906 231.46875 292.835938 233.546875 L 292.835938 234.519531 C 291.34375 232.4375 287.464844 229.496094 277.476562 227.246094 C 277.371094 227.222656 277.261719 227.292969 277.234375 227.402344 C 277.210938 227.507812 277.277344 227.617188 277.390625 227.644531 C 288.25 230.089844 291.726562 233.371094 292.835938 235.335938 L 292.835938 236.8125 C 291.203125 234.605469 286.800781 231.421875 275.078125 228.78125 C 274.96875 228.757812 274.859375 228.828125 274.835938 228.9375 C 274.808594 229.046875 274.878906 229.15625 274.988281 229.179688 C 287.691406 232.039062 291.628906 235.539062 292.835938 237.613281 L 292.835938 238.585938 C 291.34375 236.507812 287.464844 233.5625 277.476562 231.3125 C 277.371094 231.289062 277.261719 231.359375 277.234375 231.46875 C 277.210938 231.578125 277.277344 231.6875 277.390625 231.710938 C 288.25 234.15625 291.726562 237.4375 292.835938 239.402344 L 292.835938 240.882812 C 291.203125 238.671875 286.800781 235.492188 275.078125 232.851562 C 274.96875 232.824219 274.859375 232.894531 274.835938 233.003906 C 274.808594 233.113281 274.878906 233.222656 274.988281 233.25 C 287.691406 236.105469 291.628906 239.605469 292.835938 241.683594 L 292.835938 242.65625 C 291.34375 240.574219 287.464844 237.628906 277.476562 235.382812 C 277.371094 235.359375 277.261719 235.425781 277.234375 235.535156 C 277.210938 235.644531 277.277344 235.753906 277.390625 235.78125 C 288.25 238.226562 291.726562 241.507812 292.835938 243.472656 L 292.835938 244.949219 C 291.203125 242.742188 286.800781 239.558594 275.078125 236.917969 C 274.96875 236.894531 274.859375 236.964844 274.835938 237.074219 C 274.808594 237.183594 274.878906 237.289062 274.988281 237.316406 C 287.691406 240.175781 291.628906 243.671875 292.835938 245.75 L 292.835938 246.722656 C 291.34375 244.644531 287.464844 241.699219 277.476562 239.449219 C 277.371094 239.425781 277.261719 239.496094 277.234375 239.605469 C 277.210938 239.714844 277.277344 239.820312 277.390625 239.847656 C 288.25 242.292969 291.726562 245.574219 292.835938 247.539062 L 292.835938 249.015625 C 291.203125 246.808594 286.800781 243.625 275.078125 240.988281 C 274.96875 240.960938 274.859375 241.03125 274.835938 241.140625 C 274.808594 241.25 274.878906 241.359375 274.988281 241.382812 C 287.691406 244.242188 291.628906 247.742188 292.835938 249.816406 L 292.835938 250.789062 C 291.34375 248.710938 287.464844 245.765625 277.476562 243.519531 C 277.371094 243.492188 277.261719 243.5625 277.234375 243.671875 C 277.210938 243.78125 277.277344 243.890625 277.390625 243.914062 C 288.25 246.359375 291.726562 249.640625 292.835938 251.609375 L 292.835938 253.085938 C 291.203125 250.875 286.800781 247.695312 275.078125 245.054688 C 274.96875 245.03125 274.859375 245.097656 274.835938 245.207031 C 274.808594 245.316406 274.878906 245.425781 274.988281 245.453125 C 287.691406 248.308594 291.628906 251.808594 292.835938 253.886719 L 292.835938 254.859375 C 291.34375 252.777344 287.464844 249.835938 277.476562 247.585938 C 277.371094 247.558594 277.261719 247.628906 277.234375 247.738281 C 277.210938 247.847656 277.277344 247.957031 277.390625 247.984375 C 288.25 250.429688 291.726562 253.710938 292.835938 255.675781 L 292.835938 257.363281 C 289.5 253.109375 279.191406 249.644531 262.070312 247.039062 C 243.789062 244.261719 219.183594 242.730469 192.789062 242.730469 C 166.394531 242.730469 141.789062 244.261719 123.503906 247.039062 C 106.382812 249.644531 96.074219 253.109375 92.738281 257.363281 L 92.738281 255.882812 C 93.714844 253.949219 97.039062 250.515625 108.296875 247.984375 C 108.40625 247.957031 108.476562 247.847656 108.449219 247.738281 C 108.425781 247.628906 108.320312 247.558594 108.207031 247.585938 C 97.960938 249.894531 94.148438 252.929688 92.738281 255.019531 L 92.738281 254.089844 C 93.800781 252.042969 97.570312 248.40625 110.699219 245.453125 C 110.808594 245.425781 110.875 245.316406 110.851562 245.207031 C 110.828125 245.097656 110.71875 245.027344 110.609375 245.054688 C 98.605469 247.757812 94.277344 251.027344 92.738281 253.242188 L 92.738281 251.816406 C 93.714844 249.882812 97.039062 246.449219 108.296875 243.914062 C 108.40625 243.890625 108.476562 243.78125 108.449219 243.671875 C 108.425781 243.5625 108.320312 243.492188 108.207031 243.519531 C 97.960938 245.824219 94.148438 248.863281 92.738281 250.953125 L 92.738281 250.023438 C 93.800781 247.976562 97.570312 244.335938 110.699219 241.382812 C 110.808594 241.359375 110.875 241.25 110.851562 241.140625 C 110.828125 241.03125 110.71875 240.960938 110.609375 240.988281 C 98.605469 243.691406 94.277344 246.960938 92.738281 249.175781 L 92.738281 247.746094 C 93.714844 245.8125 97.039062 242.378906 108.296875 239.847656 C 108.40625 239.820312 108.476562 239.714844 108.449219 239.605469 C 108.425781 239.496094 108.320312 239.425781 108.207031 239.449219 C 97.960938 241.757812 94.148438 244.796875 92.738281 246.882812 L 92.738281 245.957031 C 93.800781 243.910156 97.570312 240.269531 110.699219 237.316406 C 110.808594 237.289062 110.875 237.183594 110.851562 237.074219 C 110.828125 236.964844 110.71875 236.894531 110.609375 236.917969 C 98.605469 239.621094 94.277344 242.894531 92.738281 245.105469 L 92.738281 243.679688 C 93.714844 241.746094 97.039062 238.3125 108.296875 235.78125 C 108.40625 235.753906 108.476562 235.644531 108.449219 235.535156 C 108.425781 235.425781 108.320312 235.355469 108.207031 235.382812 C 97.960938 237.6875 94.148438 240.726562 92.738281 242.816406 L 92.738281 241.886719 C 93.800781 239.839844 97.570312 236.203125 110.699219 233.25 C 110.808594 233.222656 110.875 233.113281 110.851562 233.003906 C 110.828125 232.894531 110.71875 232.824219 110.609375 232.851562 C 98.605469 235.554688 94.277344 238.824219 92.738281 241.039062 L 92.738281 239.613281 C 93.714844 237.679688 97.039062 234.246094 108.296875 231.710938 C 108.40625 231.6875 108.476562 231.578125 108.449219 231.46875 C 108.425781 231.359375 108.320312 231.289062 108.207031 231.3125 C 97.960938 233.621094 94.148438 236.660156 92.738281 238.746094 L 92.738281 237.820312 C 93.800781 235.773438 97.570312 232.132812 110.699219 229.179688 C 110.808594 229.15625 110.875 229.046875 110.851562 228.9375 C 110.828125 228.828125 110.71875 228.757812 110.609375 228.78125 C 98.605469 231.484375 94.277344 234.757812 92.738281 236.972656 L 92.738281 235.542969 C 93.714844 233.609375 97.039062 230.175781 108.296875 227.644531 C 108.40625 227.617188 108.476562 227.507812 108.449219 227.402344 C 108.425781 227.292969 108.320312 227.222656 108.207031 227.246094 C 97.960938 229.554688 94.148438 232.59375 92.738281 234.679688 L 92.738281 233.75 C 93.800781 231.707031 97.570312 228.066406 110.699219 225.113281 C 110.808594 225.085938 110.875 224.980469 110.851562 224.871094 C 110.828125 224.761719 110.71875 224.691406 110.609375 224.714844 C 98.605469 227.417969 94.277344 230.691406 92.738281 232.902344 L 92.738281 231.476562 C 93.714844 229.542969 97.039062 226.109375 108.296875 223.574219 C 108.40625 223.550781 108.476562 223.441406 108.449219 223.332031 C 108.425781 223.222656 108.320312 223.152344 108.207031 223.179688 C 97.960938 225.484375 94.148438 228.523438 92.738281 230.613281 L 92.738281 229.683594 C 93.800781 227.636719 97.570312 224 110.699219 221.042969 C 110.808594 221.019531 110.875 220.910156 110.851562 220.800781 C 110.828125 220.691406 110.71875 220.621094 110.609375 220.648438 C 98.613281 223.347656 94.28125 226.617188 92.742188 228.832031 C 92.882812 219.226562 134.914062 212.261719 192.789062 212.261719 C 219.125 212.261719 243.664062 213.789062 261.890625 216.558594 C 281.546875 219.546875 292.496094 223.839844 292.820312 228.660156 C 291.175781 226.449219 286.765625 223.277344 275.078125 220.648438 C 274.96875 220.625 274.859375 220.691406 274.835938 220.800781 C 274.808594 220.910156 274.878906 221.019531 274.988281 221.042969 C 287.691406 223.902344 291.628906 227.402344 292.835938 229.480469 Z M 272.28125 256.042969 C 273.574219 255.835938 274.953125 255.730469 276.324219 255.730469 C 278.476562 255.730469 280.515625 255.976562 282.246094 256.433594 L 282.242188 258.914062 C 281.023438 258.265625 279.042969 258.003906 277.140625 258.003906 C 275.339844 258.003906 273.472656 258.238281 272.246094 258.820312 C 272.375 257.375 272.355469 256.539062 272.28125 256.042969 Z M 287.289062 260.539062 C 287.289062 261.273438 286.8125 261.921875 285.875 262.464844 C 282.914062 264.171875 276.417969 264.171875 273.460938 262.464844 C 272.53125 261.925781 272.058594 261.289062 272.046875 260.566406 C 272.050781 260.535156 272.054688 260.511719 272.058594 260.480469 C 272.183594 259.925781 274.09375 259.199219 277.140625 259.199219 C 280.300781 259.199219 282.238281 259.980469 282.238281 260.539062 C 282.238281 260.871094 282.507812 261.136719 282.835938 261.140625 C 283.164062 261.140625 283.433594 260.871094 283.433594 260.542969 L 283.441406 256.804688 C 283.648438 256.875 283.847656 256.953125 284.042969 257.035156 C 285.460938 257.625 287.136719 258.667969 287.277344 260.320312 L 287.28125 260.460938 C 287.28125 260.488281 287.285156 260.511719 287.289062 260.539062 Z M 265.726562 248.839844 C 275.339844 250.484375 282.558594 252.46875 287.125 254.679688 L 287.203125 257.652344 C 286.242188 256.699219 284.808594 255.96875 283.132812 255.460938 C 283.058594 255.417969 282.976562 255.394531 282.890625 255.386719 C 280.890625 254.8125 278.574219 254.535156 276.324219 254.535156 C 272.226562 254.535156 267.910156 255.457031 265.6875 257.429688 C 266.140625 252.429688 266.007812 250.023438 265.726562 248.839844 Z M 279.097656 267.433594 C 272.28125 267.433594 265.386719 265.074219 265.363281 260.566406 C 265.386719 260.351562 265.410156 260.148438 265.429688 259.941406 C 265.855469 258.148438 268.164062 256.914062 271.121094 256.261719 C 271.199219 256.914062 271.082031 258.65625 270.886719 260.199219 C 270.886719 260.21875 270.886719 260.238281 270.882812 260.253906 C 270.875 260.324219 270.863281 260.394531 270.855469 260.464844 C 270.855469 260.480469 270.855469 260.492188 270.855469 260.507812 C 270.855469 260.519531 270.851562 260.53125 270.851562 260.539062 C 270.851562 261.359375 271.199219 262.539062 272.863281 263.5 C 276.234375 265.445312 283.101562 265.445312 286.472656 263.5 C 288.113281 262.550781 288.472656 261.390625 288.480469 260.574219 C 288.492188 260.527344 288.5 260.480469 288.5 260.429688 L 288.359375 255.320312 C 291.304688 256.960938 292.835938 258.710938 292.835938 260.539062 C 292.835938 265.066406 285.925781 267.433594 279.097656 267.433594 Z M 113.332031 258.820312 C 112.101562 258.238281 110.230469 258.003906 108.433594 258.003906 C 106.53125 258.003906 104.550781 258.265625 103.332031 258.914062 L 103.328125 256.433594 C 105.109375 255.964844 107.183594 255.730469 109.246094 255.730469 C 110.664062 255.730469 112.027344 255.839844 113.292969 256.042969 C 113.214844 256.539062 113.199219 257.375 113.332031 258.820312 Z M 98.289062 260.449219 C 98.34375 258.8125 99.890625 257.589844 102.136719 256.796875 L 102.140625 260.539062 L 102.140625 260.542969 C 102.140625 260.871094 102.40625 261.140625 102.738281 261.140625 C 103.070312 261.136719 103.335938 260.871094 103.335938 260.539062 C 103.335938 259.980469 105.273438 259.199219 108.433594 259.199219 C 109.847656 259.199219 111.210938 259.367188 112.175781 259.65625 C 113.074219 259.929688 113.449219 260.25 113.515625 260.46875 C 113.519531 260.5 113.523438 260.53125 113.527344 260.5625 C 113.5 262.632812 109.589844 263.753906 105.90625 263.753906 C 102.21875 263.753906 98.296875 262.628906 98.285156 260.550781 C 98.289062 260.527344 98.289062 260.503906 98.289062 260.476562 Z M 119.886719 257.429688 C 117.664062 255.457031 113.347656 254.535156 109.246094 254.535156 C 107 254.535156 104.683594 254.8125 102.6875 255.386719 C 102.597656 255.394531 102.515625 255.417969 102.441406 255.460938 C 100.671875 255.996094 99.171875 256.78125 98.210938 257.816406 L 98.125 254.839844 C 102.734375 252.527344 110.164062 250.492188 119.851562 248.820312 C 119.566406 249.996094 119.429688 252.402344 119.886719 257.429688 Z M 106.476562 267.433594 C 99.648438 267.433594 92.738281 265.066406 92.738281 260.539062 C 92.738281 258.753906 94.191406 257.058594 96.921875 255.484375 L 97.070312 260.515625 C 97.074219 260.5625 97.082031 260.609375 97.09375 260.65625 C 97.132812 261.648438 97.6875 262.984375 100.027344 263.949219 C 101.589844 264.59375 103.675781 264.945312 105.90625 264.945312 C 111.9375 264.945312 114.667969 262.777344 114.71875 260.605469 C 114.71875 260.589844 114.722656 260.582031 114.722656 260.566406 C 114.722656 260.558594 114.722656 260.550781 114.722656 260.539062 C 114.722656 260.53125 114.71875 260.519531 114.71875 260.507812 C 114.71875 260.492188 114.722656 260.480469 114.71875 260.464844 C 114.710938 260.394531 114.699219 260.324219 114.691406 260.253906 C 114.6875 260.238281 114.6875 260.21875 114.683594 260.199219 C 114.492188 258.65625 114.375 256.910156 114.453125 256.261719 C 115.371094 256.464844 116.21875 256.726562 116.96875 257.035156 C 118.277344 257.582031 119.808594 258.511719 120.144531 259.957031 C 120.167969 260.160156 120.1875 260.355469 120.210938 260.566406 C 120.1875 265.074219 113.289062 267.433594 106.476562 267.433594 Z M 262.070312 215.378906 C 243.789062 212.597656 219.183594 211.066406 192.789062 211.066406 C 166.394531 211.066406 141.789062 212.597656 123.503906 215.378906 C 102.296875 218.601562 91.546875 223.144531 91.546875 228.878906 L 91.546875 260.539062 C 91.546875 263.105469 93.214844 265.234375 96.371094 266.703125 C 99.046875 267.945312 102.636719 268.628906 106.476562 268.628906 C 113.644531 268.628906 121.355469 266.113281 121.40625 260.59375 C 121.40625 260.574219 121.40625 260.558594 121.40625 260.539062 C 121.40625 260.265625 121.375 260 121.320312 259.742188 C 120.800781 254.90625 120.570312 249.570312 121.085938 248.757812 C 121.167969 248.714844 121.230469 248.652344 121.28125 248.582031 C 139.03125 245.65625 163.941406 243.925781 192.789062 243.925781 C 219.125 243.925781 243.664062 245.453125 261.890625 248.222656 C 262.714844 248.347656 263.515625 248.476562 264.308594 248.605469 C 264.359375 248.667969 264.417969 248.71875 264.488281 248.757812 C 265.003906 249.570312 264.773438 254.90625 264.253906 259.742188 C 264.199219 260 264.167969 260.265625 264.167969 260.539062 C 264.167969 263.105469 265.835938 265.234375 268.992188 266.703125 C 271.667969 267.945312 275.257812 268.628906 279.097656 268.628906 C 286.289062 268.628906 294.027344 266.097656 294.027344 260.539062 L 294.027344 228.878906 C 294.027344 223.144531 283.277344 218.601562 262.070312 215.378906 " fill-opacity="1" fill-rule="nonzero"/></g><g clip-path="url(#9da394037e)"><path fill="#fcb036" d="M 145.386719 260.253906 C 145.390625 260.246094 145.394531 260.242188 145.402344 260.242188 C 145.40625 260.242188 145.414062 260.246094 145.414062 260.253906 C 145.546875 260.613281 146.558594 263.308594 147.4375 264.246094 C 148.3125 265.179688 150.6875 266.105469 151.007812 266.230469 C 151.015625 266.230469 151.019531 266.238281 151.019531 266.242188 C 151.019531 266.25 151.015625 266.253906 151.007812 266.257812 C 150.683594 266.382812 148.253906 267.34375 147.378906 268.277344 C 146.507812 269.210938 145.546875 271.859375 145.414062 272.230469 C 145.414062 272.234375 145.40625 272.242188 145.402344 272.242188 C 145.394531 272.242188 145.390625 272.234375 145.386719 272.230469 C 145.277344 271.859375 144.488281 269.257812 143.617188 268.324219 C 142.738281 267.386719 140.117188 266.378906 139.789062 266.253906 C 139.785156 266.253906 139.78125 266.25 139.78125 266.242188 C 139.78125 266.238281 139.785156 266.230469 139.789062 266.230469 C 140.101562 266.089844 142.601562 264.945312 143.480469 264.007812 C 144.355469 263.074219 145.261719 260.597656 145.386719 260.253906 Z M 145.386719 260.253906 " fill-opacity="1" fill-rule="evenodd"/></g><g fill="#d42c00" fill-opacity="1"><g transform="translate(122.809492, 243.587234)"><g><path d="M 10.023438 -4.628906 L 9.261719 -12.027344 L 11.246094 -12.230469 C 12.914062 -12.402344 13.160156 -10.933594 13.242188 -10.144531 C 13.503906 -10.078125 14.738281 -10.140625 15.082031 -10.207031 L 14.457031 -16.253906 C 14.113281 -16.214844 12.886719 -16.058594 12.648438 -15.90625 C 12.703125 -14.765625 12.816406 -13.664062 11.113281 -13.488281 L 9.132812 -13.285156 L 8.378906 -20.304688 C 8.332031 -20.742188 8.363281 -21.066406 8.460938 -21.363281 L 13.964844 -21.960938 C 14.359375 -19.074219 16.300781 -16.570312 18.894531 -17.34375 C 17.941406 -18.582031 17.53125 -22.550781 18.050781 -24.289062 L 9.269531 -23.386719 C 8.386719 -23.296875 6.734375 -22.964844 5.003906 -22.789062 C 2.894531 -22.570312 0.695312 -22.597656 -0.238281 -23.648438 C -0.625 -23.351562 -1.019531 -22.582031 -0.921875 -21.636719 C -0.785156 -20.28125 -0.113281 -19.332031 0.796875 -18.824219 L 2.339844 -3.835938 C 2.449219 -2.796875 2.167969 -1.496094 1.6875 -0.585938 L 1.449219 -0.148438 L 11.679688 -1.203125 L 11.324219 -1.578125 C 10.667969 -2.371094 10.128906 -3.589844 10.023438 -4.628906 Z M 10.023438 -4.628906 "/></g></g></g><g fill="#d42c00" fill-opacity="1"><g transform="translate(143.621511, 241.406047)"><g><path d="M 4.578125 -3.78125 L 5.21875 -6.230469 L 12.890625 -6.71875 L 13.828125 -4.464844 C 14.210938 -3.441406 14.355469 -2.183594 14.15625 -1.3125 L 14.058594 -0.832031 L 24.324219 -1.484375 L 23.789062 -1.925781 C 22.851562 -2.722656 21.949219 -3.933594 21.535156 -4.953125 L 15.5625 -19.605469 C 15.148438 -20.625 14.9375 -21.914062 15.070312 -22.808594 L 15.15625 -23.480469 C 13.058594 -23.0625 7.597656 -22.175781 5.1875 -24.117188 C 4.890625 -23.84375 4.714844 -23.101562 5.121094 -22.175781 C 5.453125 -21.46875 5.871094 -20.859375 6.378906 -20.386719 L 1.925781 -3.609375 C 1.640625 -2.609375 1.054688 -1.367188 0.441406 -0.535156 L 0.00390625 0.0625 L 5.183594 -0.265625 L 5.003906 -0.605469 C 4.46875 -1.519531 4.292969 -2.777344 4.578125 -3.78125 Z M 8.363281 -18.101562 L 12.171875 -8.574219 L 5.726562 -8.167969 Z M 8.363281 -18.101562 "/></g></g></g><g fill="#d42c00" fill-opacity="1"><g transform="translate(167.527174, 239.856337)"><g><path d="M 23.792969 -6.90625 C 23.710938 -10.988281 23.601562 -14.785156 23.519531 -18.867188 C 23.5 -19.910156 23.789062 -21.214844 24.277344 -22.113281 L 24.644531 -22.785156 C 23.726562 -22.640625 22.210938 -22.449219 20.628906 -22.417969 C 18.414062 -22.375 16.097656 -22.644531 15.15625 -23.859375 C 14.75 -23.597656 14.320312 -22.859375 14.339844 -21.910156 C 14.367188 -20.550781 14.925781 -19.550781 15.824219 -18.964844 L 16.070312 -6.78125 C 16.140625 -3.332031 15.414062 -1.671875 13.199219 -1.628906 C 10.984375 -1.582031 10.191406 -3.214844 10.121094 -6.664062 L 9.882812 -18.59375 C 9.859375 -19.636719 10.183594 -20.941406 10.671875 -21.835938 L 11.003906 -22.507812 C 10.089844 -22.363281 8.605469 -22.175781 7.023438 -22.144531 C 4.808594 -22.097656 2.492188 -22.367188 1.550781 -23.582031 C 1.144531 -23.320312 0.683594 -22.585938 0.703125 -21.636719 C 0.730469 -20.273438 1.320312 -19.273438 2.21875 -18.691406 C 2.300781 -14.511719 2.347656 -10.621094 2.433594 -6.476562 C 2.519531 -2.296875 6.847656 0.398438 13.238281 0.269531 C 19.726562 0.140625 23.878906 -2.730469 23.792969 -6.90625 Z M 23.792969 -6.90625 "/></g></g></g><g fill="#d42c00" fill-opacity="1"><g transform="translate(193.346653, 239.349374)"><g><path d="M 22.8125 0.519531 C 22.265625 -1.769531 22.625 -6.449219 23.28125 -8.839844 C 23.386719 -9.34375 23.359375 -9.566406 23.105469 -9.570312 C 22.980469 -9.574219 22.820312 -9.515625 22.597656 -9.425781 C 21.320312 -8.882812 19.789062 -8.507812 18.335938 -8.539062 C 16.847656 -8.574219 15.402344 -9.019531 14.351562 -10.089844 C 12.800781 -8.792969 13.300781 -5.710938 15.972656 -4.984375 C 15.988281 -2.894531 15.195312 -1.300781 13.453125 -1.246094 C 11.550781 -1.160156 9.175781 -3.96875 8.953125 -10.8125 C 8.796875 -16.417969 10.847656 -20.363281 12.816406 -20.507812 C 15.765625 -20.726562 14.1875 -18.257812 14.542969 -15.84375 C 14.820312 -14.097656 16.386719 -13.335938 18.09375 -13.296875 C 19.960938 -13.253906 22.039062 -14.058594 22.765625 -15.40625 C 21 -17.058594 21.53125 -19.515625 21.996094 -21.914062 L 21.324219 -21.546875 C 20.488281 -21.09375 19.726562 -20.949219 19.03125 -20.96875 C 17.035156 -21.011719 15.390625 -22.410156 12.765625 -22.472656 C 5.644531 -22.632812 1.304688 -18.394531 1.140625 -11.148438 C 1.007812 -3.902344 5.179688 0.53125 12.421875 0.789062 C 14.355469 0.835938 16.171875 0.304688 17.460938 -0.679688 C 19.003906 -0.328125 19.542969 0.953125 20.96875 0.984375 C 21.472656 0.996094 22.046875 0.882812 22.8125 0.519531 Z M 22.8125 0.519531 "/></g></g></g><g fill="#d42c00" fill-opacity="1"><g transform="translate(216.98375, 239.901588)"><g><path d="M 20.691406 1.257812 C 20.101562 -0.429688 20.347656 -4.410156 21.25 -5.683594 C 18.632812 -6.386719 16.789062 -3.804688 16.511719 -0.875 L 10.796875 -1.261719 C 10.671875 -1.808594 10.613281 -2.382812 10.648438 -2.921875 L 11.117188 -10.976562 L 13.453125 -10.832031 C 15.097656 -10.730469 15.097656 -9.238281 15.050781 -8.449219 C 15.328125 -8.335938 16.523438 -8.199219 16.875 -8.210938 L 17.25 -14.273438 C 16.902344 -14.296875 15.703125 -14.339844 15.410156 -14.230469 C 15.308594 -13.09375 15.238281 -11.988281 13.53125 -12.097656 L 11.195312 -12.242188 L 11.59375 -18.652344 C 11.621094 -19.097656 11.703125 -19.40625 11.816406 -19.6875 L 17.378906 -19.371094 C 17.292969 -16.460938 18.800781 -13.671875 21.484375 -14.011719 C 20.746094 -15.386719 20.992188 -19.367188 21.792969 -21 L 12.949219 -21.550781 L 12.980469 -21.546875 C 12.09375 -21.601562 10.410156 -21.550781 8.671875 -21.65625 C 6.558594 -21.789062 4.394531 -22.179688 3.609375 -23.367188 C 3.183594 -23.140625 2.695312 -22.441406 2.636719 -21.496094 C 2.554688 -20.136719 3.027344 -19.09375 3.875 -18.4375 L 2.90625 -3.402344 C 2.84375 -2.359375 2.382812 -1.121094 1.730469 -0.304688 L 1.421875 0.0898438 L 11.6875 0.726562 L 11.691406 0.695312 Z M 20.691406 1.257812 "/></g></g></g><g fill="#d42c00" fill-opacity="1"><g transform="translate(238.536616, 241.222925)"><g><path d="M 15.789062 -1.996094 L 17.316406 -17.078125 C 17.371094 -17.613281 17.523438 -18.171875 17.769531 -18.71875 L 20.164062 -18.476562 C 19.964844 -15.570312 21.332031 -12.726562 24.058594 -12.960938 C 23.371094 -14.367188 23.773438 -18.332031 24.636719 -19.933594 L 3.003906 -22.125 C 3.558594 -20.382812 3.15625 -16.414062 2.203125 -15.171875 C 4.796875 -14.402344 6.738281 -16.910156 7.125 -19.796875 L 9.488281 -19.558594 C 9.621094 -18.972656 9.65625 -18.394531 9.601562 -17.859375 L 8.074219 -2.777344 C 7.96875 -1.738281 7.464844 -0.515625 6.78125 0.273438 L 6.457031 0.652344 L 16.6875 1.691406 L 16.445312 1.25 C 15.933594 0.339844 15.683594 -0.957031 15.789062 -1.996094 Z M 15.789062 -1.996094 "/></g></g></g><g fill="#ffffff" fill-opacity="1"><g transform="translate(162.400062, 278.101128)"><g><path d="M 4.5625 -1.5 L 3.21875 -0.859375 L 2.515625 0.96875 L 0.84375 0.328125 L 3.609375 -6.859375 L 5.28125 -6.21875 L 3.984375 -2.859375 L 8.453125 -5 L 10.3125 -4.296875 L 6.09375 -2.234375 L 7.71875 2.96875 L 5.78125 2.21875 Z M 4.5625 -1.5 "/></g></g></g><g fill="#ffffff" fill-opacity="1"><g transform="translate(171.63681, 281.434672)"><g><path d="M 2.890625 -7.203125 L 4.609375 -6.734375 L 2.59375 0.703125 L 0.875 0.234375 Z M 2.890625 -7.203125 "/></g></g></g><g fill="#ffffff" fill-opacity="1"><g transform="translate(176.722047, 282.808039)"><g><path d="M 3.546875 -5.734375 L 1.109375 -6.140625 L 1.359375 -7.578125 L 7.96875 -6.4375 L 7.71875 -5 L 5.296875 -5.421875 L 4.234375 0.734375 L 2.484375 0.421875 Z M 3.546875 -5.734375 "/></g></g></g><g fill="#ffffff" fill-opacity="1"><g transform="translate(185.166022, 284.19776)"><g><path d="M 4.59375 0.34375 C 3.8125 0.300781 3.109375 0.0976562 2.484375 -0.265625 C 1.867188 -0.628906 1.390625 -1.125 1.046875 -1.75 C 0.710938 -2.375 0.566406 -3.066406 0.609375 -3.828125 C 0.640625 -4.597656 0.847656 -5.273438 1.234375 -5.859375 C 1.628906 -6.441406 2.148438 -6.882812 2.796875 -7.1875 C 3.453125 -7.5 4.175781 -7.632812 4.96875 -7.59375 C 5.632812 -7.5625 6.226562 -7.414062 6.75 -7.15625 C 7.28125 -6.894531 7.71875 -6.546875 8.0625 -6.109375 L 6.890625 -5.09375 C 6.398438 -5.71875 5.769531 -6.050781 5 -6.09375 C 4.519531 -6.113281 4.085938 -6.023438 3.703125 -5.828125 C 3.316406 -5.640625 3.007812 -5.363281 2.78125 -5 C 2.5625 -4.632812 2.441406 -4.210938 2.421875 -3.734375 C 2.390625 -3.265625 2.46875 -2.835938 2.65625 -2.453125 C 2.851562 -2.066406 3.132812 -1.757812 3.5 -1.53125 C 3.863281 -1.3125 4.285156 -1.191406 4.765625 -1.171875 C 5.535156 -1.128906 6.195312 -1.398438 6.75 -1.984375 L 7.828125 -0.890625 C 7.441406 -0.453125 6.972656 -0.128906 6.421875 0.078125 C 5.867188 0.285156 5.257812 0.375 4.59375 0.34375 Z M 4.59375 0.34375 "/></g></g></g><g fill="#ffffff" fill-opacity="1"><g transform="translate(195.030168, 284.562089)"><g><path d="M 7.21875 -8.40625 L 7.9375 -0.734375 L 6.15625 -0.578125 L 5.859375 -3.71875 L 2.375 -3.390625 L 2.671875 -0.25 L 0.90625 -0.078125 L 0.1875 -7.75 L 1.953125 -7.921875 L 2.234375 -4.890625 L 5.71875 -5.21875 L 5.4375 -8.25 Z M 7.21875 -8.40625 "/></g></g></g><g fill="#ffffff" fill-opacity="1"><g transform="translate(205.641945, 283.40601)"><g><path d="M 6.375 -2.953125 L 6.703125 -1.546875 L 0.890625 -0.203125 L -0.84375 -7.703125 L 4.828125 -9.015625 L 5.15625 -7.625 L 1.21875 -6.71875 L 1.59375 -5.078125 L 5.078125 -5.875 L 5.390625 -4.546875 L 1.90625 -3.75 L 2.296875 -2.015625 Z M 6.375 -2.953125 "/></g></g></g><g fill="#ffffff" fill-opacity="1"><g transform="translate(214.564635, 281.271776)"><g><path d="M 4.734375 -10.015625 L 7.453125 -2.8125 L 6.09375 -2.296875 L 0.84375 -5.3125 L 2.5 -0.9375 L 0.84375 -0.328125 L -1.875 -7.53125 L -0.484375 -8.046875 L 4.734375 -5.03125 L 3.09375 -9.40625 Z M 4.734375 -10.015625 "/></g></g></g><g clip-path="url(#a54a4c52a7)"><path fill="#fcb036" d="M 239.453125 260.253906 C 239.453125 260.246094 239.460938 260.242188 239.464844 260.242188 C 239.472656 260.242188 239.476562 260.246094 239.480469 260.253906 C 239.613281 260.613281 240.625 263.308594 241.5 264.246094 C 242.375 265.179688 244.753906 266.105469 245.074219 266.230469 C 245.078125 266.230469 245.082031 266.238281 245.082031 266.242188 C 245.082031 266.25 245.078125 266.253906 245.074219 266.257812 C 244.75 266.382812 242.320312 267.34375 241.445312 268.277344 C 240.570312 269.210938 239.613281 271.859375 239.480469 272.230469 C 239.476562 272.234375 239.472656 272.242188 239.464844 272.242188 C 239.460938 272.242188 239.453125 272.234375 239.453125 272.230469 C 239.34375 271.859375 238.554688 269.257812 237.679688 268.324219 C 236.800781 267.386719 234.179688 266.378906 233.855469 266.253906 C 233.847656 266.253906 233.847656 266.25 233.84375 266.242188 C 233.84375 266.238281 233.847656 266.230469 233.855469 266.230469 C 234.167969 266.089844 236.667969 264.945312 237.546875 264.007812 C 238.417969 263.074219 239.328125 260.597656 239.453125 260.253906 Z M 239.453125 260.253906 " fill-opacity="1" fill-rule="evenodd"/></g></svg>